<?xml version="1.0" standalone="no"?>
<!DOCTYPE svg PUBLIC "-//W3C//DTD SVG 1.1//EN" "http://www.w3.org/Graphics/SVG/1.1/DTD/svg11.dtd" >
<svg xmlns="http://www.w3.org/2000/svg" xmlns:xlink="http://www.w3.org/1999/xlink" version="1.1">
<metadata>
Created by FontForge 20170731 at Mon Feb 16 20:23:33 2015
 By Aleksey,,,
Copyright (c) 2015 Monotype Imaging Inc. All rights reserved.
</metadata>
<defs>
<font id="ITCHandelGothicArabicW23-Bd" horiz-adv-x="1455" >
  <font-face 
    font-family="ITCHandelGothicArabicW23-Bd"
    font-weight="700"
    font-stretch="normal"
    units-per-em="2048"
    panose-1="2 11 8 4 4 4 2 2 2 3"
    ascent="1638"
    descent="-410"
    x-height="999"
    cap-height="1360"
    bbox="-365 -928 2839 2466"
    underline-thickness="102"
    underline-position="-358"
    unicode-range="U+000D-FEFC"
  />
<missing-glyph horiz-adv-x="1025" 
d="M25 0v1362h972v-1362h-972zM512 768l330 498h-662zM453 682l-330 496v-992zM901 184v994l-332 -496zM842 98l-330 496l-332 -496h662z" />
    <glyph glyph-name="uniFB01" unicode="fi" horiz-adv-x="1279" 
d="M463 0h-275v791h-151v208h149v56q0 111 31 177.5t97.5 97t177.5 30.5h657v-250h-275v53h-303q-61 0 -85.5 -24t-24.5 -86v-54h299v-208h-297v-791zM1149 0h-275v999h275v-999z" />
    <glyph glyph-name="uniFB02" unicode="fl" horiz-adv-x="1279" 
d="M463 0h-275v791h-151v208h149v56q0 111 31 177.5t97.5 97t177.5 30.5h657v-1360h-275v1161h-303q-59 0 -84.5 -25.5t-25.5 -84.5v-52h299v-208h-297v-791z" />
    <glyph glyph-name="uniFDF2" unicode="&#x627;&#xfedf;&#xfee0;&#xfeea;" horiz-adv-x="2983" arabic-form="isolated" 
d="M51 0v528q0 141 42.5 226.5t132 124.5t233.5 39h426v-682h481v1130h252v-1130h430v1130h252v-1366h-2249zM2585 0v1366h254v-1366h-254zM337 649.5q-34 -32.5 -34 -108.5v-305h330v446h-184q-78 0 -112 -32.5z" />
    <glyph glyph-name="uniFEF5" unicode="&#xfedf;&#xfe82;" horiz-adv-x="1308" arabic-form="isolated" 
d="M1129 182q-45 -87 -130 -134.5t-204 -47.5h-734v236h723q67 0 101.5 36t34.5 109v987h254v-983q0 -116 -45 -203zM365 381v819h253v-819h-253zM399 1544q49 -17 122 -50q62 -28 101 -42t70 -14q32 0 49 17.5t17 58.5h92q0 -93 -34.5 -138.5t-110.5 -45.5q-46 0 -100 17.5
t-130 50.5q-64 27 -101.5 39.5t-64.5 12.5q-34 0 -51.5 -21t-17.5 -67h-95q0 94 43 146.5t119 52.5q43 0 92 -17z" />
    <glyph glyph-name="uniFEF6" unicode="&#xfee0;&#xfe82;" horiz-adv-x="1308" arabic-form="final" 
d="M1307 236q31 0 48 -9.5t25.5 -35t8.5 -74.5q0 -47 -8 -72t-25 -35t-49 -10h-1246v236h859v1132h254v-1132h133zM365 381v819h253v-819h-253zM399 1544q49 -17 122 -50q62 -28 101 -42t70 -14q32 0 49 17.5t17 58.5h92q0 -93 -34.5 -138.5t-110.5 -45.5q-46 0 -100 17.5
t-130 50.5q-64 27 -101.5 39.5t-64.5 12.5q-34 0 -51.5 -21t-17.5 -67h-95q0 94 43 146.5t119 52.5q43 0 92 -17z" />
    <glyph glyph-name="uniFEF7" unicode="&#xfedf;&#xfe84;" horiz-adv-x="1308" arabic-form="isolated" 
d="M1129 182q-45 -87 -130 -134.5t-204 -47.5h-734v236h723q67 0 101.5 36t34.5 109v987h254v-983q0 -116 -45 -203zM365 381v819h253v-819h-253zM567 1629q-37 0 -52 -14.5t-15 -51.5v-106h221v-117h-440v117h94v110q0 96 43.5 138t144.5 42h129v-118h-125z" />
    <glyph glyph-name="uniFEF8" unicode="&#xfee0;&#xfe84;" horiz-adv-x="1308" arabic-form="final" 
d="M1307 236q31 0 48 -9.5t25.5 -35t8.5 -74.5q0 -47 -8 -72t-25 -35t-49 -10h-1246v236h859v1132h254v-1132h133zM365 381v819h253v-819h-253zM567 1629q-37 0 -52 -14.5t-15 -51.5v-106h221v-117h-440v117h94v110q0 96 43.5 138t144.5 42h129v-118h-125z" />
    <glyph glyph-name="uniFEF9" unicode="&#xfedf;&#xfe88;" horiz-adv-x="1308" arabic-form="isolated" 
d="M1129 182q-45 -87 -130 -134.5t-204 -47.5h-734v236h723q67 0 101.5 36t34.5 109v987h254v-983q0 -116 -45 -203zM365 381v819h253v-819h-253zM538 -338q-37 0 -52 -14.5t-15 -50.5v-107h221v-117h-440v117h94v111q0 96 43.5 138t144.5 42h129v-119h-125z" />
    <glyph glyph-name="uniFEFA" unicode="&#xfee0;&#xfe88;" horiz-adv-x="1308" arabic-form="final" 
d="M1307 236q31 0 48 -9.5t25.5 -35t8.5 -74.5q0 -47 -8 -72t-25 -35t-49 -10h-1246v236h859v1132h254v-1132h133zM365 381v819h253v-819h-253zM538 -338q-37 0 -52 -14.5t-15 -50.5v-107h221v-117h-440v117h94v111q0 96 43.5 138t144.5 42h129v-119h-125z" />
    <glyph glyph-name="uniFEFB" unicode="&#xfedf;&#xfe8e;" horiz-adv-x="1308" arabic-form="isolated" 
d="M1129 182q-45 -87 -130 -134.5t-204 -47.5h-734v236h723q67 0 101.5 36t34.5 109v987h254v-983q0 -116 -45 -203zM365 381v819h253v-819h-253z" />
    <glyph glyph-name="uniFEFC" unicode="&#xfee0;&#xfe8e;" horiz-adv-x="1308" arabic-form="final" 
d="M1307 236q31 0 48 -9.5t25.5 -35t8.5 -74.5q0 -47 -8 -72t-25 -35t-49 -10h-1246v236h859v1132h254v-1132h133zM365 381v819h253v-819h-253z" />
    <glyph glyph-name="uni066E.aalt" unicode="&#x66e;" horiz-adv-x="1672" 
d="M1671 236q31 0 48 -9.5t25.5 -35t8.5 -74.5q0 -47 -7.5 -72t-25 -35t-49.5 -10h-1214q-201 0 -296 102.5t-95 300.5v314h251v-289q0 -100 48 -146t153 -46h768v682h252v-682h133z" />
    <glyph glyph-name="uni066F.aalt" unicode="&#x66f;" horiz-adv-x="1678" 
d="M1677 236q31 0 48 -9.5t25.5 -35t8.5 -74.5q0 -47 -7.5 -72t-25 -35t-49.5 -10h-137q0 -296 -148.5 -444t-437.5 -148h-301q-300 0 -443.5 141t-143.5 445v174h253v-176q0 -178 78 -263t246 -85h305q180 0 257 91t83 265h-618v514q0 198 95.5 301t295.5 103h483v-682h133
zM971.5 636q-47.5 -46 -47.5 -147v-253h366v446h-166q-105 0 -152.5 -46z" />
    <glyph glyph-name="uni06A1.init" unicode="&#x6a1;" horiz-adv-x="1233" 
d="M0 0q-32 0 -49 10t-25 35t-8 72q0 49 8.5 74.5t25.5 35t48 9.5h225v278q0 404 391 404h484v-918h-1100zM525 636q-48 -46 -48 -147v-253h367v446h-166q-105 0 -153 -46z" />
    <glyph glyph-name="uni06A1.medi" unicode="&#x6a1;" horiz-adv-x="1233" 
d="M1233 236q31 0 48 -9.5t25.5 -35t8.5 -74.5q0 -47 -8 -72t-25 -35t-49 -10h-1233q-32 0 -49 10t-25 35t-8 72q0 49 8.5 74.5t25.5 35t48 9.5h225v278q0 404 391 404h484v-682h133zM525 636q-48 -46 -48 -147v-253h367v446h-166q-105 0 -153 -46z" />
    <glyph glyph-name="uni06A1.fina" unicode="&#x6a1;" horiz-adv-x="2190" 
d="M2189 236q31 0 48 -9.5t25.5 -35t8.5 -74.5q0 -47 -7.5 -72t-25 -35t-49.5 -10h-1732q-201 0 -296 102.5t-95 300.5v314h251v-289q0 -100 48 -146t153 -46h664v278q0 198 95.5 301t295.5 103h483v-682h133zM1481.5 636q-47.5 -46 -47.5 -147v-253h366v446h-166
q-105 0 -152.5 -46z" />
    <glyph glyph-name="uni06C2.aalt" unicode="&#x6c2;" horiz-adv-x="1060" 
d="M587 1407q-37 0 -52 -14.5t-15 -51.5v-106h221v-117h-440v117h94v110q0 96 43.5 138t144.5 42h129v-118h-125zM1073 236q31 0 48 -9.5t25.5 -35t8.5 -74.5q0 -47 -7.5 -72t-25 -35t-49.5 -10h-1007v514q0 198 95.5 301t295.5 103h483v-682h133zM365 636q-48 -46 -48 -147
v-253h367v446h-166q-105 0 -153 -46z" />
    <glyph glyph-name="uni06C3.aalt" unicode="&#x6c3;" horiz-adv-x="1074" 
d="M454 1348q30 -18 47 -48.5t17 -66.5q0 -34 -17.5 -63.5t-47 -47.5t-64.5 -18t-65 18t-48 47.5t-18 63.5q0 36 17.5 66.5t48 48.5t65.5 18t65 -18zM773 1348q30 -18 47.5 -48.5t17.5 -66.5q0 -33 -18 -63t-47.5 -48t-63.5 -18q-36 0 -67.5 18t-50 47.5t-18.5 63.5
q0 36 18.5 66.5t50 48.5t67.5 18q34 0 64 -18zM1073 236q31 0 48 -9.5t25.5 -35t8.5 -74.5q0 -47 -7.5 -72t-25 -35t-49.5 -10h-1007v514q0 198 95.5 301t295.5 103h483v-682h133zM365 636q-48 -46 -48 -147v-253h367v446h-166q-105 0 -153 -46z" />
    <glyph glyph-name="afii57534.aalt" unicode="&#x6d5;" horiz-adv-x="1074" 
d="M1073 236q31 0 48 -9.5t25.5 -35t8.5 -74.5q0 -47 -7.5 -72t-25 -35t-49.5 -10h-1007v514q0 198 95.5 301t295.5 103h483v-682h133zM365 636q-48 -46 -48 -147v-253h367v446h-166q-105 0 -153 -46z" />
    <glyph glyph-name="uniFB50" unicode="&#x671;" horiz-adv-x="521" arabic-form="isolated" 
d="M401.5 1679.5q13.5 -3.5 26.5 -12.5q22 -22 22 -68v-126h-403v65h53v145h262q26 0 39.5 -3.5zM170 1538h211v49q0 17 -7 24t-24 7h-180v-80zM133 0v1366h254v-1366h-254z" />
    <glyph glyph-name="uniFB51" unicode="&#x671;" horiz-adv-x="550" arabic-form="final" 
d="M420 269q33 -33 110 -33h19q31 0 48 -9.5t25.5 -35t8.5 -74.5q0 -47 -8 -72t-25 -35t-49 -10h-8q-150 0 -238.5 39t-129 124t-40.5 228v975h254v-987q0 -77 33 -110zM397.5 1679.5q13.5 -3.5 26.5 -12.5q22 -22 22 -68v-126h-403v65h53v145h262q26 0 39.5 -3.5zM166 1538
h211v49q0 17 -7 24t-24 7h-180v-80z" />
    <glyph glyph-name="uniFB56" unicode="&#x67e;" horiz-adv-x="1672" arabic-form="isolated" 
d="M457 0q-201 0 -296 102.5t-95 300.5v314h251v-289q0 -100 48 -146t153 -46h768v682h252v-918h-1081zM765 -139q30 -18 48 -47.5t18 -63.5q0 -36 -17.5 -66.5t-48 -48.5t-65.5 -18t-65 18t-47 48.5t-17 66.5q0 34 17.5 63.5t47 47.5t64.5 18t65 -18zM1080.5 -139
q31.5 -18 50 -47.5t18.5 -63.5q0 -36 -18.5 -66.5t-50 -48.5t-67.5 -18q-34 0 -64 18t-47.5 48.5t-17.5 66.5q0 33 18 63t47.5 48t63.5 18q36 0 67.5 -18zM924.5 -413q29.5 -18 47 -48.5t17.5 -64.5q0 -35 -17.5 -65.5t-47 -48t-64.5 -17.5t-65.5 17.5t-48 48t-17.5 65.5
q0 34 18 64.5t48 48.5t65 18t64.5 -18z" />
    <glyph glyph-name="uniFB57" unicode="&#x67e;" horiz-adv-x="1672" arabic-form="final" 
d="M1671 236q31 0 48 -9.5t25.5 -35t8.5 -74.5q0 -47 -7.5 -72t-25 -35t-49.5 -10h-1214q-201 0 -296 102.5t-95 300.5v314h251v-289q0 -100 48 -146t153 -46h768v682h252v-682h133zM765 -139q30 -18 48 -47.5t18 -63.5q0 -36 -17.5 -66.5t-48 -48.5t-65.5 -18t-65 18
t-47 48.5t-17 66.5q0 34 17.5 63.5t47 47.5t64.5 18t65 -18zM1080.5 -139q31.5 -18 50 -47.5t18.5 -63.5q0 -36 -18.5 -66.5t-50 -48.5t-67.5 -18q-34 0 -64 18t-47.5 48.5t-17.5 66.5q0 33 18 63t47.5 48t63.5 18q36 0 67.5 -18zM924.5 -413q29.5 -18 47 -48.5t17.5 -64.5
q0 -35 -17.5 -65.5t-47 -48t-64.5 -17.5t-65.5 17.5t-48 48t-17.5 65.5q0 34 18 64.5t48 48.5t65 18t64.5 -18z" />
    <glyph glyph-name="uniFB58" unicode="&#x67e;" horiz-adv-x="731" arabic-form="initial" 
d="M0 0q-32 0 -49 10t-25 35t-8 72q0 49 8.5 74.5t25.5 35t48 9.5h348v682h252v-918h-600zM266 -139q30 -18 48 -47.5t18 -63.5q0 -36 -17.5 -66.5t-48 -48.5t-65.5 -18t-65 18t-47 48.5t-17 66.5q0 34 17.5 63.5t47 47.5t64.5 18t65 -18zM581.5 -139q31.5 -18 50 -47.5
t18.5 -63.5q0 -36 -18.5 -66.5t-50 -48.5t-67.5 -18q-34 0 -64 18t-47.5 48.5t-17.5 66.5q0 33 18 63t47.5 48t63.5 18q36 0 67.5 -18zM425.5 -413q29.5 -18 47 -48.5t17.5 -64.5q0 -35 -17.5 -65.5t-47 -48t-64.5 -17.5t-65.5 17.5t-48 48t-17.5 65.5q0 34 18 64.5t48 48.5
t65 18t64.5 -18z" />
    <glyph glyph-name="uniFB59" unicode="&#x67e;" horiz-adv-x="748" arabic-form="medial" 
d="M748 236q30 0 47.5 -9.5t25.5 -35t8 -74.5q0 -47 -7.5 -72t-24.5 -35t-49 -10h-748q-32 0 -49 10t-25 35t-8 72q0 49 8.5 74.5t25.5 35t48 9.5h328v682h252v-682h168zM350 -139q30 -18 48 -47.5t18 -63.5q0 -36 -17.5 -66.5t-48 -48.5t-65.5 -18t-65 18t-47 48.5
t-17 66.5q0 34 17.5 63.5t47 47.5t64.5 18t65 -18zM665.5 -139q31.5 -18 50 -47.5t18.5 -63.5q0 -36 -18.5 -66.5t-50 -48.5t-67.5 -18q-34 0 -64 18t-47.5 48.5t-17.5 66.5q0 33 18 63t47.5 48t63.5 18q36 0 67.5 -18zM509.5 -413q29.5 -18 47 -48.5t17.5 -64.5
q0 -35 -17.5 -65.5t-47 -48t-64.5 -17.5t-65.5 17.5t-48 48t-17.5 65.5q0 34 18 64.5t48 48.5t65 18t64.5 -18z" />
    <glyph glyph-name="uniFB66" unicode="&#x679;" horiz-adv-x="1672" arabic-form="isolated" 
d="M516 1106v82h62v301h86v-119h246q61 0 85.5 -24t24.5 -82v-158h-504zM664 1188h268v61q0 22 -8.5 30.5t-30.5 8.5h-229v-100zM457 0q-201 0 -296 102.5t-95 300.5v314h251v-289q0 -100 48 -146t153 -46h768v682h252v-918h-1081z" />
    <glyph glyph-name="uniFB67" unicode="&#x679;" horiz-adv-x="1672" arabic-form="final" 
d="M1671 236q31 0 48 -9.5t25.5 -35t8.5 -74.5q0 -47 -7.5 -72t-25 -35t-49.5 -10h-1214q-201 0 -296 102.5t-95 300.5v314h251v-289q0 -100 48 -146t153 -46h768v682h252v-682h133zM465 1106v82h62v301h86v-119h246q61 0 85.5 -24t24.5 -82v-158h-504zM613 1188h268v61
q0 22 -8.5 30.5t-30.5 8.5h-229v-100z" />
    <glyph glyph-name="uniFB68" unicode="&#x679;" horiz-adv-x="651" arabic-form="initial" 
d="M0 0q-32 0 -49 10t-25 35t-8 72q0 49 8.5 74.5t25.5 35t48 9.5h266v682h252v-918h-518zM63 1106v82h62v301h86v-119h246q61 0 85.5 -24t24.5 -82v-158h-504zM211 1188h268v61q0 22 -8.5 30.5t-30.5 8.5h-229v-100z" />
    <glyph glyph-name="uniFB69" unicode="&#x679;" horiz-adv-x="645" arabic-form="medial" 
d="M645 236q31 0 48 -9.5t25.5 -35t8.5 -74.5q0 -47 -7.5 -72t-25 -35t-49.5 -10h-645q-32 0 -49 10t-25 35t-8 72q0 49 8.5 74.5t25.5 35t48 9.5h266v682h252v-682h127zM121 1106v82h62v301h86v-119h246q61 0 85.5 -24t24.5 -82v-158h-504zM269 1188h268v61q0 22 -8.5 30.5
t-30.5 8.5h-229v-100z" />
    <glyph glyph-name="uniFB6A" unicode="&#x6a4;" horiz-adv-x="2190" arabic-form="isolated" 
d="M1713.5 1622q29.5 -18 47 -48.5t17.5 -66.5q0 -33 -17.5 -63t-47.5 -48t-64 -18q-36 0 -67 18t-49.5 48t-18.5 63q0 36 18 66.5t49.5 48.5t67.5 18q35 0 64.5 -18zM1550 1348q30 -18 47 -48.5t17 -66.5q0 -34 -17.5 -63.5t-47 -47.5t-64.5 -18t-65 18t-48 47.5t-18 63.5
q0 36 17.5 66.5t48 48.5t65.5 18t65 -18zM1870 1348.5q30 -17.5 48 -48t18 -65.5q0 -34 -18 -64.5t-48 -48.5t-65 -18t-64.5 18t-47 48t-17.5 65t17 65.5t47 48t65 17.5t65 -17.5zM457 0q-201 0 -296 102.5t-95 300.5v314h251v-289q0 -100 48 -146t153 -46h664v278
q0 198 95.5 301t295.5 103h483v-918h-1599zM1481.5 636q-47.5 -46 -47.5 -147v-253h366v446h-166q-105 0 -152.5 -46z" />
    <glyph glyph-name="uniFB6B" unicode="&#x6a4;" horiz-adv-x="2190" arabic-form="final" 
d="M2189 236q31 0 48 -9.5t25.5 -35t8.5 -74.5q0 -47 -7.5 -72t-25 -35t-49.5 -10h-1732q-201 0 -296 102.5t-95 300.5v314h251v-289q0 -100 48 -146t153 -46h664v278q0 198 95.5 301t295.5 103h483v-682h133zM1481.5 636q-47.5 -46 -47.5 -147v-253h366v446h-166
q-105 0 -152.5 -46zM1713.5 1622q29.5 -18 47 -48.5t17.5 -66.5q0 -33 -17.5 -63t-47.5 -48t-64 -18q-36 0 -67 18t-49.5 48t-18.5 63q0 36 18 66.5t49.5 48.5t67.5 18q35 0 64.5 -18zM1550 1348q30 -18 47 -48.5t17 -66.5q0 -34 -17.5 -63.5t-47 -47.5t-64.5 -18t-65 18
t-48 47.5t-18 63.5q0 36 17.5 66.5t48 48.5t65.5 18t65 -18zM1870 1348.5q30 -17.5 48 -48t18 -65.5q0 -34 -18 -64.5t-48 -48.5t-65 -18t-64.5 18t-47 48t-17.5 65t17 65.5t47 48t65 17.5t65 -17.5z" />
    <glyph glyph-name="uniFB6C" unicode="&#x6a4;" horiz-adv-x="1233" arabic-form="initial" 
d="M0 0q-32 0 -49 10t-25 35t-8 72q0 49 8.5 74.5t25.5 35t48 9.5h225v278q0 404 391 404h484v-918h-1100zM525 636q-48 -46 -48 -147v-253h367v446h-166q-105 0 -153 -46zM742.5 1622q29.5 -18 47 -48.5t17.5 -66.5q0 -33 -17.5 -63t-47.5 -48t-64 -18q-36 0 -67 18
t-49.5 48t-18.5 63q0 36 18 66.5t49.5 48.5t67.5 18q35 0 64.5 -18zM579 1348q30 -18 47 -48.5t17 -66.5q0 -34 -17.5 -63.5t-47 -47.5t-64.5 -18t-65 18t-48 47.5t-18 63.5q0 36 17.5 66.5t48 48.5t65.5 18t65 -18zM899 1348.5q30 -17.5 48 -48t18 -65.5q0 -34 -18 -64.5
t-48 -48.5t-65 -18t-64.5 18t-47 48t-17.5 65t17 65.5t47 48t65 17.5t65 -17.5z" />
    <glyph glyph-name="uniFB6D" unicode="&#x6a4;" horiz-adv-x="1233" arabic-form="medial" 
d="M1233 236q31 0 48 -9.5t25.5 -35t8.5 -74.5q0 -47 -8 -72t-25 -35t-49 -10h-1233q-32 0 -49 10t-25 35t-8 72q0 49 8.5 74.5t25.5 35t48 9.5h225v278q0 404 391 404h484v-682h133zM525 636q-48 -46 -48 -147v-253h367v446h-166q-105 0 -153 -46zM742.5 1622
q29.5 -18 47 -48.5t17.5 -66.5q0 -33 -17.5 -63t-47.5 -48t-64 -18q-36 0 -67 18t-49.5 48t-18.5 63q0 36 18 66.5t49.5 48.5t67.5 18q35 0 64.5 -18zM579 1348q30 -18 47 -48.5t17 -66.5q0 -34 -17.5 -63.5t-47 -47.5t-64.5 -18t-65 18t-48 47.5t-18 63.5q0 36 17.5 66.5
t48 48.5t65.5 18t65 -18zM899 1348.5q30 -17.5 48 -48t18 -65.5q0 -34 -18 -64.5t-48 -48.5t-65 -18t-64.5 18t-47 48t-17.5 65t17 65.5t47 48t65 17.5t65 -17.5z" />
    <glyph glyph-name="uniFB7A" unicode="&#x686;" horiz-adv-x="1222" arabic-form="isolated" 
d="M991 754q129 -180 129 -463v-291h-690q-57 0 -95 -28.5t-38 -82.5q0 -57 39 -77.5t90 -20.5h78v-235h-45q-202 0 -300 83t-98 250q0 118 50 196t132 114.5t179 36.5h463v71q0 179 -81.5 287t-285.5 108q-74 0 -147 -12l-41 219q115 25 219 25q313 0 442 -180zM755 -139
q30 -18 48 -47.5t18 -63.5q0 -36 -17.5 -66.5t-48 -48.5t-65.5 -18t-65 18t-47 48.5t-17 66.5q0 34 17.5 63.5t47 47.5t64.5 18t65 -18zM1070.5 -139q31.5 -18 50 -47.5t18.5 -63.5q0 -36 -18.5 -66.5t-50 -48.5t-67.5 -18q-34 0 -64 18t-47.5 48.5t-17.5 66.5q0 33 18 63
t47.5 48t63.5 18q36 0 67.5 -18zM914.5 -413q29.5 -18 47 -48.5t17.5 -64.5q0 -35 -17.5 -65.5t-47 -48t-64.5 -17.5t-65.5 17.5t-48 48t-17.5 65.5q0 34 18 64.5t48 48.5t65 18t64.5 -18z" />
    <glyph glyph-name="uniFB7B" unicode="&#x686;" horiz-adv-x="1263" arabic-form="final" 
d="M991 754q129 -180 129 -463v-55h142q30 0 47.5 -9.5t25.5 -35t8 -74.5q0 -47 -7.5 -72t-24.5 -35t-49 -10h-832q-57 0 -95 -28.5t-38 -82.5q0 -57 39 -77.5t90 -20.5h78v-235h-45q-202 0 -300 83t-98 250q0 118 50 196t132 114.5t179 36.5h463v71q0 179 -81.5 287
t-285.5 108q-74 0 -147 -12l-41 219q115 25 219 25q313 0 442 -180zM755 -139q30 -18 48 -47.5t18 -63.5q0 -36 -17.5 -66.5t-48 -48.5t-65.5 -18t-65 18t-47 48.5t-17 66.5q0 34 17.5 63.5t47 47.5t64.5 18t65 -18zM1070.5 -139q31.5 -18 50 -47.5t18.5 -63.5
q0 -36 -18.5 -66.5t-50 -48.5t-67.5 -18q-34 0 -64 18t-47.5 48.5t-17.5 66.5q0 33 18 63t47.5 48t63.5 18q36 0 67.5 -18zM914.5 -413q29.5 -18 47 -48.5t17.5 -64.5q0 -35 -17.5 -65.5t-47 -48t-64.5 -17.5t-65.5 17.5t-48 48t-17.5 65.5q0 34 18 64.5t48 48.5t65 18
t64.5 -18z" />
    <glyph glyph-name="uniFB7C" unicode="&#x686;" horiz-adv-x="1008" arabic-form="initial" 
d="M-49 10q-17 10 -25 35t-8 72q0 49 8.5 74.5t25.5 35t48 9.5h682v71q0 118 -27.5 204t-104 138.5t-216.5 52.5q-73 0 -148 -12l-41 219q115 25 220 25q313 0 442 -180.5t129 -462.5v-291h-936q-32 0 -49 10zM405 -139q30 -18 48 -47.5t18 -63.5q0 -36 -17.5 -66.5
t-48 -48.5t-65.5 -18t-65 18t-47 48.5t-17 66.5q0 34 17.5 63.5t47 47.5t64.5 18t65 -18zM720.5 -139q31.5 -18 50 -47.5t18.5 -63.5q0 -36 -18.5 -66.5t-50 -48.5t-67.5 -18q-34 0 -64 18t-47.5 48.5t-17.5 66.5q0 33 18 63t47.5 48t63.5 18q36 0 67.5 -18zM564.5 -413
q29.5 -18 47 -48.5t17.5 -64.5q0 -35 -17.5 -65.5t-47 -48t-64.5 -17.5t-65.5 17.5t-48 48t-17.5 65.5q0 34 18 64.5t48 48.5t65 18t64.5 -18z" />
    <glyph glyph-name="uniFB7D" unicode="&#x686;" horiz-adv-x="1073" arabic-form="medial" 
d="M365 934q313 0 442 -180.5t129 -462.5v-55h137q31 0 48 -9.5t25.5 -35t8.5 -74.5q0 -47 -7.5 -72t-25 -35t-49.5 -10h-1073q-32 0 -49 10t-25 35t-8 72q0 49 8.5 74.5t25.5 35t48 9.5h680v71q0 119 -27 204.5t-103 138t-216 52.5q-73 0 -148 -12l-41 219q115 25 220 25z
M452 -139q30 -18 48 -47.5t18 -63.5q0 -36 -17.5 -66.5t-48 -48.5t-65.5 -18t-65 18t-47 48.5t-17 66.5q0 34 17.5 63.5t47 47.5t64.5 18t65 -18zM767.5 -139q31.5 -18 50 -47.5t18.5 -63.5q0 -36 -18.5 -66.5t-50 -48.5t-67.5 -18q-34 0 -64 18t-47.5 48.5t-17.5 66.5
q0 33 18 63t47.5 48t63.5 18q36 0 67.5 -18zM611.5 -413q29.5 -18 47 -48.5t17.5 -64.5q0 -35 -17.5 -65.5t-47 -48t-64.5 -17.5t-65.5 17.5t-48 48t-17.5 65.5q0 34 18 64.5t48 48.5t65 18t64.5 -18z" />
    <glyph glyph-name="uniFB88" unicode="&#x688;" horiz-adv-x="1091" arabic-form="isolated" 
d="M229 1106v82h62v301h86v-119h246q61 0 85.5 -24t24.5 -82v-158h-504zM377 1188h268v61q0 22 -8.5 30.5t-30.5 8.5h-229v-100zM901.5 815q95.5 -103 95.5 -301v-514h-936v236h682v253q0 101 -47.5 147t-152.5 46h-332v236h395q200 0 295.5 -103z" />
    <glyph glyph-name="uniFB89" unicode="&#x688;" horiz-adv-x="1134" arabic-form="final" 
d="M901.5 815q95.5 -103 95.5 -301v-278h136q30 0 47.5 -9.5t25.5 -35t8 -74.5q0 -47 -7.5 -72t-24.5 -35t-49 -10h-1072v236h682v253q0 101 -47.5 147t-152.5 46h-332v236h395q200 0 295.5 -103zM235 1106v82h62v301h86v-119h246q61 0 85.5 -24t24.5 -82v-158h-504z
M383 1188h268v61q0 22 -8.5 30.5t-30.5 8.5h-229v-100z" />
    <glyph glyph-name="uniFB8A" unicode="&#x698;" horiz-adv-x="629" arabic-form="isolated" 
d="M394 -327.5q-102 -116.5 -310 -116.5h-104v241h79q89 0 136 56.5t47 152.5v912h254v-920q0 -209 -102 -325.5zM377.5 1622q29.5 -18 47 -48.5t17.5 -66.5q0 -33 -17.5 -63t-47.5 -48t-64 -18q-36 0 -67 18t-49.5 48t-18.5 63q0 36 18 66.5t49.5 48.5t67.5 18
q35 0 64.5 -18zM214 1348q30 -18 47 -48.5t17 -66.5q0 -34 -17.5 -63.5t-47 -47.5t-64.5 -18t-65 18t-48 47.5t-18 63.5q0 36 17.5 66.5t48 48.5t65.5 18t65 -18zM534 1348.5q30 -17.5 48 -48t18 -65.5q0 -34 -18 -64.5t-48 -48.5t-65 -18t-64.5 18t-47 48t-17.5 65t17 65.5
t47 48t65 17.5t65 -17.5z" />
    <glyph glyph-name="uniFB8B" unicode="&#x698;" horiz-adv-x="627" arabic-form="final" 
d="M627 236q31 0 48 -9.5t25.5 -35t8.5 -74.5q0 -47 -8 -72t-25 -35t-49 -10h-131q0 -211 -102 -327.5t-310 -116.5h-104v241h79q95 0 139 58.5t44 150.5v912h254v-682h131zM398.5 1622q29.5 -18 47 -48.5t17.5 -66.5q0 -33 -17.5 -63t-47.5 -48t-64 -18q-36 0 -67 18
t-49.5 48t-18.5 63q0 36 18 66.5t49.5 48.5t67.5 18q35 0 64.5 -18zM235 1348q30 -18 47 -48.5t17 -66.5q0 -34 -17.5 -63.5t-47 -47.5t-64.5 -18t-65 18t-48 47.5t-18 63.5q0 36 17.5 66.5t48 48.5t65.5 18t65 -18zM555 1348.5q30 -17.5 48 -48t18 -65.5q0 -34 -18 -64.5
t-48 -48.5t-65 -18t-64.5 18t-47 48t-17.5 65t17 65.5t47 48t65 17.5t65 -17.5z" />
    <glyph glyph-name="uniFB8C" unicode="&#x691;" horiz-adv-x="629" arabic-form="isolated" 
d="M394 -327.5q-102 -116.5 -310 -116.5h-104v241h79q89 0 136 56.5t47 152.5v912h254v-920q0 -209 -102 -325.5zM37 1106v82h62v301h86v-119h246q61 0 85.5 -24t24.5 -82v-158h-504zM185 1188h268v61q0 22 -8.5 30.5t-30.5 8.5h-229v-100z" />
    <glyph glyph-name="uniFB8D" unicode="&#x691;" horiz-adv-x="627" arabic-form="final" 
d="M627 236q31 0 48 -9.5t25.5 -35t8.5 -74.5q0 -47 -8 -72t-25 -35t-49 -10h-131q0 -211 -102 -327.5t-310 -116.5h-104v241h79q95 0 139 58.5t44 150.5v912h254v-682h131zM88 1106v82h62v301h86v-119h246q61 0 85.5 -24t24.5 -82v-158h-504zM236 1188h268v61
q0 22 -8.5 30.5t-30.5 8.5h-229v-100z" />
    <glyph glyph-name="uniFB8E" unicode="&#x6a9;" horiz-adv-x="1603" arabic-form="isolated" 
d="M582 918h536q200 0 295.5 -103t95.5 -301v-514h-1427v236h1173v253q0 101 -47.5 147t-152.5 46h-791v109q0 72 19.5 123t67 99.5t136.5 108.5l672 451v-275z" />
    <glyph glyph-name="uniFB8F" unicode="&#x6a9;" horiz-adv-x="1641" arabic-form="final" 
d="M582 918h532q391 0 391 -404v-278h135q31 0 48 -9.5t25.5 -35t8.5 -74.5q0 -47 -7.5 -72t-25 -35t-49.5 -10h-1558v236h1169v253q0 101 -47.5 147t-152.5 46h-787v109q0 72 19.5 123t67 99.5t136.5 108.5l672 451v-275z" />
    <glyph glyph-name="uniFB90" unicode="&#x6a9;" horiz-adv-x="1479" arabic-form="initial" 
d="M459 918h536q200 0 295.5 -103t95.5 -301v-514h-1386q-32 0 -49 10t-25 35t-8 72q0 49 8.5 74.5t25.5 35t48 9.5h1133v253q0 101 -48 147t-153 46h-791v109q0 72 19.5 123.5t67 99.5t137.5 108l671 451v-275z" />
    <glyph glyph-name="uniFB91" unicode="&#x6a9;" horiz-adv-x="1518" arabic-form="medial" 
d="M459 918h532q200 0 295.5 -103t95.5 -301v-278h136q30 0 47.5 -9.5t25.5 -35t8 -74.5q0 -47 -7.5 -72t-24.5 -35t-49 -10h-1518q-32 0 -49 10t-25 35t-8 72q0 49 8.5 74.5t25.5 35t48 9.5h1128v253q0 101 -47.5 147t-152.5 46h-787v109q0 72 19.5 123.5t67 99.5
t137.5 108l671 451v-275z" />
    <glyph glyph-name="uniFB92" unicode="&#x6af;" horiz-adv-x="1603" arabic-form="isolated" 
d="M274 1133v229l887 561v-229zM582 918h536q200 0 295.5 -103t95.5 -301v-514h-1427v236h1173v253q0 101 -47.5 147t-152.5 46h-791v109q0 72 19.5 123t67 99.5t136.5 108.5l672 451v-275z" />
    <glyph glyph-name="uniFB93" unicode="&#x6af;" horiz-adv-x="1641" arabic-form="final" 
d="M582 918h532q391 0 391 -404v-278h135q31 0 48 -9.5t25.5 -35t8.5 -74.5q0 -47 -7.5 -72t-25 -35t-49.5 -10h-1558v236h1169v253q0 101 -47.5 147t-152.5 46h-787v109q0 72 19.5 123t67 99.5t136.5 108.5l672 451v-275zM274 1133v229l887 561v-229z" />
    <glyph glyph-name="uniFB94" unicode="&#x6af;" horiz-adv-x="1479" arabic-form="initial" 
d="M459 918h536q200 0 295.5 -103t95.5 -301v-514h-1386q-32 0 -49 10t-25 35t-8 72q0 49 8.5 74.5t25.5 35t48 9.5h1133v253q0 101 -48 147t-153 46h-791v109q0 72 19.5 123.5t67 99.5t137.5 108l671 451v-275zM147 1133v229l887 561v-229z" />
    <glyph glyph-name="uniFB95" unicode="&#x6af;" horiz-adv-x="1518" arabic-form="medial" 
d="M459 918h532q200 0 295.5 -103t95.5 -301v-278h136q30 0 47.5 -9.5t25.5 -35t8 -74.5q0 -47 -7.5 -72t-24.5 -35t-49 -10h-1518q-32 0 -49 10t-25 35t-8 72q0 49 8.5 74.5t25.5 35t48 9.5h1128v253q0 101 -47.5 147t-152.5 46h-787v109q0 72 19.5 123.5t67 99.5
t137.5 108l671 451v-275zM139 1133v229l887 561v-229z" />
    <glyph glyph-name="uniFB9E" unicode="&#x6ba;" horiz-adv-x="1379" arabic-form="isolated" 
d="M1177 -190.5q-68 -124.5 -200.5 -189t-321.5 -64.5t-321 64.5t-200 189t-68 301.5v528h253v-438q0 -193 75.5 -301.5t260.5 -108.5q186 0 261 108.5t75 301.5v717h254v-807q0 -177 -68 -301.5z" />
    <glyph glyph-name="uniFB9F" unicode="&#x6ba;" horiz-adv-x="1457" arabic-form="final" 
d="M1456 236q31 0 48 -9.5t25.5 -35t8.5 -74.5q0 -47 -7.5 -72t-25 -35t-49.5 -10h-225q-23 -137 -96 -236.5t-194.5 -153.5t-285.5 -54q-189 0 -321 64.5t-200 189t-68 301.5v528h253v-438q0 -193 75.5 -301.5t260.5 -108.5q186 0 261 108.5t75 301.5v717h254v-682h211z
" />
    <glyph glyph-name="uniFBA4" unicode="&#x6c0;" horiz-adv-x="957" arabic-form="isolated" 
d="M66 0v514q0 198 95.5 301t295.5 103h483v-918h-874zM365 636q-48 -46 -48 -147v-253h367v446h-166q-105 0 -153 -46zM587 1407q-37 0 -52 -14.5t-15 -51.5v-106h221v-117h-440v117h94v110q0 96 43.5 138t144.5 42h129v-118h-125z" />
    <glyph glyph-name="uniFBA5" unicode="&#x6c0;" horiz-adv-x="1060" arabic-form="final" 
d="M1073 236q31 0 48 -9.5t25.5 -35t8.5 -74.5q0 -47 -7.5 -72t-25 -35t-49.5 -10h-1007v514q0 198 95.5 301t295.5 103h483v-682h133zM365 636q-48 -46 -48 -147v-253h367v446h-166q-105 0 -153 -46zM587 1407q-37 0 -52 -14.5t-15 -51.5v-106h221v-117h-440v117h94v110
q0 96 43.5 138t144.5 42h129v-118h-125z" />
    <glyph glyph-name="uniFBA6" unicode="&#x6c1;" horiz-adv-x="1074" arabic-form="isolated" 
d="M66 0v514q0 198 95.5 301t295.5 103h483v-918h-874zM365 636q-48 -46 -48 -147v-253h367v446h-166q-105 0 -153 -46z" />
    <glyph glyph-name="uniFBA7" unicode="&#x6c1;" horiz-adv-x="1125" arabic-form="final" 
d="M1124 236q31 0 48 -9.5t25.5 -35t8.5 -74.5q0 -47 -7.5 -72t-25 -35t-49.5 -10h-477v682h-182q-78 0 -112 -32.5t-34 -108.5v-541h-253v528q0 141 42.5 226.5t131.5 124.5t233 39h428v-682h223z" />
    <glyph glyph-name="uniFBA8" unicode="&#x6c1;" horiz-adv-x="672" arabic-form="initial" 
d="M0 0q-32 0 -49 10t-25 35t-8 72q0 49 8.5 74.5t25.5 35t48 9.5h285v682h254v-918h-539zM378 -154q-30 -39 -30 -71q0 -13 9 -25t29 -32q31 -29 48 -55t17 -64q0 -61 -35.5 -104.5t-102.5 -43.5q-66 0 -102.5 42.5t-36.5 105.5q0 68 30.5 131.5t80 113.5t106.5 78h60
q-43 -37 -73 -76z" />
    <glyph glyph-name="uniFBA9" unicode="&#x6c1;" horiz-adv-x="877" arabic-form="medial" 
d="M927 226.5q17 -9.5 25.5 -35t8.5 -74.5q0 -47 -8 -72t-25 -35t-49 -10h-70l-340 -518l-119 82q-117 80 -174 149.5t-57 157.5q0 27 8 62t23 67h-150q-32 0 -49 10t-25 35t-8 72q0 49 8.5 74.5t25.5 35t48 9.5h479l-117 -185q-35 -58 -50 -89.5t-15 -59.5t16.5 -54.5
t53.5 -56.5l59 -45l322 490h131q31 0 48 -9.5z" />
    <glyph glyph-name="uniFBAA" unicode="&#x6be;" horiz-adv-x="1600" arabic-form="isolated" 
d="M1298.5 784q124.5 -105 177 -248.5t52.5 -299.5v-236h-1374q-44 0 -73.5 29.5t-29.5 76.5v130h101q0 141 55.5 286.5t182 255.5t325.5 138v102h254v-102q205 -27 329.5 -132zM715 687q-158 -32 -232.5 -148.5t-74.5 -302.5h307v451zM1202.5 537q-71.5 116 -233.5 149
v-450h305q0 185 -71.5 301z" />
    <glyph glyph-name="uniFBAB" unicode="&#x6be;" horiz-adv-x="1662" arabic-form="final" 
d="M1709 226.5q17 -9.5 25.5 -35t8.5 -74.5q0 -47 -8 -72t-25 -35t-49 -10h-1507q-44 0 -73.5 29.5t-29.5 76.5v130h101q0 141 55.5 286t182 255t325.5 138v103h254v-103q205 -24 329.5 -129t177 -249.5t52.5 -300.5h133q31 0 48 -9.5zM482.5 538.5
q-74.5 -116.5 -74.5 -302.5h307v450q-158 -31 -232.5 -147.5zM1274 236q0 185 -71.5 301.5t-233.5 148.5v-450h305z" />
    <glyph glyph-name="uniFBAC" unicode="&#x6be;" horiz-adv-x="1599" arabic-form="initial" 
d="M1299.5 789q124.5 -101 176.5 -244t52 -309v-236h-1528q-32 0 -49 10t-25 35t-8 72q0 49 8.5 74.5t25.5 35t48 9.5h152q0 141 55.5 286.5t182 255.5t325.5 138v102h254v-102q206 -26 330.5 -127zM715 687q-158 -32 -232.5 -148.5t-74.5 -302.5h307v451zM1202.5 537
q-71.5 116 -233.5 149v-450h305q0 185 -71.5 301z" />
    <glyph glyph-name="uniFBAD" unicode="&#x6be;" horiz-adv-x="1661" arabic-form="medial" 
d="M1709 226.5q17 -9.5 25.5 -35t8.5 -74.5q0 -47 -8 -72t-25 -35t-49 -10h-1661q-32 0 -49 10t-25 35t-8 72q0 49 8.5 74.5t25.5 35t48 9.5h152q0 141 55.5 286.5t182 255.5t325.5 138v102h254v-102q206 -26 330.5 -127t176.5 -244t52 -309h133q31 0 48 -9.5zM715 687
q-158 -32 -232.5 -148.5t-74.5 -302.5h307v451zM1202.5 537q-71.5 116 -233.5 149v-450h305q0 185 -71.5 301z" />
    <glyph glyph-name="uniFBAE" unicode="&#x6d2;" horiz-adv-x="2149" arabic-form="isolated" 
d="M1247.5 714q-42.5 -85 -131.5 -124t-233 -39h-418q-78 0 -112 -32.5t-34 -108.5v-174h1766v-236h-2019v397q0 141 42.5 226t131.5 124t233 39h418q77 0 111 32.5t34 109.5v188h254v-176q0 -141 -42.5 -226z" />
    <glyph glyph-name="uniFBAF" unicode="&#x6d2;" horiz-adv-x="1367" arabic-form="final" 
d="M1414 226.5q17 -9.5 25.5 -35t8.5 -74.5q0 -47 -8 -72t-25 -35t-49 -10h-932q-56 0 -94.5 -28.5t-38.5 -82.5q0 -57 39 -77.5t90 -20.5h774v-235h-741q-201 0 -299 83t-98 250q0 118 50 196t131.5 114.5t178.5 36.5h940q31 0 48 -9.5z" />
    <glyph glyph-name="uniFBB0" unicode="&#x6d3;" horiz-adv-x="2166" arabic-form="isolated" 
d="M426 1194q-37 0 -52 -14.5t-15 -51.5v-106h221v-117h-440v117h94v110q0 96 43.5 138t144.5 42h129v-118h-125zM1247.5 714q-42.5 -85 -131.5 -124t-233 -39h-418q-78 0 -112 -32.5t-34 -108.5v-174h1766v-236h-2019v397q0 141 42.5 226t131.5 124t233 39h418
q77 0 111 32.5t34 109.5v188h254v-176q0 -141 -42.5 -226z" />
    <glyph glyph-name="uniFBB1" unicode="&#x6d3;" horiz-adv-x="1300" arabic-form="final" 
d="M1414 226.5q17 -9.5 25.5 -35t8.5 -74.5q0 -47 -8 -72t-25 -35t-49 -10h-932q-56 0 -94.5 -28.5t-38.5 -82.5q0 -57 39 -77.5t90 -20.5h774v-235h-741q-201 0 -299 83t-98 250q0 118 50 196t131.5 114.5t178.5 36.5h940q31 0 48 -9.5zM295 744q-37 0 -52 -14.5t-15 -51.5
v-106h221v-117h-440v117h94v110q0 96 43.5 138t144.5 42h129v-118h-125z" />
    <glyph glyph-name="uniFBE8" unicode="&#x649;" horiz-adv-x="651" arabic-form="initial" 
d="M0 0q-32 0 -49 10t-25 35t-8 72q0 49 8.5 74.5t25.5 35t48 9.5h266v682h252v-918h-518z" />
    <glyph glyph-name="uniFBE9" unicode="&#x649;" horiz-adv-x="645" arabic-form="medial" 
d="M645 236q31 0 48 -9.5t25.5 -35t8.5 -74.5q0 -47 -7.5 -72t-25 -35t-49.5 -10h-645q-32 0 -49 10t-25 35t-8 72q0 49 8.5 74.5t25.5 35t48 9.5h266v682h252v-682h127z" />
    <glyph glyph-name="uniFBFD" unicode="&#x6cc;" horiz-adv-x="1953" arabic-form="final" 
d="M1952 236q31 0 48 -9.5t25.5 -35t8.5 -74.5q0 -47 -8 -72t-25 -35t-49 -10h-385v682h-121q-105 0 -153 -46t-48 -147v-378q0 -177 -68 -301.5t-200.5 -189t-321.5 -64.5t-321 64.5t-200 189t-68 301.5v528h253v-438q0 -193 75.5 -301.5t260.5 -108.5q186 0 261 108.5
t75 301.5v313q0 404 393 404h437v-682h131z" />
    <glyph glyph-name="uniFBFE" unicode="&#x6cc;" horiz-adv-x="762" arabic-form="initial" 
d="M0 0q-32 0 -49 10t-25 35t-8 72q0 49 8.5 74.5t25.5 35t48 9.5h348v682h252v-918h-600zM296 -139q30 -18 47 -48.5t17 -66.5q0 -34 -17.5 -63.5t-47 -47.5t-64.5 -18t-65 18t-48 47.5t-18 63.5q0 36 17.5 66.5t48 48.5t65.5 18t65 -18zM615 -139q30 -18 47.5 -48.5
t17.5 -66.5q0 -33 -18 -63t-47.5 -48t-63.5 -18q-36 0 -67.5 18t-50 47.5t-18.5 63.5q0 36 18.5 66.5t50 48.5t67.5 18q34 0 64 -18z" />
    <glyph glyph-name="uniFBFF" unicode="&#x6cc;" horiz-adv-x="748" arabic-form="medial" 
d="M748 236q30 0 47.5 -9.5t25.5 -35t8 -74.5q0 -47 -7.5 -72t-24.5 -35t-49 -10h-748q-32 0 -49 10t-25 35t-8 72q0 49 8.5 74.5t25.5 35t48 9.5h328v682h252v-682h168zM346 -139q30 -18 47 -48.5t17 -66.5q0 -34 -17.5 -63.5t-47 -47.5t-64.5 -18t-65 18t-48 47.5
t-18 63.5q0 36 17.5 66.5t48 48.5t65.5 18t65 -18zM665 -139q30 -18 47.5 -48.5t17.5 -66.5q0 -33 -18 -63t-47.5 -48t-63.5 -18q-36 0 -67.5 18t-50 47.5t-18.5 63.5q0 36 18.5 66.5t50 48.5t67.5 18q34 0 64 -18z" />
    <glyph glyph-name="uniFDFA" unicode="&#xfdfa;" horiz-adv-x="2498" arabic-form="isolated" 
d="M621 1300v46h34v-39q0 -33 27 -33t27 31v30h34v-28q0 -33 29 -33q23 0 23 31v41h34v-46q0 -31 -14.5 -46t-40.5 -15q-12 0 -25.5 5t-21.5 18q-9 -14 -22.5 -18.5t-24.5 -4.5q-59 0 -59 61zM1690 379q0 -14 16.5 -20.5t36.5 -6.5h231q-32 66 -32 127q0 68 45.5 112
t130.5 44q22 0 48.5 -2.5t41.5 -5.5v-52q-8 3 -31 5t-47 2q-53 0 -87 -27t-34 -86q0 -49 35 -117h207v-55h-502q-46 0 -70 33q-23 -33 -90 -33h-473v-393q0 -14 16.5 -20.5t34.5 -6.5h246v205h66v-205h104v205h66v-205h131v275h65v-328h-671q-23 0 -40 7.5t-30 25.5
q-23 -33 -88 -33h-375q-46 -66 -125 -66h-117q-3 10 -11 28q-3 7 -7 16t-8 22h-25q-23 0 -31 -11t-8 -46v-138h-63v191q0 57 57 57h53q-8 28 -8 64q0 67 44 111t120 44q55 0 91 -24t52.5 -61.5t16.5 -78.5q0 -21 -8 -55h337q30 0 40 14t10 48v358h-222q-46 0 -69 33
q-23 -33 -90 -33h-78q-69 0 -94 43h-72q-180 0 -180 137q0 156 190 156q25 0 59 -2.5t54 -5.5v-211q0 -30 12 -46t43 -16h51q30 0 41 14.5t11 47.5v213h65v-248q0 -14 16.5 -20.5t34.5 -6.5h228v166h65v-166h457q31 0 41 14t10 48v350h-33q-51 0 -69 33q-14 -15 -34 -24
t-56 -9h-31q35 -25 35 -53q0 -34 -31.5 -67t-92 -54t-143.5 -21q-120 0 -186.5 34t-81.5 108l66 10q14 -51 62.5 -74.5t141.5 -23.5q59 0 104 12.5t69 32.5t24 43q0 26 -38 43.5t-106 37.5l-32 9v57q111 -41 186 -41h37q31 0 41 14t10 48v444h66v-479q0 -14 17 -20.5
t36 -6.5h39v381h66v-381h79v275h66v-27q127 27 207 27q114 0 161.5 -47.5t47.5 -139.5v-141h-561v-385zM290 839.5q-44 34.5 -44 104.5q0 154 188 154q22 0 58.5 -2.5t56.5 -5.5v-211q0 -30 12 -46t43 -16h41q30 0 40.5 14t10.5 48v307h66v-342q0 -14 16.5 -20.5t34.5 -6.5
h84v506h64v-559h-142q-48 0 -69 33q-25 -33 -91 -33h-67q-34 0 -57.5 9.5t-36.5 31.5h-72q-92 0 -136 34.5zM1044 764v559h64v-559h-64zM1872 1233v35l221 26v-34zM1180 1065v35l221 26v-34zM313 950q0 -49 31 -71.5t94 -22.5h45v186q-34 7 -53 7q-117 0 -117 -99zM2183 817
v66q0 86 -35 121.5t-116 35.5q-74 0 -197 -24v-199h348zM430 582q-117 0 -117 -97q0 -49 31.5 -71.5t93.5 -22.5h45v187q-24 4 -53 4zM1522 487l-222 -28v37l222 26v-35zM713 172q-12 -12 -31 -12q-17 0 -29 12t-12 29q0 16 12 28.5t29 12.5q18 0 30.5 -12.5t12.5 -28.5
q0 -17 -12 -29zM813 172q-12 -12 -31 -12q-16 0 -28.5 12t-12.5 29q0 15 13 28t28 13q18 0 30.5 -12.5t12.5 -28.5q0 -17 -12 -29zM1210 172l222 27v-35l-222 -27v35zM2247 152h4v-306q0 -79 -34.5 -118t-123.5 -39h-94v51h94q46 0 67.5 19.5t22.5 64.5h-45
q-109 0 -149.5 49t-40.5 117q0 79 50.5 124.5t158.5 45.5q36 0 90 -8zM2171 107.5q-6 1.5 -14 1.5q-62 0 -104 -23t-42 -96q0 -113 131 -113h41v229q-6 0 -12 1.5zM579.5 -151q24.5 35 24.5 81q0 52 -24.5 82.5t-69.5 30.5q-39 0 -66.5 -26t-27.5 -78q0 -64 33 -125h59
q47 0 71.5 35zM1475 -236v-167h-445v38h211v95h47v-95h41v95h43v-95h58v129h45z" />
    <glyph glyph-name="uniFE80" unicode="&#x621;" horiz-adv-x="687" arabic-form="isolated" 
d="M424 379q-48 0 -68 -20t-20 -66v-152h291v-141h-566v141h123v146q0 85 24.5 136t78 75t143.5 24h158v-143h-164z" />
    <glyph glyph-name="uniFE81" unicode="&#x622;" horiz-adv-x="520" arabic-form="isolated" 
d="M155 1802q49 -17 122 -50q62 -28 101 -42t70 -14q32 0 49 17.5t17 58.5h92q0 -93 -34.5 -138.5t-110.5 -45.5q-46 0 -100 17.5t-130 50.5q-64 27 -101.5 39.5t-64.5 12.5q-34 0 -51.5 -21t-17.5 -67h-95q0 94 43 146.5t119 52.5q43 0 92 -17zM133 0v1366h254v-1366h-254z
" />
    <glyph glyph-name="uniFE82" unicode="&#x622;" horiz-adv-x="549" arabic-form="final" 
d="M420 269q33 -33 110 -33h19q31 0 48 -9.5t25.5 -35t8.5 -74.5q0 -47 -8 -72t-25 -35t-49 -10h-8q-150 0 -238.5 39t-129 124t-40.5 228v975h254v-987q0 -77 33 -110zM149 1802q49 -17 122 -50q62 -28 101 -42t70 -14q32 0 49 17.5t17 58.5h92q0 -93 -34.5 -138.5
t-110.5 -45.5q-46 0 -100 17.5t-130 50.5q-64 27 -101.5 39.5t-64.5 12.5q-34 0 -51.5 -21t-17.5 -67h-95q0 94 43 146.5t119 52.5q43 0 92 -17z" />
    <glyph glyph-name="uniFE83" unicode="&#x623;" horiz-adv-x="479" arabic-form="isolated" 
d="M284 1817q-37 0 -52 -14.5t-15 -51.5v-106h221v-117h-440v117h94v110q0 96 43.5 138t144.5 42h129v-118h-125zM133 0v1366h254v-1366h-254z" />
    <glyph glyph-name="uniFE84" unicode="&#x623;" horiz-adv-x="528" arabic-form="final" 
d="M420 269q33 -33 110 -33h19q31 0 48 -9.5t25.5 -35t8.5 -74.5q0 -47 -8 -72t-25 -35t-49 -10h-8q-150 0 -238.5 39t-129 124t-40.5 228v975h254v-987q0 -77 33 -110zM284 1817q-37 0 -52 -14.5t-15 -51.5v-106h221v-117h-440v117h94v110q0 96 43.5 138t144.5 42h129v-118
h-125z" />
    <glyph glyph-name="uniFE85" unicode="&#x624;" horiz-adv-x="1121" arabic-form="isolated" 
d="M622 1436q-37 0 -52 -14.5t-15 -51.5v-106h221v-117h-440v117h94v110q0 96 43.5 138t144.5 42h129v-118h-125zM582 -209q74 0 112.5 20t53 64t14.5 125h-619v514q0 404 392 404h483v-857q0 -166 -33 -274.5t-123 -169.5t-256 -61h-315v235h291zM764 682h-166
q-105 0 -153 -46t-48 -147v-253h367v446z" />
    <glyph glyph-name="uniFE86" unicode="&#x624;" horiz-adv-x="1111" arabic-form="final" 
d="M1151 236q31 0 48 -9.5t25.5 -35t8.5 -74.5q0 -47 -8 -72t-25 -35t-49 -10h-135q-4 -144 -41 -240.5t-125.5 -150t-243.5 -53.5h-315v237h291q75 0 113 19.5t52.5 63t14.5 124.5h-619v514q0 404 392 404h483v-682h133zM445 636q-48 -46 -48 -147v-253h367v446h-166
q-105 0 -153 -46zM622 1436q-37 0 -52 -14.5t-15 -51.5v-106h221v-117h-440v117h94v110q0 96 43.5 138t144.5 42h129v-118h-125z" />
    <glyph glyph-name="uniFE87" unicode="&#x625;" horiz-adv-x="479" arabic-form="isolated" 
d="M133 0v1366h254v-1366h-254zM276 -338q-37 0 -52 -14.5t-15 -50.5v-107h221v-117h-440v117h94v111q0 96 43.5 138t144.5 42h129v-119h-125z" />
    <glyph glyph-name="uniFE88" unicode="&#x625;" horiz-adv-x="528" arabic-form="final" 
d="M420 269q33 -33 110 -33h19q31 0 48 -9.5t25.5 -35t8.5 -74.5q0 -47 -8 -72t-25 -35t-49 -10h-8q-150 0 -238.5 39t-129 124t-40.5 228v975h254v-987q0 -77 33 -110zM276 -338q-37 0 -52 -14.5t-15 -50.5v-107h221v-117h-440v117h94v111q0 96 43.5 138t144.5 42h129v-119
h-125z" />
    <glyph glyph-name="uniFE89" unicode="&#x626;" horiz-adv-x="1954" arabic-form="isolated" 
d="M274 1080q-37 0 -52 -14.5t-15 -51.5v-106h221v-117h-440v117h94v110q0 96 43.5 138t144.5 42h129v-118h-125zM1567 0v682h-121q-105 0 -153 -46t-48 -147v-378q0 -177 -68 -301.5t-200.5 -189t-321.5 -64.5t-321 64.5t-200 189t-68 301.5v528h253v-438q0 -192 75.5 -300
t260.5 -108q186 0 261 107.5t75 300.5v313q0 404 393 404h437v-918h-254z" />
    <glyph glyph-name="uniFE8A" unicode="&#x626;" horiz-adv-x="1954" arabic-form="final" 
d="M1952 236q31 0 48 -9.5t25.5 -35t8.5 -74.5q0 -47 -8 -72t-25 -35t-49 -10h-385v682h-121q-105 0 -153 -46t-48 -147v-378q0 -177 -68 -301.5t-200.5 -189t-321.5 -64.5t-321 64.5t-200 189t-68 301.5v528h253v-438q0 -193 75.5 -301.5t260.5 -108.5q186 0 261 108.5
t75 301.5v313q0 404 393 404h437v-682h131zM274 1080q-37 0 -52 -14.5t-15 -51.5v-106h221v-117h-440v117h94v110q0 96 43.5 138t144.5 42h129v-118h-125z" />
    <glyph glyph-name="uniFE8B" unicode="&#x626;" horiz-adv-x="682" arabic-form="initial" 
d="M0 0q-32 0 -49 10t-25 35t-8 72q0 49 8.5 74.5t25.5 35t48 9.5h266v682h252v-918h-518zM469 1350q-37 0 -52 -14.5t-15 -51.5v-106h221v-117h-440v117h94v110q0 96 43.5 138t144.5 42h129v-118h-125z" />
    <glyph glyph-name="uniFE8C" unicode="&#x626;" horiz-adv-x="666" arabic-form="medial" 
d="M645 236q31 0 48 -9.5t25.5 -35t8.5 -74.5q0 -47 -7.5 -72t-25 -35t-49.5 -10h-645q-32 0 -49 10t-25 35t-8 72q0 49 8.5 74.5t25.5 35t48 9.5h266v682h252v-682h127zM469 1350q-37 0 -52 -14.5t-15 -51.5v-106h221v-117h-440v117h94v110q0 96 43.5 138t144.5 42h129
v-118h-125z" />
    <glyph glyph-name="uniFE8D" unicode="&#x627;" horiz-adv-x="521" arabic-form="isolated" 
d="M133 0v1366h254v-1366h-254z" />
    <glyph glyph-name="uniFE8E" unicode="&#x627;" horiz-adv-x="550" arabic-form="final" 
d="M420 269q33 -33 110 -33h19q31 0 48 -9.5t25.5 -35t8.5 -74.5q0 -47 -8 -72t-25 -35t-49 -10h-8q-150 0 -238.5 39t-129 124t-40.5 228v975h254v-987q0 -77 33 -110z" />
    <glyph glyph-name="uniFE8F" unicode="&#x628;" horiz-adv-x="1672" arabic-form="isolated" 
d="M457 0q-201 0 -296 102.5t-95 300.5v314h251v-289q0 -100 48 -146t153 -46h768v682h252v-918h-1081zM936 -137q30 -18 47.5 -48t17.5 -65q0 -36 -17.5 -66.5t-47.5 -48.5t-66 -18q-34 0 -64 18t-47.5 49t-17.5 66q0 34 17.5 64.5t47.5 48.5t64 18q36 0 66 -18z" />
    <glyph glyph-name="uniFE90" unicode="&#x628;" horiz-adv-x="1672" arabic-form="final" 
d="M1671 236q31 0 48 -9.5t25.5 -35t8.5 -74.5q0 -47 -7.5 -72t-25 -35t-49.5 -10h-1214q-201 0 -296 102.5t-95 300.5v314h251v-289q0 -100 48 -146t153 -46h768v682h252v-682h133zM936 -137q30 -18 47.5 -48t17.5 -65q0 -36 -17.5 -66.5t-47.5 -48.5t-66 -18q-34 0 -64 18
t-47.5 49t-17.5 66q0 34 17.5 64.5t47.5 48.5t64 18q36 0 66 -18z" />
    <glyph glyph-name="uniFE91" unicode="&#x628;" horiz-adv-x="651" arabic-form="initial" 
d="M0 0q-32 0 -49 10t-25 35t-8 72q0 49 8.5 74.5t25.5 35t48 9.5h266v682h252v-918h-518zM392 -137q30 -18 47.5 -48t17.5 -65q0 -36 -17.5 -66.5t-47.5 -48.5t-66 -18q-34 0 -64 18t-47.5 49t-17.5 66q0 34 17.5 64.5t47.5 48.5t64 18q36 0 66 -18z" />
    <glyph glyph-name="uniFE92" unicode="&#x628;" horiz-adv-x="645" arabic-form="medial" 
d="M645 236q31 0 48 -9.5t25.5 -35t8.5 -74.5q0 -47 -7.5 -72t-25 -35t-49.5 -10h-645q-32 0 -49 10t-25 35t-8 72q0 49 8.5 74.5t25.5 35t48 9.5h266v682h252v-682h127zM457 -137q30 -18 47.5 -48t17.5 -65q0 -36 -17.5 -66.5t-47.5 -48.5t-66 -18q-34 0 -64 18t-47.5 49
t-17.5 66q0 34 17.5 64.5t47.5 48.5t64 18q36 0 66 -18z" />
    <glyph glyph-name="uniFE93" unicode="&#x629;" horiz-adv-x="1074" arabic-form="isolated" 
d="M454 1348q30 -18 47 -48.5t17 -66.5q0 -34 -17.5 -63.5t-47 -47.5t-64.5 -18t-65 18t-48 47.5t-18 63.5q0 36 17.5 66.5t48 48.5t65.5 18t65 -18zM773 1348q30 -18 47.5 -48.5t17.5 -66.5q0 -33 -18 -63t-47.5 -48t-63.5 -18q-36 0 -67.5 18t-50 47.5t-18.5 63.5
q0 36 18.5 66.5t50 48.5t67.5 18q34 0 64 -18zM66 0v514q0 198 95.5 301t295.5 103h483v-918h-874zM365 636q-48 -46 -48 -147v-253h367v446h-166q-105 0 -153 -46z" />
    <glyph glyph-name="uniFE94" unicode="&#x629;" horiz-adv-x="1074" arabic-form="final" 
d="M1073 236q31 0 48 -9.5t25.5 -35t8.5 -74.5q0 -47 -7.5 -72t-25 -35t-49.5 -10h-1007v514q0 198 95.5 301t295.5 103h483v-682h133zM365 636q-48 -46 -48 -147v-253h367v446h-166q-105 0 -153 -46zM454 1348q30 -18 47 -48.5t17 -66.5q0 -34 -17.5 -63.5t-47 -47.5
t-64.5 -18t-65 18t-48 47.5t-18 63.5q0 36 17.5 66.5t48 48.5t65.5 18t65 -18zM773 1348q30 -18 47.5 -48.5t17.5 -66.5q0 -33 -18 -63t-47.5 -48t-63.5 -18q-36 0 -67.5 18t-50 47.5t-18.5 63.5q0 36 18.5 66.5t50 48.5t67.5 18q34 0 64 -18z" />
    <glyph glyph-name="uniFE95" unicode="&#x62a;" horiz-adv-x="1672" arabic-form="isolated" 
d="M731 1213q30 -18 47 -48.5t17 -66.5q0 -34 -17.5 -63.5t-47 -47.5t-64.5 -18t-65 18t-48 47.5t-18 63.5q0 36 17.5 66.5t48 48.5t65.5 18t65 -18zM1050 1213q30 -18 47.5 -48.5t17.5 -66.5q0 -33 -18 -63t-47.5 -48t-63.5 -18q-36 0 -67.5 18t-50 47.5t-18.5 63.5
q0 36 18.5 66.5t50 48.5t67.5 18q34 0 64 -18zM457 0q-201 0 -296 102.5t-95 300.5v314h251v-289q0 -100 48 -146t153 -46h768v682h252v-918h-1081z" />
    <glyph glyph-name="uniFE96" unicode="&#x62a;" horiz-adv-x="1672" arabic-form="final" 
d="M1671 236q31 0 48 -9.5t25.5 -35t8.5 -74.5q0 -47 -7.5 -72t-25 -35t-49.5 -10h-1214q-201 0 -296 102.5t-95 300.5v314h251v-289q0 -100 48 -146t153 -46h768v682h252v-682h133zM731 1213q30 -18 47 -48.5t17 -66.5q0 -34 -17.5 -63.5t-47 -47.5t-64.5 -18t-65 18
t-48 47.5t-18 63.5q0 36 17.5 66.5t48 48.5t65.5 18t65 -18zM1050 1213q30 -18 47.5 -48.5t17.5 -66.5q0 -33 -18 -63t-47.5 -48t-63.5 -18q-36 0 -67.5 18t-50 47.5t-18.5 63.5q0 36 18.5 66.5t50 48.5t67.5 18q34 0 64 -18z" />
    <glyph glyph-name="uniFE97" unicode="&#x62a;" horiz-adv-x="772" arabic-form="initial" 
d="M368 1348q30 -18 47 -48.5t17 -66.5q0 -34 -17.5 -63.5t-47 -47.5t-64.5 -18t-65 18t-48 47.5t-18 63.5q0 36 17.5 66.5t48 48.5t65.5 18t65 -18zM687 1348q30 -18 47.5 -48.5t17.5 -66.5q0 -33 -18 -63t-47.5 -48t-63.5 -18q-36 0 -67.5 18t-50 47.5t-18.5 63.5
q0 36 18.5 66.5t50 48.5t67.5 18q34 0 64 -18zM0 0q-32 0 -49 10t-25 35t-8 72q0 49 8.5 74.5t25.5 35t48 9.5h348v682h252v-918h-600z" />
    <glyph glyph-name="uniFE98" unicode="&#x62a;" horiz-adv-x="748" arabic-form="medial" 
d="M378 1348q30 -18 47 -48.5t17 -66.5q0 -34 -17.5 -63.5t-47 -47.5t-64.5 -18t-65 18t-48 47.5t-18 63.5q0 36 17.5 66.5t48 48.5t65.5 18t65 -18zM697 1348q30 -18 47.5 -48.5t17.5 -66.5q0 -33 -18 -63t-47.5 -48t-63.5 -18q-36 0 -67.5 18t-50 47.5t-18.5 63.5
q0 36 18.5 66.5t50 48.5t67.5 18q34 0 64 -18zM748 236q30 0 47.5 -9.5t25.5 -35t8 -74.5q0 -47 -7.5 -72t-24.5 -35t-49 -10h-748q-32 0 -49 10t-25 35t-8 72q0 49 8.5 74.5t25.5 35t48 9.5h328v682h252v-682h168z" />
    <glyph glyph-name="uniFE99" unicode="&#x62b;" horiz-adv-x="1672" arabic-form="isolated" 
d="M889.5 1487q29.5 -18 47 -48.5t17.5 -66.5q0 -33 -17.5 -63t-47.5 -48t-64 -18q-36 0 -67 18t-49.5 48t-18.5 63q0 36 18 66.5t49.5 48.5t67.5 18q35 0 64.5 -18zM726 1213q30 -18 47 -48.5t17 -66.5q0 -34 -17.5 -63.5t-47 -47.5t-64.5 -18t-65 18t-48 47.5t-18 63.5
q0 36 17.5 66.5t48 48.5t65.5 18t65 -18zM1046 1213.5q30 -17.5 48 -48t18 -65.5q0 -34 -18 -64.5t-48 -48.5t-65 -18t-64.5 18t-47 48t-17.5 65t17 65.5t47 48t65 17.5t65 -17.5zM457 0q-201 0 -296 102.5t-95 300.5v314h251v-289q0 -100 48 -146t153 -46h768v682h252v-918
h-1081z" />
    <glyph glyph-name="uniFE9A" unicode="&#x62b;" horiz-adv-x="1672" arabic-form="final" 
d="M1671 236q31 0 48 -9.5t25.5 -35t8.5 -74.5q0 -47 -7.5 -72t-25 -35t-49.5 -10h-1214q-201 0 -296 102.5t-95 300.5v314h251v-289q0 -100 48 -146t153 -46h768v682h252v-682h133zM906.5 1487q29.5 -18 47 -48.5t17.5 -66.5q0 -33 -17.5 -63t-47.5 -48t-64 -18
q-36 0 -67 18t-49.5 48t-18.5 63q0 36 18 66.5t49.5 48.5t67.5 18q35 0 64.5 -18zM743 1213q30 -18 47 -48.5t17 -66.5q0 -34 -17.5 -63.5t-47 -47.5t-64.5 -18t-65 18t-48 47.5t-18 63.5q0 36 17.5 66.5t48 48.5t65.5 18t65 -18zM1063 1213.5q30 -17.5 48 -48t18 -65.5
q0 -34 -18 -64.5t-48 -48.5t-65 -18t-64.5 18t-47 48t-17.5 65t17 65.5t47 48t65 17.5t65 -17.5z" />
    <glyph glyph-name="uniFE9B" unicode="&#x62b;" horiz-adv-x="733" arabic-form="initial" 
d="M0 0q-32 0 -49 10t-25 35t-8 72q0 49 8.5 74.5t25.5 35t48 9.5h348v682h252v-918h-600zM535.5 1622q29.5 -18 47 -48.5t17.5 -66.5q0 -33 -17.5 -63t-47.5 -48t-64 -18q-36 0 -67 18t-49.5 48t-18.5 63q0 36 18 66.5t49.5 48.5t67.5 18q35 0 64.5 -18zM372 1348
q30 -18 47 -48.5t17 -66.5q0 -34 -17.5 -63.5t-47 -47.5t-64.5 -18t-65 18t-48 47.5t-18 63.5q0 36 17.5 66.5t48 48.5t65.5 18t65 -18zM692 1348.5q30 -17.5 48 -48t18 -65.5q0 -34 -18 -64.5t-48 -48.5t-65 -18t-64.5 18t-47 48t-17.5 65t17 65.5t47 48t65 17.5t65 -17.5z
" />
    <glyph glyph-name="uniFE9C" unicode="&#x62b;" horiz-adv-x="748" arabic-form="medial" 
d="M525.5 1622q29.5 -18 47 -48.5t17.5 -66.5q0 -33 -17.5 -63t-47.5 -48t-64 -18q-36 0 -67 18t-49.5 48t-18.5 63q0 36 18 66.5t49.5 48.5t67.5 18q35 0 64.5 -18zM362 1348q30 -18 47 -48.5t17 -66.5q0 -34 -17.5 -63.5t-47 -47.5t-64.5 -18t-65 18t-48 47.5t-18 63.5
q0 36 17.5 66.5t48 48.5t65.5 18t65 -18zM682 1348.5q30 -17.5 48 -48t18 -65.5q0 -34 -18 -64.5t-48 -48.5t-65 -18t-64.5 18t-47 48t-17.5 65t17 65.5t47 48t65 17.5t65 -17.5zM748 236q30 0 47.5 -9.5t25.5 -35t8 -74.5q0 -47 -7.5 -72t-24.5 -35t-49 -10h-748
q-32 0 -49 10t-25 35t-8 72q0 49 8.5 74.5t25.5 35t48 9.5h328v682h252v-682h168z" />
    <glyph glyph-name="uniFE9D" unicode="&#x62c;" horiz-adv-x="1193" arabic-form="isolated" 
d="M991 754q129 -180 129 -463v-291h-690q-57 0 -95 -28.5t-38 -82.5q0 -57 39 -77.5t90 -20.5h221v-235h-188q-202 0 -300 83t-98 250q0 118 50 196t132 114.5t179 36.5h463l-2 71q-2 181 -81.5 288t-283.5 107q-74 0 -147 -12l-41 219q115 25 219 25q313 0 442 -180z
M936 -137q30 -18 47.5 -48t17.5 -65q0 -36 -17.5 -66.5t-47.5 -48.5t-66 -18q-34 0 -64 18t-47.5 49t-17.5 66q0 34 17.5 64.5t47.5 48.5t64 18q36 0 66 -18z" />
    <glyph glyph-name="uniFE9E" unicode="&#x62c;" horiz-adv-x="1263" arabic-form="final" 
d="M335 -28.5q-38 -28.5 -38 -82.5q0 -57 39 -77.5t90 -20.5h221v-235h-188q-202 0 -300 83t-98 250q0 118 50 196t132 114.5t179 36.5h463l-2 71q-2 181 -81.5 288t-283.5 107q-74 0 -147 -12l-41 219q115 25 219 25q313 0 442 -180t129 -463v-55h142q30 0 47.5 -9.5
t25.5 -35t8 -74.5q0 -47 -7.5 -72t-24.5 -35t-49 -10h-832q-57 0 -95 -28.5zM916 -137q30 -18 47.5 -48t17.5 -65q0 -36 -17.5 -66.5t-47.5 -48.5t-66 -18q-34 0 -64 18t-47.5 49t-17.5 66q0 34 17.5 64.5t47.5 48.5t64 18q36 0 66 -18z" />
    <glyph glyph-name="uniFE9F" unicode="&#x62c;" horiz-adv-x="1008" arabic-form="initial" 
d="M-49 10q-17 10 -25 35t-8 72q0 49 8.5 74.5t25.5 35t48 9.5h682v71q0 118 -27.5 204t-104 138.5t-216.5 52.5q-73 0 -148 -12l-41 219q115 25 220 25q313 0 442 -180.5t129 -462.5v-291h-936q-32 0 -49 10zM560 -137q30 -18 47.5 -48t17.5 -65q0 -36 -17.5 -66.5
t-47.5 -48.5t-66 -18q-34 0 -64 18t-47.5 49t-17.5 66q0 34 17.5 64.5t47.5 48.5t64 18q36 0 66 -18z" />
    <glyph glyph-name="uniFEA0" unicode="&#x62c;" horiz-adv-x="1073" arabic-form="medial" 
d="M365 934q313 0 442 -180.5t129 -462.5v-55h137q31 0 48 -9.5t25.5 -35t8.5 -74.5q0 -47 -7.5 -72t-25 -35t-49.5 -10h-1073q-32 0 -49 10t-25 35t-8 72q0 49 8.5 74.5t25.5 35t48 9.5h680v71q0 119 -27 204.5t-103 138t-216 52.5q-73 0 -148 -12l-41 219q115 25 220 25z
M555 -137q30 -18 47.5 -48t17.5 -65q0 -36 -17.5 -66.5t-47.5 -48.5t-66 -18q-34 0 -64 18t-47.5 49t-17.5 66q0 34 17.5 64.5t47.5 48.5t64 18q36 0 66 -18z" />
    <glyph glyph-name="uniFEA1" unicode="&#x62d;" horiz-adv-x="1193" arabic-form="isolated" 
d="M991 754q129 -180 129 -463v-291h-690q-57 0 -95 -28.5t-38 -82.5q0 -57 39 -77.5t90 -20.5h365v-235h-332q-202 0 -300 83t-98 250q0 118 50 196t132 114.5t179 36.5h444v71q0 118 -27.5 204t-104 138.5t-216.5 52.5q-74 0 -147 -12l-41 219q115 25 219 25
q313 0 442 -180z" />
    <glyph glyph-name="uniFEA2" unicode="&#x62d;" horiz-adv-x="1263" arabic-form="final" 
d="M335 -28.5q-38 -28.5 -38 -82.5q0 -57 39 -77.5t90 -20.5h365v-235h-332q-202 0 -300 83t-98 250q0 118 50 196t132 114.5t179 36.5h444v71q0 118 -27.5 204t-104 138.5t-216.5 52.5q-74 0 -147 -12l-41 219q115 25 219 25q313 0 442 -180t129 -463v-55h142
q30 0 47.5 -9.5t25.5 -35t8 -74.5q0 -47 -7.5 -72t-24.5 -35t-49 -10h-832q-57 0 -95 -28.5z" />
    <glyph glyph-name="uniFEA3" unicode="&#x62d;" horiz-adv-x="1008" arabic-form="initial" 
d="M-49 10q-17 10 -25 35t-8 72q0 49 8.5 74.5t25.5 35t48 9.5h682v71q0 118 -27.5 204t-104 138.5t-216.5 52.5q-73 0 -148 -12l-41 219q115 25 220 25q313 0 442 -180.5t129 -462.5v-291h-936q-32 0 -49 10z" />
    <glyph glyph-name="uniFEA4" unicode="&#x62d;" horiz-adv-x="1073" arabic-form="medial" 
d="M365 934q313 0 442 -180.5t129 -462.5v-55h137q31 0 48 -9.5t25.5 -35t8.5 -74.5q0 -47 -7.5 -72t-25 -35t-49.5 -10h-1073q-32 0 -49 10t-25 35t-8 72q0 49 8.5 74.5t25.5 35t48 9.5h680v71q0 119 -27 204.5t-103 138t-216 52.5q-73 0 -148 -12l-41 219q115 25 220 25z
" />
    <glyph glyph-name="uniFEA5" unicode="&#x62e;" horiz-adv-x="1193" arabic-form="isolated" 
d="M673 1348q30 -18 47 -48.5t17 -66.5q0 -34 -17.5 -63.5t-47 -47.5t-64.5 -18t-65 18t-48 47.5t-18 63.5q0 36 17.5 66.5t48 48.5t65.5 18t65 -18zM991 754q129 -180 129 -463v-291h-690q-57 0 -95 -28.5t-38 -82.5q0 -57 39 -77.5t90 -20.5h365v-235h-332q-202 0 -300 83
t-98 250q0 118 50 196t132 114.5t179 36.5h444v71q0 118 -27.5 204t-104 138.5t-216.5 52.5q-74 0 -147 -12l-41 219q115 25 219 25q313 0 442 -180z" />
    <glyph glyph-name="uniFEA6" unicode="&#x62e;" horiz-adv-x="1263" arabic-form="final" 
d="M335 -28.5q-38 -28.5 -38 -82.5q0 -57 39 -77.5t90 -20.5h365v-235h-332q-202 0 -300 83t-98 250q0 118 50 196t132 114.5t179 36.5h444v71q0 118 -27.5 204t-104 138.5t-216.5 52.5q-74 0 -147 -12l-41 219q115 25 219 25q313 0 442 -180t129 -463v-55h142
q30 0 47.5 -9.5t25.5 -35t8 -74.5q0 -47 -7.5 -72t-24.5 -35t-49 -10h-832q-57 0 -95 -28.5zM673 1348q30 -18 47 -48.5t17 -66.5q0 -34 -17.5 -63.5t-47 -47.5t-64.5 -18t-65 18t-48 47.5t-18 63.5q0 36 17.5 66.5t48 48.5t65.5 18t65 -18z" />
    <glyph glyph-name="uniFEA7" unicode="&#x62e;" horiz-adv-x="1008" arabic-form="initial" 
d="M-49 10q-17 10 -25 35t-8 72q0 49 8.5 74.5t25.5 35t48 9.5h682v71q0 118 -27.5 204t-104 138.5t-216.5 52.5q-73 0 -148 -12l-41 219q115 25 220 25q313 0 442 -180.5t129 -462.5v-291h-936q-32 0 -49 10zM509 1348q30 -18 47 -48.5t17 -66.5q0 -34 -17.5 -63.5
t-47 -47.5t-64.5 -18t-65 18t-48 47.5t-18 63.5q0 36 17.5 66.5t48 48.5t65.5 18t65 -18z" />
    <glyph glyph-name="uniFEA8" unicode="&#x62e;" horiz-adv-x="1073" arabic-form="medial" 
d="M365 934q313 0 442 -180.5t129 -462.5v-55h137q31 0 48 -9.5t25.5 -35t8.5 -74.5q0 -47 -7.5 -72t-25 -35t-49.5 -10h-1073q-32 0 -49 10t-25 35t-8 72q0 49 8.5 74.5t25.5 35t48 9.5h680v71q0 119 -27 204.5t-103 138t-216 52.5q-73 0 -148 -12l-41 219q115 25 220 25z
M509 1348q30 -18 47 -48.5t17 -66.5q0 -34 -17.5 -63.5t-47 -47.5t-64.5 -18t-65 18t-48 47.5t-18 63.5q0 36 17.5 66.5t48 48.5t65.5 18t65 -18z" />
    <glyph glyph-name="uniFEA9" unicode="&#x62f;" horiz-adv-x="1091" arabic-form="isolated" 
d="M901.5 815q95.5 -103 95.5 -301v-514h-936v236h682v253q0 101 -47.5 147t-152.5 46h-332v236h395q200 0 295.5 -103z" />
    <glyph glyph-name="uniFEAA" unicode="&#x62f;" horiz-adv-x="1134" arabic-form="final" 
d="M901.5 815q95.5 -103 95.5 -301v-278h136q30 0 47.5 -9.5t25.5 -35t8 -74.5q0 -47 -7.5 -72t-24.5 -35t-49 -10h-1072v236h682v253q0 101 -47.5 147t-152.5 46h-332v236h395q200 0 295.5 -103z" />
    <glyph glyph-name="uniFEAB" unicode="&#x630;" horiz-adv-x="1091" arabic-form="isolated" 
d="M569 1348q30 -18 47 -48.5t17 -66.5q0 -34 -17.5 -63.5t-47 -47.5t-64.5 -18t-65 18t-48 47.5t-18 63.5q0 36 17.5 66.5t48 48.5t65.5 18t65 -18zM901.5 815q95.5 -103 95.5 -301v-514h-936v236h682v253q0 101 -47.5 147t-152.5 46h-332v236h395q200 0 295.5 -103z" />
    <glyph glyph-name="uniFEAC" unicode="&#x630;" horiz-adv-x="1134" arabic-form="final" 
d="M901.5 815q95.5 -103 95.5 -301v-278h136q30 0 47.5 -9.5t25.5 -35t8 -74.5q0 -47 -7.5 -72t-24.5 -35t-49 -10h-1072v236h682v253q0 101 -47.5 147t-152.5 46h-332v236h395q200 0 295.5 -103zM573 1348q30 -18 47 -48.5t17 -66.5q0 -34 -17.5 -63.5t-47 -47.5t-64.5 -18
t-65 18t-48 47.5t-18 63.5q0 36 17.5 66.5t48 48.5t65.5 18t65 -18z" />
    <glyph glyph-name="uniFEAD" unicode="&#x631;" horiz-adv-x="629" arabic-form="isolated" 
d="M394 -327.5q-102 -116.5 -310 -116.5h-104v241h79q89 0 136 56.5t47 152.5v912h254v-920q0 -209 -102 -325.5z" />
    <glyph glyph-name="uniFEAE" unicode="&#x631;" horiz-adv-x="627" arabic-form="final" 
d="M627 236q31 0 48 -9.5t25.5 -35t8.5 -74.5q0 -47 -8 -72t-25 -35t-49 -10h-131q0 -211 -102 -327.5t-310 -116.5h-104v241h79q95 0 139 58.5t44 150.5v912h254v-682h131z" />
    <glyph glyph-name="uniFEAF" unicode="&#x632;" horiz-adv-x="629" arabic-form="isolated" 
d="M394 -327.5q-102 -116.5 -310 -116.5h-104v241h79q89 0 136 56.5t47 152.5v912h254v-920q0 -209 -102 -325.5zM419 1348q30 -18 47 -48.5t17 -66.5q0 -34 -17.5 -63.5t-47 -47.5t-64.5 -18t-65 18t-48 47.5t-18 63.5q0 36 17.5 66.5t48 48.5t65.5 18t65 -18z" />
    <glyph glyph-name="uniFEB0" unicode="&#x632;" horiz-adv-x="627" arabic-form="final" 
d="M627 236q31 0 48 -9.5t25.5 -35t8.5 -74.5q0 -47 -8 -72t-25 -35t-49 -10h-131q0 -211 -102 -327.5t-310 -116.5h-104v241h79q95 0 139 58.5t44 150.5v912h254v-682h131zM415 1348q30 -18 47 -48.5t17 -66.5q0 -34 -17.5 -63.5t-47 -47.5t-64.5 -18t-65 18t-48 47.5
t-18 63.5q0 36 17.5 66.5t48 48.5t65.5 18t65 -18z" />
    <glyph glyph-name="uniFEB1" unicode="&#x633;" horiz-adv-x="2383" arabic-form="isolated" 
d="M1231 0q-23 -137 -96 -236.5t-194.5 -153.5t-285.5 -54q-189 0 -321 64.5t-200 189t-68 301.5v528h253v-438q0 -193 75.5 -302.5t260.5 -109.5q186 0 261 109.5t75 302.5v717h254v-682h262v616h254v-616h234v682h254v-918h-1018z" />
    <glyph glyph-name="uniFEB2" unicode="&#x633;" horiz-adv-x="2383" arabic-form="final" 
d="M2382 236q31 0 48 -9.5t25.5 -35t8.5 -74.5q0 -47 -8 -72t-25 -35t-49 -10h-1151q-23 -137 -96 -236.5t-194.5 -153.5t-285.5 -54q-189 0 -321 64.5t-200 189t-68 301.5v528h253v-438q0 -193 75.5 -301.5t260.5 -108.5q186 0 261 108.5t75 301.5v717h254v-682h262v616
h254v-616h234v682h254v-682h133z" />
    <glyph glyph-name="uniFEB3" unicode="&#x633;" horiz-adv-x="1628" arabic-form="initial" 
d="M0 0q-32 0 -49 10t-25 35t-8 72q0 49 8.5 74.5t25.5 35t48 9.5h266v616h254v-616h234v616h254v-616h233v682h254v-918h-1495z" />
    <glyph glyph-name="uniFEB4" unicode="&#x633;" horiz-adv-x="1624" arabic-form="medial" 
d="M1624 236q31 0 48 -9.5t25.5 -35t8.5 -74.5q0 -47 -7.5 -72t-25 -35t-49.5 -10h-1626q-32 0 -49 10t-25 35t-8 72q0 49 8.5 74.5t25.5 35t48 9.5h266v616h254v-616h234v616h254v-616h233v682h254v-682h131z" />
    <glyph glyph-name="uniFEB5" unicode="&#x634;" horiz-adv-x="2383" arabic-form="isolated" 
d="M1711.5 1622q29.5 -18 47 -48.5t17.5 -66.5q0 -33 -17.5 -63t-47.5 -48t-64 -18q-36 0 -67 18t-49.5 48t-18.5 63q0 36 18 66.5t49.5 48.5t67.5 18q35 0 64.5 -18zM1548 1348q30 -18 47 -48.5t17 -66.5q0 -34 -17.5 -63.5t-47 -47.5t-64.5 -18t-65 18t-48 47.5t-18 63.5
q0 36 17.5 66.5t48 48.5t65.5 18t65 -18zM1868 1348.5q30 -17.5 48 -48t18 -65.5q0 -34 -18 -64.5t-48 -48.5t-65 -18t-64.5 18t-47 48t-17.5 65t17 65.5t47 48t65 17.5t65 -17.5zM1231 0q-23 -137 -96 -236.5t-194.5 -153.5t-285.5 -54q-189 0 -321 64.5t-200 189
t-68 301.5v528h253v-438q0 -193 75.5 -302.5t260.5 -109.5q186 0 261 109.5t75 302.5v717h254v-682h262v616h254v-616h234v682h254v-918h-1018z" />
    <glyph glyph-name="uniFEB6" unicode="&#x634;" horiz-adv-x="2383" arabic-form="final" 
d="M2382 236q31 0 48 -9.5t25.5 -35t8.5 -74.5q0 -47 -8 -72t-25 -35t-49 -10h-1151q-23 -137 -96 -236.5t-194.5 -153.5t-285.5 -54q-189 0 -321 64.5t-200 189t-68 301.5v528h253v-438q0 -193 75.5 -301.5t260.5 -108.5q186 0 261 108.5t75 301.5v717h254v-682h262v616
h254v-616h234v682h254v-682h133zM1711.5 1622q29.5 -18 47 -48.5t17.5 -66.5q0 -33 -17.5 -63t-47.5 -48t-64 -18q-36 0 -67 18t-49.5 48t-18.5 63q0 36 18 66.5t49.5 48.5t67.5 18q35 0 64.5 -18zM1548 1348q30 -18 47 -48.5t17 -66.5q0 -34 -17.5 -63.5t-47 -47.5
t-64.5 -18t-65 18t-48 47.5t-18 63.5q0 36 17.5 66.5t48 48.5t65.5 18t65 -18zM1868 1348.5q30 -17.5 48 -48t18 -65.5q0 -34 -18 -64.5t-48 -48.5t-65 -18t-64.5 18t-47 48t-17.5 65t17 65.5t47 48t65 17.5t65 -17.5z" />
    <glyph glyph-name="uniFEB7" unicode="&#x634;" horiz-adv-x="1628" arabic-form="initial" 
d="M0 0q-32 0 -49 10t-25 35t-8 72q0 49 8.5 74.5t25.5 35t48 9.5h266v616h254v-616h234v616h254v-616h233v682h254v-918h-1495zM947.5 1622q29.5 -18 47 -48.5t17.5 -66.5q0 -33 -17.5 -63t-47.5 -48t-64 -18q-36 0 -67 18t-49.5 48t-18.5 63q0 36 18 66.5t49.5 48.5
t67.5 18q35 0 64.5 -18zM784 1348q30 -18 47 -48.5t17 -66.5q0 -34 -17.5 -63.5t-47 -47.5t-64.5 -18t-65 18t-48 47.5t-18 63.5q0 36 17.5 66.5t48 48.5t65.5 18t65 -18zM1104 1348.5q30 -17.5 48 -48t18 -65.5q0 -34 -18 -64.5t-48 -48.5t-65 -18t-64.5 18t-47 48
t-17.5 65t17 65.5t47 48t65 17.5t65 -17.5z" />
    <glyph glyph-name="uniFEB8" unicode="&#x634;" horiz-adv-x="1624" arabic-form="medial" 
d="M1624 236q31 0 48 -9.5t25.5 -35t8.5 -74.5q0 -47 -7.5 -72t-25 -35t-49.5 -10h-1626q-32 0 -49 10t-25 35t-8 72q0 49 8.5 74.5t25.5 35t48 9.5h266v616h254v-616h234v616h254v-616h233v682h254v-682h131zM947.5 1622q29.5 -18 47 -48.5t17.5 -66.5q0 -33 -17.5 -63
t-47.5 -48t-64 -18q-36 0 -67 18t-49.5 48t-18.5 63q0 36 18 66.5t49.5 48.5t67.5 18q35 0 64.5 -18zM784 1348q30 -18 47 -48.5t17 -66.5q0 -34 -17.5 -63.5t-47 -47.5t-64.5 -18t-65 18t-48 47.5t-18 63.5q0 36 17.5 66.5t48 48.5t65.5 18t65 -18zM1104 1348.5
q30 -17.5 48 -48t18 -65.5q0 -34 -18 -64.5t-48 -48.5t-65 -18t-64.5 18t-47 48t-17.5 65t17 65.5t47 48t65 17.5t65 -17.5z" />
    <glyph glyph-name="uniFEB9" unicode="&#x635;" horiz-adv-x="2514" arabic-form="isolated" 
d="M2421 514v-514h-1190q-23 -137 -96 -236.5t-194.5 -153.5t-285.5 -54q-189 0 -321 64.5t-200 189t-68 301.5v528h253v-438q0 -193 75.5 -301.5t260.5 -108.5q186 0 260 108.5t74 301.5v717h1041q391 0 391 -404zM1243 236h924v253q0 101 -48 147t-153 46h-723v-446z" />
    <glyph glyph-name="uniFEBA" unicode="&#x635;" horiz-adv-x="2557" arabic-form="final" 
d="M2421 514v-278h135q31 0 48 -9.5t25.5 -35t8.5 -74.5q0 -47 -8 -72t-25 -35t-49 -10h-1325q-23 -137 -96 -236.5t-194.5 -153.5t-285.5 -54q-189 0 -321 64.5t-200 189t-68 301.5v528h253v-438q0 -193 75.5 -301.5t260.5 -108.5q186 0 260 108.5t74 301.5v717h1041
q391 0 391 -404zM1243 236h924v253q0 101 -48 147t-153 46h-723v-446z" />
    <glyph glyph-name="uniFEBB" unicode="&#x635;" horiz-adv-x="1741" arabic-form="initial" 
d="M1649 514v-514h-1649q-32 0 -49 10t-25 35t-8 72q0 49 8.5 74.5t25.5 35t48 9.5h215v682h1042q392 0 392 -404zM469 236h926v253q0 101 -48 147t-153 46h-725v-446z" />
    <glyph glyph-name="uniFEBC" unicode="&#x635;" horiz-adv-x="1794" arabic-form="medial" 
d="M1659 514v-278h135q31 0 48 -9.5t25.5 -35t8.5 -74.5q0 -47 -8 -72t-25 -35t-49 -10h-1794q-32 0 -49 10t-25 35t-8 72q0 49 8.5 74.5t25.5 35t48 9.5h215v682h1053q391 0 391 -404zM469 236h936v253q0 101 -47.5 147t-153.5 46h-735v-446z" />
    <glyph glyph-name="uniFEBD" unicode="&#x636;" horiz-adv-x="2514" arabic-form="isolated" 
d="M1752 1348q30 -18 47 -48.5t17 -66.5q0 -34 -17.5 -63.5t-47 -47.5t-64.5 -18t-65 18t-48 47.5t-18 63.5q0 36 17.5 66.5t48 48.5t65.5 18t65 -18zM2421 514v-514h-1190q-23 -137 -96 -236.5t-194.5 -153.5t-285.5 -54q-189 0 -321 64.5t-200 189t-68 301.5v528h253v-438
q0 -193 75.5 -301.5t260.5 -108.5q186 0 260 108.5t74 301.5v717h1041q391 0 391 -404zM1243 236h924v253q0 101 -48 147t-153 46h-723v-446z" />
    <glyph glyph-name="uniFEBE" unicode="&#x636;" horiz-adv-x="2557" arabic-form="final" 
d="M2421 514v-278h135q31 0 48 -9.5t25.5 -35t8.5 -74.5q0 -47 -8 -72t-25 -35t-49 -10h-1325q-23 -137 -96 -236.5t-194.5 -153.5t-285.5 -54q-189 0 -321 64.5t-200 189t-68 301.5v528h253v-438q0 -193 75.5 -301.5t260.5 -108.5q186 0 260 108.5t74 301.5v717h1041
q391 0 391 -404zM1243 236h924v253q0 101 -48 147t-153 46h-723v-446zM1752 1348q30 -18 47 -48.5t17 -66.5q0 -34 -17.5 -63.5t-47 -47.5t-64.5 -18t-65 18t-48 47.5t-18 63.5q0 36 17.5 66.5t48 48.5t65.5 18t65 -18z" />
    <glyph glyph-name="uniFEBF" unicode="&#x636;" horiz-adv-x="1741" arabic-form="initial" 
d="M1649 514v-514h-1649q-32 0 -49 10t-25 35t-8 72q0 49 8.5 74.5t25.5 35t48 9.5h215v682h1042q392 0 392 -404zM469 236h926v253q0 101 -48 147t-153 46h-725v-446zM968 1348q30 -18 47 -48.5t17 -66.5q0 -34 -17.5 -63.5t-47 -47.5t-64.5 -18t-65 18t-48 47.5t-18 63.5
q0 36 17.5 66.5t48 48.5t65.5 18t65 -18z" />
    <glyph glyph-name="uniFEC0" unicode="&#x636;" horiz-adv-x="1794" arabic-form="medial" 
d="M1659 514v-278h135q31 0 48 -9.5t25.5 -35t8.5 -74.5q0 -47 -8 -72t-25 -35t-49 -10h-1794q-32 0 -49 10t-25 35t-8 72q0 49 8.5 74.5t25.5 35t48 9.5h215v682h1053q391 0 391 -404zM469 236h936v253q0 101 -47.5 147t-153.5 46h-735v-446zM968 1348q30 -18 47 -48.5
t17 -66.5q0 -34 -17.5 -63.5t-47 -47.5t-64.5 -18t-65 18t-48 47.5t-18 63.5q0 36 17.5 66.5t48 48.5t65.5 18t65 -18z" />
    <glyph glyph-name="uniFEC1" unicode="&#x637;" horiz-adv-x="1781" arabic-form="isolated" 
d="M1296 918q392 0 392 -404v-514h-1647v236h225v1130h254v-448h776zM520 236h914v253q0 101 -48 147t-153 46h-713v-446z" />
    <glyph glyph-name="uniFEC2" unicode="&#x637;" horiz-adv-x="1834" arabic-form="final" 
d="M1307 918q391 0 391 -404v-278h135q31 0 48 -9.5t25.5 -35t8.5 -74.5q0 -47 -8 -72t-25 -35t-49 -10h-1792v236h225v1130h254v-448h787zM520 236h926v253q0 101 -48 147t-153 46h-725v-446z" />
    <glyph glyph-name="uniFEC3" unicode="&#x637;" horiz-adv-x="1741" arabic-form="initial" 
d="M1257 918q392 0 392 -404v-514h-1649q-32 0 -49 10t-25 35t-8 72q0 49 8.5 74.5t25.5 35t48 9.5h217v1130h252v-448h788zM469 236h926v253q0 101 -48 147t-153 46h-725v-446z" />
    <glyph glyph-name="uniFEC4" unicode="&#x637;" horiz-adv-x="1794" arabic-form="medial" 
d="M1268 918q391 0 391 -404v-278h135q31 0 48 -9.5t25.5 -35t8.5 -74.5q0 -47 -8 -72t-25 -35t-49 -10h-1794q-32 0 -49 10t-25 35t-8 72q0 49 8.5 74.5t25.5 35t48 9.5h215v1130h254v-448h799zM469 236h936v253q0 101 -47.5 147t-153.5 46h-735v-446z" />
    <glyph glyph-name="uniFEC5" unicode="&#x638;" horiz-adv-x="1781" arabic-form="isolated" 
d="M1296 918q392 0 392 -404v-514h-1647v236h225v1130h254v-448h776zM1066 1348q30 -18 47 -48.5t17 -66.5q0 -34 -17.5 -63.5t-47 -47.5t-64.5 -18t-65 18t-48 47.5t-18 63.5q0 36 17.5 66.5t48 48.5t65.5 18t65 -18zM520 236h914v253q0 101 -48 147t-153 46h-713v-446z
" />
    <glyph glyph-name="uniFEC6" unicode="&#x638;" horiz-adv-x="1834" arabic-form="final" 
d="M1307 918q391 0 391 -404v-278h135q31 0 48 -9.5t25.5 -35t8.5 -74.5q0 -47 -8 -72t-25 -35t-49 -10h-1792v236h225v1130h254v-448h787zM520 236h926v253q0 101 -48 147t-153 46h-725v-446zM1066 1348q30 -18 47 -48.5t17 -66.5q0 -34 -17.5 -63.5t-47 -47.5t-64.5 -18
t-65 18t-48 47.5t-18 63.5q0 36 17.5 66.5t48 48.5t65.5 18t65 -18z" />
    <glyph glyph-name="uniFEC7" unicode="&#x638;" horiz-adv-x="1741" arabic-form="initial" 
d="M1257 918q392 0 392 -404v-514h-1649q-32 0 -49 10t-25 35t-8 72q0 49 8.5 74.5t25.5 35t48 9.5h217v1130h252v-448h788zM469 236h926v253q0 101 -48 147t-153 46h-725v-446zM1015 1348q30 -18 47 -48.5t17 -66.5q0 -34 -17.5 -63.5t-47 -47.5t-64.5 -18t-65 18t-48 47.5
t-18 63.5q0 36 17.5 66.5t48 48.5t65.5 18t65 -18z" />
    <glyph glyph-name="uniFEC8" unicode="&#x638;" horiz-adv-x="1794" arabic-form="medial" 
d="M1268 918q391 0 391 -404v-278h135q31 0 48 -9.5t25.5 -35t8.5 -74.5q0 -47 -8 -72t-25 -35t-49 -10h-1794q-32 0 -49 10t-25 35t-8 72q0 49 8.5 74.5t25.5 35t48 9.5h215v1130h254v-448h799zM469 236h936v253q0 101 -47.5 147t-153.5 46h-735v-446zM1015 1348
q30 -18 47 -48.5t17 -66.5q0 -34 -17.5 -63.5t-47 -47.5t-64.5 -18t-65 18t-48 47.5t-18 63.5q0 36 17.5 66.5t48 48.5t65.5 18t65 -18z" />
    <glyph glyph-name="uniFEC9" unicode="&#x639;" horiz-adv-x="1258" arabic-form="isolated" 
d="M877 682q-106 0 -153.5 -46t-47.5 -147v-253h500v-236h-746q-57 0 -95 -28.5t-38 -82.5q0 -57 39 -77.5t90 -20.5h365v-235h-332q-202 0 -300 83t-98 250q0 130 59 206.5t137.5 107t150.5 33.5h14v278q0 404 391 404h297v-236h-233z" />
    <glyph glyph-name="uniFECA" unicode="&#x639;" horiz-adv-x="1222" arabic-form="final" 
d="M877 682q-106 0 -153.5 -46t-47.5 -147v-253h545q31 0 48 -9.5t25.5 -35t8.5 -74.5q0 -47 -8 -72t-25 -35t-49 -10h-791q-57 0 -95 -28.5t-38 -82.5q0 -57 39 -77.5t90 -20.5h365v-235h-332q-202 0 -300 83t-98 250q0 115 47.5 192t125.5 114t174 41h14v278
q0 404 391 404h297v-236h-233z" />
    <glyph glyph-name="uniFECB" unicode="&#x639;" horiz-adv-x="1040" arabic-form="initial" 
d="M659 682q-105 0 -152.5 -46t-47.5 -147v-253h499v-236h-958q-32 0 -49 10t-25 35t-8 72q0 49 8.5 74.5t25.5 35t48 9.5h205v278q0 404 391 404h297v-236h-234z" />
    <glyph glyph-name="uniFECC" unicode="&#x639;" horiz-adv-x="1004" arabic-form="medial" 
d="M659 682q-105 0 -152.5 -46t-47.5 -147v-253h545q30 0 47.5 -9.5t25.5 -35t8 -74.5q0 -47 -7.5 -72t-24.5 -35t-49 -10h-1004q-32 0 -49 10t-25 35t-8 72q0 49 8.5 74.5t25.5 35t48 9.5h205v278q0 404 391 404h297v-236h-234z" />
    <glyph glyph-name="uniFECD" unicode="&#x63a;" horiz-adv-x="1258" arabic-form="isolated" 
d="M907 1348q30 -18 47 -48.5t17 -66.5q0 -34 -17.5 -63.5t-47 -47.5t-64.5 -18t-65 18t-48 47.5t-18 63.5q0 36 17.5 66.5t48 48.5t65.5 18t65 -18zM877 682q-106 0 -153.5 -46t-47.5 -147v-253h500v-236h-746q-57 0 -95 -28.5t-38 -82.5q0 -57 39 -77.5t90 -20.5h365v-235
h-332q-202 0 -300 83t-98 250q0 130 59 206.5t137.5 107t150.5 33.5h14v278q0 404 391 404h297v-236h-233z" />
    <glyph glyph-name="uniFECE" unicode="&#x63a;" horiz-adv-x="1222" arabic-form="final" 
d="M877 682q-106 0 -153.5 -46t-47.5 -147v-253h545q31 0 48 -9.5t25.5 -35t8.5 -74.5q0 -47 -8 -72t-25 -35t-49 -10h-791q-57 0 -95 -28.5t-38 -82.5q0 -57 39 -77.5t90 -20.5h365v-235h-332q-202 0 -300 83t-98 250q0 115 47.5 192t125.5 114t174 41h14v278
q0 404 391 404h297v-236h-233zM907 1348q30 -18 47 -48.5t17 -66.5q0 -34 -17.5 -63.5t-47 -47.5t-64.5 -18t-65 18t-48 47.5t-18 63.5q0 36 17.5 66.5t48 48.5t65.5 18t65 -18z" />
    <glyph glyph-name="uniFECF" unicode="&#x63a;" horiz-adv-x="1040" arabic-form="initial" 
d="M659 682q-105 0 -152.5 -46t-47.5 -147v-253h499v-236h-958q-32 0 -49 10t-25 35t-8 72q0 49 8.5 74.5t25.5 35t48 9.5h205v278q0 404 391 404h297v-236h-234zM710 1348q30 -18 47 -48.5t17 -66.5q0 -34 -17.5 -63.5t-47 -47.5t-64.5 -18t-65 18t-48 47.5t-18 63.5
q0 36 17.5 66.5t48 48.5t65.5 18t65 -18z" />
    <glyph glyph-name="uniFED0" unicode="&#x63a;" horiz-adv-x="1004" arabic-form="medial" 
d="M659 682q-105 0 -152.5 -46t-47.5 -147v-253h545q30 0 47.5 -9.5t25.5 -35t8 -74.5q0 -47 -7.5 -72t-24.5 -35t-49 -10h-1004q-32 0 -49 10t-25 35t-8 72q0 49 8.5 74.5t25.5 35t48 9.5h205v278q0 404 391 404h297v-236h-234zM710 1348q30 -18 47 -48.5t17 -66.5
q0 -34 -17.5 -63.5t-47 -47.5t-64.5 -18t-65 18t-48 47.5t-18 63.5q0 36 17.5 66.5t48 48.5t65.5 18t65 -18z" />
    <glyph glyph-name="uniFED1" unicode="&#x641;" horiz-adv-x="2190" arabic-form="isolated" 
d="M1724 1348q30 -18 47 -48.5t17 -66.5q0 -34 -17.5 -63.5t-47 -47.5t-64.5 -18t-65 18t-48 47.5t-18 63.5q0 36 17.5 66.5t48 48.5t65.5 18t65 -18zM457 0q-201 0 -296 102.5t-95 300.5v314h251v-289q0 -100 48 -146t153 -46h664v278q0 198 95.5 301t295.5 103h483v-918
h-1599zM1481.5 636q-47.5 -46 -47.5 -147v-253h366v446h-166q-105 0 -152.5 -46z" />
    <glyph glyph-name="uniFED2" unicode="&#x641;" horiz-adv-x="2190" arabic-form="final" 
d="M2189 236q31 0 48 -9.5t25.5 -35t8.5 -74.5q0 -47 -7.5 -72t-25 -35t-49.5 -10h-1732q-201 0 -296 102.5t-95 300.5v314h251v-289q0 -100 48 -146t153 -46h664v278q0 198 95.5 301t295.5 103h483v-682h133zM1481.5 636q-47.5 -46 -47.5 -147v-253h366v446h-166
q-105 0 -152.5 -46zM1724 1348q30 -18 47 -48.5t17 -66.5q0 -34 -17.5 -63.5t-47 -47.5t-64.5 -18t-65 18t-48 47.5t-18 63.5q0 36 17.5 66.5t48 48.5t65.5 18t65 -18z" />
    <glyph glyph-name="uniFED3" unicode="&#x641;" horiz-adv-x="1233" arabic-form="initial" 
d="M0 0q-32 0 -49 10t-25 35t-8 72q0 49 8.5 74.5t25.5 35t48 9.5h225v278q0 404 391 404h484v-918h-1100zM525 636q-48 -46 -48 -147v-253h367v446h-166q-105 0 -153 -46zM733 1348q30 -18 47 -48.5t17 -66.5q0 -34 -17.5 -63.5t-47 -47.5t-64.5 -18t-65 18t-48 47.5
t-18 63.5q0 36 17.5 66.5t48 48.5t65.5 18t65 -18z" />
    <glyph glyph-name="uniFED4" unicode="&#x641;" horiz-adv-x="1233" arabic-form="medial" 
d="M1233 236q31 0 48 -9.5t25.5 -35t8.5 -74.5q0 -47 -8 -72t-25 -35t-49 -10h-1233q-32 0 -49 10t-25 35t-8 72q0 49 8.5 74.5t25.5 35t48 9.5h225v278q0 404 391 404h484v-682h133zM525 636q-48 -46 -48 -147v-253h367v446h-166q-105 0 -153 -46zM733 1348
q30 -18 47 -48.5t17 -66.5q0 -34 -17.5 -63.5t-47 -47.5t-64.5 -18t-65 18t-48 47.5t-18 63.5q0 36 17.5 66.5t48 48.5t65.5 18t65 -18z" />
    <glyph glyph-name="uniFED5" unicode="&#x642;" horiz-adv-x="1684" arabic-form="isolated" 
d="M1056 1573q30 -18 47 -48.5t17 -66.5q0 -34 -17.5 -63.5t-47 -47.5t-64.5 -18t-65 18t-48 47.5t-18 63.5q0 36 17.5 66.5t48 48.5t65.5 18t65 -18zM1375 1573q30 -18 47.5 -48.5t17.5 -66.5q0 -33 -18 -63t-47.5 -48t-63.5 -18q-36 0 -67.5 18t-50 47.5t-18.5 63.5
q0 36 18.5 66.5t50 48.5t67.5 18q34 0 64 -18zM1390 -223.5q-150 -159.5 -436 -159.5h-301q-297 0 -442 152.5t-145 459.5v174h253v-176q0 -178 78 -263t246 -85h305q180 0 256.5 91t81.5 266h-618v514q0 198 95 300.5t296 102.5h483l-2 -917q0 -300 -150 -459.5z
M969.5 871.5q-47.5 -46.5 -47.5 -146.5v-254h366v447h-166q-105 0 -152.5 -46.5z" />
    <glyph glyph-name="uniFED6" unicode="&#x642;" horiz-adv-x="1678" arabic-form="final" 
d="M1677 236q31 0 48 -9.5t25.5 -35t8.5 -74.5q0 -47 -7.5 -72t-25 -35t-49.5 -10h-137q0 -296 -148.5 -444t-437.5 -148h-301q-300 0 -443.5 141t-143.5 445v174h253v-176q0 -178 78 -263t246 -85h305q180 0 257 91t83 265h-618v514q0 198 95.5 301t295.5 103h483v-682h133
zM971.5 636q-47.5 -46 -47.5 -147v-253h366v446h-166q-105 0 -152.5 -46zM1056 1348q30 -18 47 -48.5t17 -66.5q0 -34 -17.5 -63.5t-47 -47.5t-64.5 -18t-65 18t-48 47.5t-18 63.5q0 36 17.5 66.5t48 48.5t65.5 18t65 -18zM1375 1348q30 -18 47.5 -48.5t17.5 -66.5
q0 -33 -18 -63t-47.5 -48t-63.5 -18q-36 0 -67.5 18t-50 47.5t-18.5 63.5q0 36 18.5 66.5t50 48.5t67.5 18q34 0 64 -18z" />
    <glyph glyph-name="uniFED7" unicode="&#x642;" horiz-adv-x="1233" arabic-form="initial" 
d="M0 0q-32 0 -49 10t-25 35t-8 72q0 49 8.5 74.5t25.5 35t48 9.5h225v278q0 404 391 404h484v-918h-1100zM525 636q-48 -46 -48 -147v-253h367v446h-166q-105 0 -153 -46zM577 1348q30 -18 47 -48.5t17 -66.5q0 -34 -17.5 -63.5t-47 -47.5t-64.5 -18t-65 18t-48 47.5
t-18 63.5q0 36 17.5 66.5t48 48.5t65.5 18t65 -18zM896 1348q30 -18 47.5 -48.5t17.5 -66.5q0 -33 -18 -63t-47.5 -48t-63.5 -18q-36 0 -67.5 18t-50 47.5t-18.5 63.5q0 36 18.5 66.5t50 48.5t67.5 18q34 0 64 -18z" />
    <glyph glyph-name="uniFED8" unicode="&#x642;" horiz-adv-x="1233" arabic-form="medial" 
d="M1233 236q31 0 48 -9.5t25.5 -35t8.5 -74.5q0 -47 -8 -72t-25 -35t-49 -10h-1233q-32 0 -49 10t-25 35t-8 72q0 49 8.5 74.5t25.5 35t48 9.5h225v278q0 404 391 404h484v-682h133zM525 636q-48 -46 -48 -147v-253h367v446h-166q-105 0 -153 -46zM577 1348
q30 -18 47 -48.5t17 -66.5q0 -34 -17.5 -63.5t-47 -47.5t-64.5 -18t-65 18t-48 47.5t-18 63.5q0 36 17.5 66.5t48 48.5t65.5 18t65 -18zM896 1348q30 -18 47.5 -48.5t17.5 -66.5q0 -33 -18 -63t-47.5 -48t-63.5 -18q-36 0 -67.5 18t-50 47.5t-18.5 63.5q0 36 18.5 66.5
t50 48.5t67.5 18q34 0 64 -18z" />
    <glyph glyph-name="uniFED9" unicode="&#x643;" horiz-adv-x="1674" arabic-form="isolated" 
d="M457 0q-201 0 -296 102.5t-95 300.5v314h253v-289q0 -100 48 -146t153 -46h766v1130h254v-1366h-1083zM768 938h188q59 0 86 -29t27 -86v-231h-481v110h373v72q0 29 -13.5 42t-44.5 13h-264v80q0 31 13.5 51t52.5 46l192 129v-117z" />
    <glyph glyph-name="uniFEDA" unicode="&#x643;" horiz-adv-x="1674" arabic-form="final" 
d="M1673 236q31 0 48 -9.5t25.5 -35t8.5 -74.5q0 -47 -7.5 -72t-25 -35t-49.5 -10h-1216q-201 0 -296 102.5t-95 300.5v314h253v-289q0 -100 48 -146t153 -46h766v1130h254v-1130h133zM768 938h188q59 0 86 -29t27 -86v-231h-481v110h373v72q0 29 -13.5 42t-44.5 13h-264v80
q0 31 13.5 51t52.5 46l192 129v-117z" />
    <glyph glyph-name="uniFEDB" unicode="&#x643;" horiz-adv-x="1479" arabic-form="initial" 
d="M459 918h536q200 0 295.5 -103t95.5 -301v-514h-1386q-32 0 -49 10t-25 35t-8 72q0 49 8.5 74.5t25.5 35t48 9.5h1133v253q0 101 -48 147t-153 46h-791v109q0 72 19.5 123.5t67 99.5t137.5 108l671 451v-275z" />
    <glyph glyph-name="uniFEDC" unicode="&#x643;" horiz-adv-x="1518" arabic-form="medial" 
d="M459 918h532q200 0 295.5 -103t95.5 -301v-278h136q30 0 47.5 -9.5t25.5 -35t8 -74.5q0 -47 -7.5 -72t-24.5 -35t-49 -10h-1518q-32 0 -49 10t-25 35t-8 72q0 49 8.5 74.5t25.5 35t48 9.5h1128v253q0 101 -47.5 147t-152.5 46h-787v109q0 72 19.5 123.5t67 99.5
t137.5 108l671 451v-275z" />
    <glyph glyph-name="uniFEDD" unicode="&#x644;" horiz-adv-x="1379" arabic-form="isolated" 
d="M1177 -190.5q-68 -124.5 -200.5 -189t-321.5 -64.5t-321 64.5t-200 189t-68 301.5v528h253v-438q0 -193 75.5 -301.5t260.5 -108.5q186 0 261 108.5t75 301.5v1165h254v-1255q0 -177 -68 -301.5z" />
    <glyph glyph-name="uniFEDE" unicode="&#x644;" horiz-adv-x="1457" arabic-form="final" 
d="M1456 236q31 0 48 -9.5t25.5 -35t8.5 -74.5q0 -47 -7.5 -72t-25 -35t-49.5 -10h-225q-23 -137 -96 -236.5t-194.5 -153.5t-285.5 -54q-189 0 -321 64.5t-200 189t-68 301.5v528h253v-438q0 -193 75.5 -301.5t260.5 -108.5q186 0 261 108.5t75 301.5v1165h254v-1130h211z
" />
    <glyph glyph-name="uniFEDF" unicode="&#x644;" horiz-adv-x="651" arabic-form="initial" 
d="M0 0q-32 0 -49 10t-25 35t-8 72q0 49 8.5 74.5t25.5 35t48 9.5h264v1130h254v-1366h-518z" />
    <glyph glyph-name="uniFEE0" unicode="&#x644;" horiz-adv-x="645" arabic-form="medial" 
d="M645 236q31 0 48 -9.5t25.5 -35t8.5 -74.5q0 -47 -7.5 -72t-25 -35t-49.5 -10h-645q-32 0 -49 10t-25 35t-8 72q0 49 8.5 74.5t25.5 35t48 9.5h264v1130h254v-1130h127z" />
    <glyph glyph-name="uniFEE1" unicode="&#x645;" horiz-adv-x="1379" arabic-form="isolated" 
d="M315 -121v-321h-249v354q0 163 66 241.5t218 82.5h21v278q0 198 95.5 301t295.5 103h483v-918h-792q-138 0 -138 -121zM672.5 636q-47.5 -46 -47.5 -147v-253h366v446h-166q-105 0 -152.5 -46z" />
    <glyph glyph-name="uniFEE2" unicode="&#x645;" horiz-adv-x="1379" arabic-form="final" 
d="M1426 226.5q17 -9.5 25.5 -35t8.5 -74.5q0 -47 -7.5 -72t-25 -35t-49.5 -10h-925q-138 0 -138 -121v-321h-249v354q0 163 66 241.5t218 82.5h21v278q0 198 95.5 301t295.5 103h483v-682h133q31 0 48 -9.5zM672.5 636q-47.5 -46 -47.5 -147v-253h366v446h-166
q-105 0 -152.5 -46z" />
    <glyph glyph-name="uniFEE3" unicode="&#x645;" horiz-adv-x="1186" arabic-form="initial" 
d="M1094 514v-514h-1094q-32 0 -49 10t-25 35t-8 72q0 49 8.5 74.5t25.5 35t48 9.5h219v682h483q392 0 392 -404zM473 236h367v253q0 101 -48 147t-153 46h-166v-446z" />
    <glyph glyph-name="uniFEE4" unicode="&#x645;" horiz-adv-x="1227" arabic-form="medial" 
d="M1094 514v-278h133q31 0 48 -9.5t25.5 -35t8.5 -74.5q0 -47 -8 -72t-25 -35t-49 -10h-1227q-32 0 -49 10t-25 35t-8 72q0 49 8.5 74.5t25.5 35t48 9.5h219v682h483q392 0 392 -404zM473 236h367v253q0 101 -48 147t-153 46h-166v-446z" />
    <glyph glyph-name="uniFEE5" unicode="&#x646;" horiz-adv-x="1379" arabic-form="isolated" 
d="M724 1289q30 -18 47 -48.5t17 -66.5q0 -34 -17.5 -63.5t-47 -47.5t-64.5 -18t-65 18t-48 47.5t-18 63.5q0 36 17.5 66.5t48 48.5t65.5 18t65 -18zM1177 -190.5q-68 -124.5 -200.5 -189t-321.5 -64.5t-321 64.5t-200 189t-68 301.5v528h253v-438q0 -193 75.5 -301.5
t260.5 -108.5q186 0 261 108.5t75 301.5v717h254v-807q0 -177 -68 -301.5z" />
    <glyph glyph-name="uniFEE6" unicode="&#x646;" horiz-adv-x="1457" arabic-form="final" 
d="M1456 236q31 0 48 -9.5t25.5 -35t8.5 -74.5q0 -47 -7.5 -72t-25 -35t-49.5 -10h-225q-23 -137 -96 -236.5t-194.5 -153.5t-285.5 -54q-189 0 -321 64.5t-200 189t-68 301.5v528h253v-438q0 -193 75.5 -301.5t260.5 -108.5q186 0 261 108.5t75 301.5v717h254v-682h211z
M724 1289q30 -18 47 -48.5t17 -66.5q0 -34 -17.5 -63.5t-47 -47.5t-64.5 -18t-65 18t-48 47.5t-18 63.5q0 36 17.5 66.5t48 48.5t65.5 18t65 -18z" />
    <glyph glyph-name="uniFEE7" unicode="&#x646;" horiz-adv-x="651" arabic-form="initial" 
d="M0 0q-32 0 -49 10t-25 35t-8 72q0 49 8.5 74.5t25.5 35t48 9.5h266v682h252v-918h-518zM458 1348q30 -18 47 -48.5t17 -66.5q0 -34 -17.5 -63.5t-47 -47.5t-64.5 -18t-65 18t-48 47.5t-18 63.5q0 36 17.5 66.5t48 48.5t65.5 18t65 -18z" />
    <glyph glyph-name="uniFEE8" unicode="&#x646;" horiz-adv-x="645" arabic-form="medial" 
d="M645 236q31 0 48 -9.5t25.5 -35t8.5 -74.5q0 -47 -7.5 -72t-25 -35t-49.5 -10h-645q-32 0 -49 10t-25 35t-8 72q0 49 8.5 74.5t25.5 35t48 9.5h266v682h252v-682h127zM460 1348q30 -18 47 -48.5t17 -66.5q0 -34 -17.5 -63.5t-47 -47.5t-64.5 -18t-65 18t-48 47.5
t-18 63.5q0 36 17.5 66.5t48 48.5t65.5 18t65 -18z" />
    <glyph glyph-name="uniFEE9" unicode="&#x647;" horiz-adv-x="1074" arabic-form="isolated" 
d="M66 0v514q0 198 95.5 301t295.5 103h483v-918h-874zM365 636q-48 -46 -48 -147v-253h367v446h-166q-105 0 -153 -46z" />
    <glyph glyph-name="uniFEEA" unicode="&#x647;" horiz-adv-x="1074" arabic-form="final" 
d="M1073 236q31 0 48 -9.5t25.5 -35t8.5 -74.5q0 -47 -7.5 -72t-25 -35t-49.5 -10h-1007v514q0 198 95.5 301t295.5 103h483v-682h133zM365 636q-48 -46 -48 -147v-253h367v446h-166q-105 0 -153 -46z" />
    <glyph glyph-name="uniFEEB" unicode="&#x647;" horiz-adv-x="1599" arabic-form="initial" 
d="M1299.5 789q124.5 -101 176.5 -244t52 -309v-236h-1528q-32 0 -49 10t-25 35t-8 72q0 49 8.5 74.5t25.5 35t48 9.5h152q0 141 55.5 286.5t182 255.5t325.5 138v102h254v-102q206 -26 330.5 -127zM715 687q-158 -32 -232.5 -148.5t-74.5 -302.5h307v451zM1202.5 537
q-71.5 116 -233.5 149v-450h305q0 185 -71.5 301z" />
    <glyph glyph-name="uniFEEC" unicode="&#x647;" horiz-adv-x="1661" arabic-form="medial" 
d="M1709 226.5q17 -9.5 25.5 -35t8.5 -74.5q0 -47 -8 -72t-25 -35t-49 -10h-1661q-32 0 -49 10t-25 35t-8 72q0 49 8.5 74.5t25.5 35t48 9.5h152q0 141 55.5 286.5t182 255.5t325.5 138v102h254v-102q206 -26 330.5 -127t176.5 -244t52 -309h133q31 0 48 -9.5zM715 687
q-158 -32 -232.5 -148.5t-74.5 -302.5h307v451zM1202.5 537q-71.5 116 -233.5 149v-450h305q0 185 -71.5 301z" />
    <glyph glyph-name="uniFEED" unicode="&#x648;" horiz-adv-x="1162" arabic-form="isolated" 
d="M582 -209q74 0 112.5 20t53 64t14.5 125h-619v514q0 404 392 404h483v-857q0 -166 -33 -274.5t-123 -169.5t-256 -61h-315v235h291zM764 682h-166q-105 0 -153 -46t-48 -147v-253h367v446z" />
    <glyph glyph-name="uniFEEE" unicode="&#x648;" horiz-adv-x="1152" arabic-form="final" 
d="M1151 236q31 0 48 -9.5t25.5 -35t8.5 -74.5q0 -47 -8 -72t-25 -35t-49 -10h-135q-4 -144 -41 -240.5t-125.5 -150t-243.5 -53.5h-315v237h291q75 0 113 19.5t52.5 63t14.5 124.5h-619v514q0 404 392 404h483v-682h133zM445 636q-48 -46 -48 -147v-253h367v446h-166
q-105 0 -153 -46z" />
    <glyph glyph-name="uniFEEF" unicode="&#x649;" horiz-adv-x="1955" arabic-form="isolated" 
d="M1567 0v682h-121q-105 0 -153 -46t-48 -147v-378q0 -177 -68 -301.5t-200.5 -189t-321.5 -64.5t-321 64.5t-200 189t-68 301.5v528h253v-438q0 -192 75.5 -300t260.5 -108q186 0 261 107.5t75 300.5v313q0 404 393 404h437v-918h-254z" />
    <glyph glyph-name="uniFEF0" unicode="&#x649;" horiz-adv-x="1953" arabic-form="final" 
d="M1952 236q31 0 48 -9.5t25.5 -35t8.5 -74.5q0 -47 -8 -72t-25 -35t-49 -10h-385v682h-121q-105 0 -153 -46t-48 -147v-378q0 -177 -68 -301.5t-200.5 -189t-321.5 -64.5t-321 64.5t-200 189t-68 301.5v528h253v-438q0 -193 75.5 -301.5t260.5 -108.5q186 0 261 108.5
t75 301.5v313q0 404 393 404h437v-682h131z" />
    <glyph glyph-name="uniFEF1" unicode="&#x64a;" horiz-adv-x="1955" arabic-form="isolated" 
d="M1567 0v682h-121q-105 0 -153 -46t-48 -147v-378q0 -177 -68 -301.5t-200.5 -189t-321.5 -64.5t-321 64.5t-200 189t-68 301.5v528h253v-438q0 -192 75.5 -300t260.5 -108q186 0 261 107.5t75 300.5v313q0 404 393 404h437v-918h-254zM565 -532q30 -18 47 -48.5t17 -66.5
q0 -34 -17.5 -63.5t-47 -47.5t-64.5 -18t-65 18t-48 47.5t-18 63.5q0 36 17.5 66.5t48 48.5t65.5 18t65 -18zM884 -532q30 -18 47.5 -48.5t17.5 -66.5q0 -33 -18 -63t-47.5 -48t-63.5 -18q-36 0 -67.5 18t-50 47.5t-18.5 63.5q0 36 18.5 66.5t50 48.5t67.5 18q34 0 64 -18z
" />
    <glyph glyph-name="uniFEF2" unicode="&#x64a;" horiz-adv-x="1953" arabic-form="final" 
d="M1952 236q31 0 48 -9.5t25.5 -35t8.5 -74.5q0 -47 -8 -72t-25 -35t-49 -10h-385v682h-121q-105 0 -153 -46t-48 -147v-378q0 -177 -68 -301.5t-200.5 -189t-321.5 -64.5t-321 64.5t-200 189t-68 301.5v528h253v-438q0 -193 75.5 -301.5t260.5 -108.5q186 0 261 108.5
t75 301.5v313q0 404 393 404h437v-682h131zM571 -532q30 -18 47 -48.5t17 -66.5q0 -34 -17.5 -63.5t-47 -47.5t-64.5 -18t-65 18t-48 47.5t-18 63.5q0 36 17.5 66.5t48 48.5t65.5 18t65 -18zM890 -532q30 -18 47.5 -48.5t17.5 -66.5q0 -33 -18 -63t-47.5 -48t-63.5 -18
q-36 0 -67.5 18t-50 47.5t-18.5 63.5q0 36 18.5 66.5t50 48.5t67.5 18q34 0 64 -18z" />
    <glyph glyph-name="uniFEF3" unicode="&#x64a;" horiz-adv-x="762" arabic-form="initial" 
d="M296 -139q30 -18 47 -48.5t17 -66.5q0 -34 -17.5 -63.5t-47 -47.5t-64.5 -18t-65 18t-48 47.5t-18 63.5q0 36 17.5 66.5t48 48.5t65.5 18t65 -18zM615 -139q30 -18 47.5 -48.5t17.5 -66.5q0 -33 -18 -63t-47.5 -48t-63.5 -18q-36 0 -67.5 18t-50 47.5t-18.5 63.5
q0 36 18.5 66.5t50 48.5t67.5 18q34 0 64 -18zM0 0q-32 0 -49 10t-25 35t-8 72q0 49 8.5 74.5t25.5 35t48 9.5h348v682h252v-918h-600z" />
    <glyph glyph-name="uniFEF4" unicode="&#x64a;" horiz-adv-x="748" arabic-form="medial" 
d="M346 -139q30 -18 47 -48.5t17 -66.5q0 -34 -17.5 -63.5t-47 -47.5t-64.5 -18t-65 18t-48 47.5t-18 63.5q0 36 17.5 66.5t48 48.5t65.5 18t65 -18zM665 -139q30 -18 47.5 -48.5t17.5 -66.5q0 -33 -18 -63t-47.5 -48t-63.5 -18q-36 0 -67.5 18t-50 47.5t-18.5 63.5
q0 36 18.5 66.5t50 48.5t67.5 18q34 0 64 -18zM748 236q30 0 47.5 -9.5t25.5 -35t8 -74.5q0 -47 -7.5 -72t-24.5 -35t-49 -10h-748q-32 0 -49 10t-25 35t-8 72q0 49 8.5 74.5t25.5 35t48 9.5h328v682h252v-682h168z" />
    <glyph glyph-name=".notdef" horiz-adv-x="1025" 
d="M25 0v1362h972v-1362h-972zM512 768l330 498h-662zM453 682l-330 496v-992zM901 184v994l-332 -496zM842 98l-330 496l-332 -496h662z" />
    <glyph glyph-name="glyph1" horiz-adv-x="1161" 
 />
    <glyph glyph-name="glyph1" horiz-adv-x="1161" 
 />
    <glyph glyph-name="uni000D" unicode="&#xd;" horiz-adv-x="449" 
 />
    <glyph glyph-name="space" unicode=" " horiz-adv-x="449" 
 />
    <glyph glyph-name="exclam" unicode="!" horiz-adv-x="720" 
d="M504 1360l-25 -967h-239l-27 967h291zM498 287v-287h-277v287h277z" />
    <glyph glyph-name="quotedbl" unicode="&#x22;" horiz-adv-x="1111" 
d="M479 1360l-20 -510h-217l-25 510h262zM893 1360l-23 -510h-217l-24 510h264z" />
    <glyph glyph-name="numbersign" unicode="#" horiz-adv-x="1709" 
d="M918 0l51 336h-324l-49 -336h-188l51 336h-330l25 178h329l47 332h-329l24 178h330l49 336h189l-52 -336h326l47 336h186l-51 -336h330l-23 -178h-329l-10 -65q-30 -207 -37 -267h329l-24 -178h-330l-49 -336h-188zM670 514h325l45 332h-325z" />
    <glyph glyph-name="dollar" unicode="$" 
d="M158 0v238h477v327h-98q-204 0 -308 97t-104 301t104 300.5t308 96.5h98v201h182v-201h457v-236h-457v-321h94q204 0 311 -99t107 -303q0 -203 -107 -302t-311 -99h-92v-203h-184v203h-477zM456.5 1084.5q-40.5 -39.5 -40.5 -121.5t40.5 -121t121.5 -39h57v321h-57
q-81 0 -121.5 -39.5zM996 277.5q42 39.5 42 123.5q0 85 -41.5 124.5t-126.5 39.5h-53v-327h53q84 0 126 39.5z" />
    <glyph glyph-name="percent" unicode="%" horiz-adv-x="1891" 
d="M729.5 744q-97.5 -91 -272.5 -91t-273 91t-98 274q0 184 97 273t274 89q175 0 272.5 -89.5t97.5 -272.5t-97.5 -274zM1432 1360l-779 -1360h-196l778 1360h197zM572 867q40 50 40 151t-40 151t-115 50q-76 0 -116 -50t-40 -151t40 -151t116 -50q75 0 115 50zM1706.5 70
q-97.5 -90 -272.5 -90q-177 0 -275 90t-98 272q0 183 98 274t273 91q176 0 274 -91t98 -274q0 -182 -97.5 -272zM1548 191q41 50 41 151t-40 151t-115 50q-76 0 -117 -50t-41 -151t40 -151t116 -50q75 0 116 50z" />
    <glyph glyph-name="ampersand" unicode="&#x26;" horiz-adv-x="1547" 
d="M237.5 95q-98.5 95 -98.5 265q0 106 37.5 179t96.5 112t126 49q-35 7 -78.5 34.5t-79.5 92.5t-36 172q0 176 99 268.5t278 92.5h479v-236h-410q-79 0 -118 -37.5t-39 -117.5t39 -118t118 -38h819v-231h-198v-582h-754q-182 0 -280.5 95zM474.5 536q-42.5 -42 -42.5 -128
q0 -87 42.5 -129.5t127.5 -42.5h391v342h-391q-85 0 -127.5 -42z" />
    <glyph glyph-name="quotesingle" unicode="'" horiz-adv-x="699" 
d="M481 1360l-22 -510h-217l-25 510h264z" />
    <glyph glyph-name="parenleft" unicode="(" horiz-adv-x="728" 
d="M170 168.5q-92 247.5 -92 511.5t92 511.5t256 422.5h238q-140 -177 -234 -409.5t-94 -524.5t94 -524.5t234 -409.5h-238q-164 175 -256 422.5z" />
    <glyph glyph-name="parenright" unicode=")" horiz-adv-x="728" 
d="M297 155.5q94 232.5 94 524.5t-94 524.5t-234 409.5h238q164 -175 256 -422.5t92 -511.5t-92 -511.5t-256 -422.5h-238q140 177 234 409.5z" />
    <glyph glyph-name="asterisk" unicode="*" horiz-adv-x="888" 
d="M301 694l-145 113l159 180l-231 66l59 172l217 -84l-10 233h187l-11 -233l217 84l60 -170l-232 -68l160 -180l-143 -113l-144 201z" />
    <glyph glyph-name="plus" unicode="+" 
d="M201 580v200h422v424h208v-424h422v-200h-422v-424h-208v424h-422z" />
    <glyph glyph-name="comma" unicode="," horiz-adv-x="683" 
d="M522 287l-157 -510h-218l113 510h262z" />
    <glyph glyph-name="hyphen" unicode="-" horiz-adv-x="665" 
d="M592 614v-217h-520v217h520z" />
    <glyph glyph-name="period" unicode="." horiz-adv-x="683" 
d="M483 287v-287h-284v287h284z" />
    <glyph glyph-name="slash" unicode="/" horiz-adv-x="970" 
d="M907 1384l-635 -1409h-211l635 1409h211z" />
    <glyph glyph-name="zero" unicode="0" 
d="M248 155q-162 178 -162 525q0 346 162.5 524t478.5 178q317 0 479 -177.5t162 -524.5q0 -346 -162.5 -524.5t-478.5 -178.5q-317 0 -479 178zM994.5 1028q-82.5 119 -267.5 119t-267.5 -119t-82.5 -348t82.5 -348t267.5 -119t267.5 119t82.5 348t-82.5 348z" />
    <glyph glyph-name="one" unicode="1" horiz-adv-x="728" 
d="M86 1122v238h438v-1360h-276v1122h-162z" />
    <glyph glyph-name="two" unicode="2" 
d="M243 701q102 102 302 102h325q162 0 162 160q0 159 -162 159h-675v238h727q199 0 301 -98.5t102 -296.5q0 -199 -101.5 -297.5t-299.5 -98.5h-324q-86 0 -127 -40.5t-41 -125.5v-165h860v-238h-1151v399q0 200 102 302z" />
    <glyph glyph-name="three" unicode="3" 
d="M864 238q93 0 138 40.5t45 127.5q0 86 -45 126.5t-138 40.5h-579v232h524q176 0 176 160q0 157 -176 157h-629v238h703q188 0 289.5 -91.5t101.5 -269.5q0 -155 -62.5 -218t-132.5 -83q67 -10 126 -50.5t96.5 -114t37.5 -177.5q0 -111 -45.5 -191t-133 -122.5
t-212.5 -42.5h-786v238h702z" />
    <glyph glyph-name="four" unicode="4" 
d="M59 283v233l820 844h338v-844h200v-233h-200v-283h-277v283h-881zM940 516v582l-561 -582h561z" />
    <glyph glyph-name="five" unicode="5" 
d="M864 238q87 0 129.5 42t42.5 128q0 170 -172 170h-678v782h1096v-238h-807v-311h447q201 0 303 -102t102 -303q0 -202 -102 -304t-303 -102h-762v238h704z" />
    <glyph glyph-name="six" unicode="6" 
d="M492 1050q-78 -72 -93 -210l-2 -19h475q229 0 361.5 -93t132.5 -300q0 -220 -152.5 -335.5t-453.5 -115.5q-326 0 -493 175t-167 516q0 344 164.5 518t495.5 174h538v-238h-577q-151 0 -229 -72zM504.5 290.5q98.5 -79.5 273.5 -79.5q147 0 221 47.5t74 147.5
q0 98 -64.5 140t-181.5 42h-432l2 -31q9 -187 107.5 -266.5z" />
    <glyph glyph-name="seven" unicode="7" 
d="M129 1122v238h1214v-230l-763 -1130h-328l762 1122h-885z" />
    <glyph glyph-name="eight" unicode="8" 
d="M1279.5 609.5q88.5 -71.5 88.5 -238.5q0 -134 -61.5 -220.5t-202 -130t-377.5 -43.5t-377.5 43.5t-202 130t-61.5 220.5q0 167 90 239t182 90q-77 17 -147 82.5t-70 212.5q0 387 586 387q310 0 448 -101.5t138 -283.5q0 -147 -70 -212.5t-147 -82.5q95 -21 183.5 -92.5z
M953 1115.5q-71 41.5 -226 41.5t-226 -41.5t-71 -134.5t71.5 -134.5t225.5 -41.5t225.5 41.5t71.5 134.5t-71 134.5zM988.5 543.5q-86.5 40.5 -261.5 40.5q-117 0 -192 -16t-115.5 -56.5t-40.5 -114.5q0 -106 86.5 -147t261.5 -41q116 0 191.5 16t116 57.5t40.5 114.5
q0 106 -86.5 146.5z" />
    <glyph glyph-name="nine" unicode="9" 
d="M733 238q152 0 229.5 71t92.5 209l2 21h-475q-231 0 -361.5 93t-130.5 300q0 220 152.5 335t453.5 115q323 0 490.5 -175t167.5 -515q0 -692 -662 -692h-536v238h577zM949 1070q-99 81 -273 81q-147 0 -221 -48t-74 -149q0 -98 64 -140t182 -42h432l-2 29
q-9 188 -108 269z" />
    <glyph glyph-name="colon" unicode=":" horiz-adv-x="683" 
d="M477 999v-286h-272v286h272zM477 287v-287h-272v287h272z" />
    <glyph glyph-name="semicolon" unicode=";" horiz-adv-x="683" 
d="M477 999v-286h-272v286h272zM522 287l-157 -510h-218l113 510h262z" />
    <glyph glyph-name="less" unicode="&#x3c;" 
d="M1253 1206v-205l-796 -321l796 -322v-202l-1052 422v204z" />
    <glyph glyph-name="equal" unicode="=" 
d="M1253 1012v-201h-1052v201h1052zM1253 549v-201h-1052v201h1052z" />
    <glyph glyph-name="greater" unicode="&#x3e;" 
d="M997 680l-796 321v205l1052 -424v-204l-1052 -424v204z" />
    <glyph glyph-name="question" unicode="?" horiz-adv-x="1304" 
d="M603 560q-31 -13 -43.5 -44t-12.5 -90v-31h-277v62q0 134 33 210t109 109t211 33h73q80 0 119 39t39 119t-38 117.5t-118 37.5h-530v238h586q195 0 294 -99t99 -294q0 -196 -99 -295t-294 -99h-62q-58 0 -89 -13zM545 287v-287h-275v287h275z" />
    <glyph glyph-name="at" unicode="@" horiz-adv-x="1633" 
d="M263.5 -11q-169.5 169 -169.5 511t168.5 511t511.5 169h295q141 0 228 -41t128 -127.5t41 -227.5v-604h-647q-157 0 -238 81.5t-81 238.5t81 238t238 81h393v21q0 83 -34 117t-117 34h-242q-171 0 -279 -51.5t-160 -159.5t-52 -280q0 -171 51.5 -279t159.5 -159.5
t280 -51.5h647v-190h-690q-343 0 -512.5 169zM787 594.5q-31 -30.5 -31 -94.5t31 -94.5t96 -30.5h331v250h-331q-65 0 -96 -30.5z" />
    <glyph glyph-name="A" unicode="A" horiz-adv-x="1360" 
d="M397 295l-104 -295h-301l524 1360h328l524 -1360h-309l-105 295h-557zM874 528l-198 570l-201 -570h399z" />
    <glyph glyph-name="B" unicode="B" horiz-adv-x="1428" 
d="M895 1360q182 0 284.5 -92.5t102.5 -268.5q0 -153 -65.5 -219t-133.5 -82q56 -8 115 -43.5t101 -108.5t42 -186q0 -180 -106.5 -270t-298.5 -90h-780v1360h739zM825 807q84 0 125 39t41 121t-41 120.5t-125 38.5h-391v-319h391zM877 233q85 0 128.5 42.5t43.5 127.5
q0 170 -172 170h-443v-340h443z" />
    <glyph glyph-name="C" unicode="C" horiz-adv-x="1226" 
d="M248.5 166q-162.5 166 -162.5 514q0 347 162.5 513.5t499.5 166.5h409v-238h-350q-159 0 -252 -43.5t-134.5 -139.5t-41.5 -259q0 -164 41 -259.5t134 -139t253 -43.5h358v-238h-415q-339 0 -501.5 166z" />
    <glyph glyph-name="D" unicode="D" horiz-adv-x="1486" 
d="M737 1360q339 0 500.5 -165t161.5 -515t-161.5 -515t-500.5 -165h-581v1360h581zM931.5 281q92.5 43 133.5 139t41 260t-41 260t-133.5 139t-251.5 43h-246v-884h246q159 0 251.5 43z" />
    <glyph glyph-name="E" unicode="E" horiz-adv-x="1281" 
d="M248 166.5q-162 166.5 -162 513.5t162 513.5t502 166.5h395v-238h-340q-139 0 -225 -31.5t-132 -100.5t-61 -187h739v-238h-739q12 -117 58 -188.5t133.5 -105t226.5 -33.5h360v-238h-415q-340 0 -502 166.5z" />
    <glyph glyph-name="F" unicode="F" horiz-adv-x="1164" 
d="M150 0v842q0 260 129.5 389t390.5 129h413v-238h-342q-116 0 -184 -30.5t-98.5 -98.5t-30.5 -184v-49h633v-238h-633v-522h-278z" />
    <glyph glyph-name="G" unicode="G" horiz-adv-x="1461" 
d="M249 166.5q-163 166.5 -163 513.5t163 513.5t501 166.5h512v-238h-453q-162 0 -255 -43t-134 -138.5t-41 -260.5t41 -260.5t134 -138.5t255 -43h238v327h-334v236h612v-801h-575q-338 0 -501 166.5z" />
    <glyph glyph-name="H" unicode="H" horiz-adv-x="1500" 
d="M434 569v-569h-278v1360h278v-555h629v555h280v-1360h-278v569h-631z" />
    <glyph glyph-name="I" unicode="I" horiz-adv-x="591" 
d="M434 1360v-1360h-278v1360h278z" />
    <glyph glyph-name="J" unicode="J" horiz-adv-x="1043" 
d="M295 238q119 0 188 31t100 100t31 188v803h279v-838q0 -262 -129.5 -392t-392.5 -130h-324v238h248z" />
    <glyph glyph-name="K" unicode="K" horiz-adv-x="1293" 
d="M434 0h-278v1360h278v-637l531 637h325l-557 -668l578 -692h-346l-531 653v-653z" />
    <glyph glyph-name="L" unicode="L" horiz-adv-x="1144" 
d="M280 130q-130 130 -130 392v838h278v-803q0 -119 31 -188t100 -100t189 -31h348v-238h-424q-262 0 -392 130z" />
    <glyph glyph-name="M" unicode="M" horiz-adv-x="1877" 
d="M1096 0h-328l-348 1110v-1110h-264v1360h458l324 -1069l324 1069h458v-1360h-278v1110z" />
    <glyph glyph-name="N" unicode="N" horiz-adv-x="1500" 
d="M422 0h-266v1360h356l565 -991v991h266v-1360h-346l-575 1012v-1012z" />
    <glyph glyph-name="O" unicode="O" horiz-adv-x="1541" 
d="M260.5 155.5q-174.5 178.5 -174.5 524.5q0 347 173.5 524.5t510.5 177.5q336 0 510 -178t174 -524q0 -347 -173.5 -525t-510.5 -178q-335 0 -509.5 178.5zM1062 329q99 112 99 351q0 240 -98 351.5t-293 111.5q-193 0 -292 -112t-99 -351q0 -240 98 -351.5t293 -111.5
q193 0 292 112z" />
    <glyph glyph-name="P" unicode="P" horiz-adv-x="1365" 
d="M827 1360q219 0 335 -112.5t116 -329.5q0 -219 -115.5 -332t-335.5 -113h-393v-473h-278v1360h671zM778 1122h-344v-411h344q207 0 207 207q0 204 -207 204z" />
    <glyph glyph-name="Q" unicode="Q" horiz-adv-x="1541" 
d="M401.5 75q-149.5 75 -232.5 228t-83 379q0 346 174.5 523t509.5 177t509.5 -176.5t174.5 -521.5q0 -133 -31.5 -230t-67 -149t-61.5 -76h224v-229h-764q-203 0 -352.5 75zM1161 692q0 233 -100 342t-291 109q-391 0 -391 -451q0 -452 391 -452t391 452z" />
    <glyph glyph-name="R" unicode="R" horiz-adv-x="1420" 
d="M434 506v-506h-278v1360h704q217 0 330 -106.5t113 -319.5q0 -337 -281 -410l352 -524h-336l-327 506h-277zM960 789q50 46 50 143q0 100 -49.5 145t-151.5 45h-375v-379h375q101 0 151 46z" />
    <glyph glyph-name="S" unicode="S" horiz-adv-x="1277" 
d="M725 238q83 0 124.5 40.5t41.5 122.5q0 83 -41 123.5t-125 40.5h-233q-400 0 -400 400q0 199 99.5 297t300.5 98h636v-238h-581q-162 0 -162 -159q0 -79 40.5 -119.5t119.5 -40.5h231q200 0 304 -101.5t104 -300.5t-103.5 -300t-302.5 -101h-653v238h600z" />
    <glyph glyph-name="T" unicode="T" horiz-adv-x="1190" 
d="M14 1122v238h1162v-238h-441v-1122h-278v1122h-443z" />
    <glyph glyph-name="U" unicode="U" horiz-adv-x="1465" 
d="M280 130q-130 130 -130 392v838h278v-803q0 -119 31 -188t100 -100t189 -31h280v1122h281v-1360h-637q-262 0 -392 130z" />
    <glyph glyph-name="V" unicode="V" horiz-adv-x="1354" 
d="M313 1360l367 -1086l369 1086h297l-504 -1360h-330l-504 1360h305z" />
    <glyph glyph-name="W" unicode="W" horiz-adv-x="2053" 
d="M756 0h-326l-403 1360h301l274 -1010l272 1010h322l272 -1010l275 1010h282l-403 -1360h-326l-270 987z" />
    <glyph glyph-name="X" unicode="X" horiz-adv-x="1335" 
d="M313 0h-319l514 698l-483 662h335l316 -447l315 447h320l-484 -662l514 -698h-335l-347 483z" />
    <glyph glyph-name="Y" unicode="Y" horiz-adv-x="1276" 
d="M8 1360h305l328 -594l328 594h299l-492 -840v-520h-278v520z" />
    <glyph glyph-name="Z" unicode="Z" horiz-adv-x="1336" 
d="M877 1122h-773v238h1127v-227l-776 -895h782v-238h-1139v225z" />
    <glyph glyph-name="bracketleft" unicode="[" horiz-adv-x="728" 
d="M209.5 -186q-68.5 68 -68.5 213v1306q0 145 68.5 213t214.5 68h258v-176h-164q-72 0 -102.5 -29.5t-30.5 -101.5v-1254q0 -72 30 -101.5t103 -29.5h164v-176h-258q-146 0 -214.5 68z" />
    <glyph glyph-name="backslash" unicode="\" horiz-adv-x="970" 
d="M270 1384l637 -1409h-211l-635 1409h209z" />
    <glyph glyph-name="bracketright" unicode="]" horiz-adv-x="728" 
d="M209 -78q72 0 102.5 29.5t30.5 101.5v1252q0 74 -29.5 103.5t-103.5 29.5h-164v176h258q146 0 214.5 -68t68.5 -213v-1306q0 -145 -68.5 -213t-214.5 -68h-258v176h164z" />
    <glyph glyph-name="asciicircum" unicode="^" 
d="M406 508h-205l424 850h204l424 -850h-204l-322 645z" />
    <glyph glyph-name="underscore" unicode="_" horiz-adv-x="1454" 
d="M1454 -88v-158h-1454v158h1454z" />
    <glyph glyph-name="grave" unicode="`" 
d="M799 1360l153 -279h-241l-209 279h297z" />
    <glyph glyph-name="a" unicode="a" horiz-adv-x="1164" 
d="M158 82.5q-82 82.5 -82 232.5q0 151 82 233.5t233 82.5h381v22q0 76 -31 107t-106 31h-494v208h504q143 0 231 -41.5t129.5 -129.5t41.5 -230v-598h-656q-151 0 -233 82.5zM382.5 397.5q-28.5 -28.5 -28.5 -82.5q0 -53 28.5 -81.5t82.5 -28.5h311v221h-311
q-54 0 -82.5 -28.5z" />
    <glyph glyph-name="b" unicode="b" horiz-adv-x="1213" 
d="M403 1360v-361h238q246 0 373 -127t127 -372q0 -246 -127 -373t-373 -127h-512v1360h274zM789.5 722.5q-70.5 70.5 -222.5 70.5h-164v-586h164q152 0 221.5 70t69.5 223h2q0 152 -70.5 222.5z" />
    <glyph glyph-name="c" unicode="c" horiz-adv-x="994" 
d="M199 127q-127 127 -127 373q0 245 127 372t372 127h342v-211h-270q-152 0 -221.5 -68.5t-69.5 -219.5q0 -152 68.5 -220.5t220.5 -68.5h285v-211h-355q-245 0 -372 127z" />
    <glyph glyph-name="d" unicode="d" horiz-adv-x="1213" 
d="M199 127q-127 127 -127 373q0 245 127 372t372 127h238v361h274v-1360h-512q-245 0 -372 127zM422.5 722.5q-70.5 -70.5 -70.5 -222.5t70 -221.5t223 -69.5h164v584h-164q-152 0 -222.5 -70.5z" />
    <glyph glyph-name="e" unicode="e" horiz-adv-x="1054" 
d="M199 127q-127 127 -127 373q0 245 127 372t372 127h371v-206h-336q-124 0 -183 -45t-71 -140h582v-205h-582q5 -93 65 -143.5t189 -50.5h344v-209h-379q-245 0 -372 127z" />
    <glyph glyph-name="f" unicode="f" horiz-adv-x="753" 
d="M37 791v208h149v56q0 111 31 177.5t97.5 97t177.5 30.5h278v-205h-197q-61 0 -85.5 -25t-24.5 -86v-45h297v-208h-297v-791h-275v791h-151z" />
    <glyph glyph-name="g" unicode="g" horiz-adv-x="1213" 
d="M684 -115q71 0 98 27t27 98v21h-250q-154 0 -263 56.5t-166.5 164.5t-57.5 262q0 155 57 263.5t166 165t264 56.5h524v-919q0 -147 -40 -235t-127.5 -128.5t-233.5 -40.5l-547 2v207h549zM352 516q0 -140 68.5 -208t208.5 -68h180v553h-178q-279 0 -279 -277z" />
    <glyph glyph-name="h" unicode="h" horiz-adv-x="1220" 
d="M781 738q-46 46 -150 46h-228v-784h-274v1360h274v-361h285q145 0 236 -43.5t134.5 -134t43.5 -235.5v-586h-275v588q0 104 -46 150z" />
    <glyph glyph-name="i" unicode="i" horiz-adv-x="533" 
d="M403 1360v-248h-274v248h274zM403 999v-999h-274v999h274z" />
    <glyph glyph-name="j" unicode="j" horiz-adv-x="549" 
d="M420 1360v-248h-277v248h277zM35 -119q60 0 84 25.5t24 85.5v1007h277v-1019q0 -112 -30.5 -178.5t-97 -97t-177.5 -30.5h-172v207h92z" />
    <glyph glyph-name="k" unicode="k" horiz-adv-x="1105" 
d="M403 0h-274v1360h274v-768l359 407h319l-409 -446l446 -553h-327l-388 485v-485z" />
    <glyph glyph-name="l" unicode="l" horiz-adv-x="533" 
d="M403 1360v-1360h-274v1360h274z" />
    <glyph glyph-name="m" unicode="m" horiz-adv-x="1701" 
d="M1265.5 741q-43.5 43 -143.5 43h-129v-784h-274v784h-316v-784h-274v999h1040q215 0 314.5 -99t99.5 -314v-586h-274v598q0 100 -43.5 143z" />
    <glyph glyph-name="n" unicode="n" horiz-adv-x="1220" 
d="M781 738q-46 46 -150 46h-228v-784h-274v999h559q145 0 236 -43.5t134.5 -134t43.5 -235.5v-586h-275v588q0 104 -46 150z" />
    <glyph glyph-name="o" unicode="o" horiz-adv-x="1242" 
d="M1027 107.5q-142 -127.5 -406 -127.5t-406.5 127.5t-142.5 392.5t142.5 392.5t406.5 127.5t406 -127.5t142 -392.5t-142 -392.5zM824 269.5q67 76.5 67 230.5t-67 230.5t-203 76.5q-137 0 -204 -76.5t-67 -230.5t67 -230.5t204 -76.5q136 0 203 76.5z" />
    <glyph glyph-name="p" unicode="p" horiz-adv-x="1213" 
d="M641 999q246 0 373 -127t127 -372q0 -246 -127 -373t-373 -127h-238v-328h-274v1327h512zM789.5 721q-70.5 70 -222.5 70h-164v-584h164q152 0 222.5 70.5t70.5 222.5q0 151 -70.5 221z" />
    <glyph glyph-name="q" unicode="q" horiz-adv-x="1213" 
d="M571 0q-245 0 -372 127t-127 373q0 245 127 372t372 127h512v-1327h-274v328h-238zM422.5 721q-70.5 -70 -70.5 -221q0 -152 70.5 -222.5t222.5 -70.5h164v584h-164q-152 0 -222.5 -70z" />
    <glyph glyph-name="r" unicode="r" horiz-adv-x="968" 
d="M594 999q115 0 186.5 -33t105.5 -104t34 -186v-148h-275v119q0 75 -31.5 107t-105.5 32h-105v-786h-274v999h465z" />
    <glyph glyph-name="s" unicode="s" horiz-adv-x="1045" 
d="M594 207q47 0 71.5 24.5t24.5 71.5q0 94 -96 94h-207q-144 0 -224.5 78.5t-80.5 222.5t79.5 222.5t223.5 78.5h530v-208h-456q-99 0 -99 -93q0 -47 25.5 -70.5t73.5 -23.5h207q146 0 224.5 -78t78.5 -223t-78.5 -224t-224.5 -79h-590v207h518z" />
    <glyph glyph-name="t" unicode="t" horiz-adv-x="839" 
d="M318.5 30.5q-66.5 30.5 -97.5 97t-31 177.5v486h-149v208h149v265h275v-265h328v-208h-328v-474q0 -60 24.5 -85t83.5 -25h220v-207h-297q-111 0 -177.5 30.5z" />
    <glyph glyph-name="u" unicode="u" horiz-adv-x="1211" 
d="M296 43.5q-91 43.5 -135 134.5t-44 236v585h274v-587q0 -105 46.5 -151t150.5 -46h219v784h274v-999h-549q-145 0 -236 43.5z" />
    <glyph glyph-name="v" unicode="v" horiz-adv-x="1108" 
d="M285 999l272 -708l272 708h273l-397 -999h-302l-397 999h279z" />
    <glyph glyph-name="w" unicode="w" horiz-adv-x="1648" 
d="M621 0h-281l-307 999h280l197 -684l186 684h269l188 -684l195 684h266l-307 -999h-281l-203 680z" />
    <glyph glyph-name="x" unicode="x" horiz-adv-x="1090" 
d="M307 0h-309l383 502l-367 497h308l227 -325l229 325h297l-366 -495l383 -504h-318l-233 332z" />
    <glyph glyph-name="y" unicode="y" horiz-adv-x="1108" 
d="M6 999h279l272 -708l274 708h271l-533 -1327h-295l136 328z" />
    <glyph glyph-name="z" unicode="z" horiz-adv-x="1045" 
d="M625 791h-555v208h905v-200l-582 -590h598v-209h-938v201z" />
    <glyph glyph-name="braceleft" unicode="{" horiz-adv-x="728" 
d="M266.5 -186.5q-67.5 67.5 -67.5 213.5v426q0 74 -29 103.5t-102 29.5h-35v188h35q72 0 101.5 30t29.5 103v426q0 146 67 213.5t213 67.5h215v-176h-108q-52 0 -81.5 -13t-42.5 -43t-13 -82v-378q0 -73 -13 -120t-49 -77.5t-102 -42.5v-4q66 -12 101 -42.5t47.5 -77
t12.5 -118.5v-381q0 -52 13 -81.5t43.5 -42.5t83.5 -13h108v-176h-213q-147 0 -214.5 67.5z" />
    <glyph glyph-name="bar" unicode="|" horiz-adv-x="728" 
d="M467 1614v-1868h-207v1868h207z" />
    <glyph glyph-name="braceright" unicode="}" horiz-adv-x="728" 
d="M141 -78q77 0 107.5 30t30.5 107v381q0 71 13 118t48.5 77.5t101.5 42.5v4q-66 12 -101 42.5t-47.5 77.5t-12.5 120v378q0 52 -13 82t-43.5 43t-83.5 13h-108v176h213q147 0 214.5 -67.5t67.5 -213.5v-426q0 -74 29 -103.5t102 -29.5h35v-188h-35q-72 0 -101.5 -30
t-29.5 -103v-426q0 -146 -67 -213.5t-213 -67.5h-215v176h108z" />
    <glyph glyph-name="asciitilde" unicode="~" 
d="M433 572q-22 -8 -30 -30t-8 -69v-67h-194v102q0 108 24 166t82 82t166 24h479q47 0 69 8t30.5 30t9.5 69v67h192v-102q0 -108 -24 -166t-82 -82t-166 -24h-479q-47 0 -69 -8z" />
    <glyph glyph-name="exclamdown" unicode="&#xa1;" horiz-adv-x="720" 
d="M498 999v-286h-277v286h277zM477 606l27 -966h-291l27 966h237z" />
    <glyph glyph-name="cent" unicode="&#xa2;" 
d="M786 -61v196h-28q-235 0 -359.5 129t-124.5 371q0 241 125 369.5t363 128.5h24v196h170v-196h236v-205h-236v-586h244v-207h-244v-196h-170zM609 852q-56 -76 -56 -217q0 -142 54 -217.5t163 -75.5h16v586h-12q-109 0 -165 -76z" />
    <glyph glyph-name="sterling" unicode="&#xa3;" 
d="M340 238v354h-162v184h162v74q0 251 130 380.5t380 129.5h395v-236h-348q-143 0 -211 -67.5t-68 -208.5v-72h605v-184h-605v-354h721v-238h-1161v238h162z" />
    <glyph glyph-name="currency" unicode="&#xa4;" horiz-adv-x="1166" 
d="M584 289q-59 0 -106.5 14.5t-80.5 34.5l-170 -170l-155 158l168 168q-50 89 -50 186q0 56 14.5 100t35.5 86l-168 168l155 158l170 -170q86 49 185 49q100 0 186 -49l170 170l156 -158l-168 -168q20 -39 34.5 -84.5t14.5 -101.5t-14 -100t-35 -86l168 -168l-156 -158
l-170 170q-82 -49 -184 -49zM731 766q-23 39 -62.5 61.5t-86.5 22.5t-86 -22.5t-61.5 -61.5t-22.5 -86t22.5 -86t61.5 -61.5t86 -22.5t86.5 22.5t62.5 61.5t23 86t-23 86z" />
    <glyph glyph-name="yen" unicode="&#xa5;" 
d="M590 0v293h-447v184h447v47l-68 117h-379v184h273l-314 535h306l321 -602l324 602h299l-314 -535h273v-184h-379l-68 -117v-47h447v-184h-447v-293h-274z" />
    <glyph glyph-name="brokenbar" unicode="&#xa6;" horiz-adv-x="728" 
d="M467 1614v-746h-207v746h207zM467 492v-746h-207v746h207z" />
    <glyph glyph-name="section" unicode="&#xa7;" 
d="M844 -92q133 0 133 133q0 65 -33.5 98t-99.5 33h-281q-188 0 -285.5 97t-97.5 286q0 77 18 145.5t50 112.5q-16 7 -31.5 70t-15.5 118q0 171 94 265t264 94h670v-234h-627q-64 0 -94.5 -30t-30.5 -95q0 -64 30 -94t95 -30h289q188 0 285.5 -97.5t97.5 -285.5
q0 -77 -18 -145.5t-50 -112.5q16 -8 31.5 -73t15.5 -122q0 -115 -43.5 -197.5t-126 -126t-198.5 -43.5h-674v234h633zM974.5 604q-37.5 37 -124.5 37h-277q-29 0 -67 7t-41 14q-11 -20 -17 -46t-6 -51q0 -84 38 -120.5t124 -36.5h277q29 0 67 -7.5t41 -13.5q11 20 17 45.5
t6 48.5q0 86 -37.5 123z" />
    <glyph glyph-name="dieresis" unicode="&#xa8;" 
d="M676 1360v-238h-217v238h217zM995 1360v-238h-217v238h217z" />
    <glyph glyph-name="copyright" unicode="&#xa9;" horiz-adv-x="1560" 
d="M422.5 68q-161.5 93 -254 254.5t-92.5 357.5q0 197 92.5 358t253 253.5t356.5 92.5q197 0 358.5 -92.5t254 -253.5t92.5 -358q0 -196 -92.5 -357.5t-253.5 -254.5t-357 -93t-357.5 93zM1074 173q133 77 209.5 210.5t76.5 296.5t-76.5 296.5t-209 210.5t-294.5 77
t-295 -77t-209.5 -210.5t-76.5 -296.5t76.5 -296.5t209 -210.5t293.5 -77q163 0 296 77zM494 377q-103 103 -103 303t103 302.5t303 102.5h239v-167h-196q-89 0 -140.5 -23t-74.5 -74.5t-23 -140.5t23 -140.5t74.5 -74.5t140.5 -23h200v-168h-243q-200 0 -303 103z" />
    <glyph glyph-name="ordfeminine" unicode="&#xaa;" horiz-adv-x="861" 
d="M132.5 730.5q-56.5 56.5 -56.5 162.5q0 104 56.5 160.5t162.5 56.5h244v20q0 45 -19 63.5t-63 18.5h-340v148h403q111 0 166 -54.5t55 -164.5v-467h-446q-106 0 -162.5 56.5zM289 893q0 -37 17 -54.5t54 -17.5h179v144h-179q-71 0 -71 -72z" />
    <glyph glyph-name="guillemotleft" unicode="&#xab;" horiz-adv-x="1111" 
d="M332 958h217l-137 -452l137 -453h-217l-182 453zM743 958h218l-138 -452l138 -451l-218 -2l-182 453z" />
    <glyph glyph-name="logicalnot" unicode="&#xac;" 
d="M188 811v201h1053v-664h-209v463h-844z" />
    <glyph glyph-name="registered" unicode="&#xae;" horiz-adv-x="787" 
d="M700.5 849q-44.5 -80 -124.5 -124.5t-183 -44.5t-183 44.5t-124.5 124.5t-44.5 183t44.5 183t124.5 124.5t183 44.5t183 -44.5t124.5 -124.5t44.5 -183t-44.5 -183zM625.5 1176.5q-31.5 61.5 -91 95t-141.5 33.5t-141.5 -33.5t-91 -95t-31.5 -144.5q0 -125 70 -198.5
t194 -73.5t194 73.5t70 198.5q0 83 -31.5 144.5zM350 971v-125h-102v373h192q59 0 91 -32.5t32 -92.5q0 -51 -20 -77.5t-43 -35.5l82 -135h-117l-74 125h-41zM445.5 1064q11.5 11 11.5 30q0 20 -11.5 31.5t-31.5 11.5h-64v-84h64q20 0 31.5 11z" />
    <glyph glyph-name="macron" unicode="&#xaf;" 
d="M1051 1319v-176h-648v176h648z" />
    <glyph glyph-name="degree" unicode="&#xb0;" horiz-adv-x="970" 
d="M767 902q-42 -72 -116 -112t-166 -40t-166 39.5t-116.5 111.5t-42.5 164q0 91 42 163t116 112t165 40q92 0 166.5 -39.5t117 -111.5t42.5 -164q0 -91 -42 -163zM590.5 1171.5q-42.5 42.5 -107.5 42.5q-63 0 -105 -42.5t-42 -106.5q0 -42 19 -76.5t53 -54t75 -19.5
q42 0 76.5 19.5t54 54t19.5 76.5q0 64 -42.5 106.5z" />
    <glyph glyph-name="plusminus" unicode="&#xb1;" 
d="M623 313v420h-422v201h422v422h208v-422h422v-201h-422v-420h-208zM1253 201v-201h-1052v201h1052z" />
    <glyph glyph-name="uni00B2" unicode="&#xb2;" horiz-adv-x="947" 
d="M202.5 1042.5q52.5 51.5 149.5 51.5h197q33 0 47 13.5t14 45.5q0 33 -14 46t-47 13h-379v148h436q100 0 153.5 -52t53.5 -153q0 -102 -53 -153.5t-154 -51.5h-178q-33 0 -48.5 -6t-21.5 -21.5t-6 -48.5v-47h461v-147h-663v215q0 96 52.5 147.5z" />
    <glyph glyph-name="uni00B3" unicode="&#xb3;" horiz-adv-x="947" 
d="M530 827q34 0 49 14.5t15 47.5q0 32 -15 46.5t-49 14.5h-321v144h295q33 0 47 13.5t14 45.5q0 33 -14 47t-47 14h-348v146h419q87 0 139 -47.5t52 -134.5q0 -63 -21.5 -94.5t-52.5 -51.5q18 -4 43 -21t44.5 -50.5t19.5 -81.5q0 -100 -56.5 -149.5t-158.5 -49.5h-437v147
h383z" />
    <glyph glyph-name="acute" unicode="&#xb4;" 
d="M952 1360l-209 -279h-241l153 279h297z" />
    <glyph glyph-name="uni00B5" unicode="&#xb5;" horiz-adv-x="1211" 
d="M117 999h274v-587q0 -105 46.5 -151t150.5 -46h219v784h274v-999h-549q-88 0 -139 10v-338h-276v1327z" />
    <glyph glyph-name="paragraph" unicode="&#xb6;" 
d="M831 1184v-1512h-186v682h-35q-160 0 -273 58.5t-172 171.5t-59 274q0 160 58.5 272.5t171 171t272.5 58.5h774v-176h-178v-1512h-186v1512h-187z" />
    <glyph glyph-name="periodcentered" unicode="&#xb7;" horiz-adv-x="683" 
d="M483 643v-287h-284v287h284z" />
    <glyph glyph-name="cedilla" unicode="&#xb8;" 
d="M690 -152q32 0 46 14t14 48v90h208v-123q0 -98 -45 -143t-143 -45h-274v159h194z" />
    <glyph glyph-name="uni00B9" unicode="&#xb9;" horiz-adv-x="607" 
d="M125 1210v150h305v-680h-203v530h-102z" />
    <glyph glyph-name="ordmasculine" unicode="&#xba;" horiz-adv-x="906" 
d="M729 748.5q-98 -89.5 -276 -89.5q-179 0 -277 89.5t-98 269.5t98 269t277 89q178 0 276 -89t98 -269t-98 -269.5zM571.5 870q40.5 47 40.5 148q0 100 -40 147t-119 47q-160 0 -160 -194q0 -100 40 -147.5t120 -47.5q78 0 118.5 47z" />
    <glyph glyph-name="guillemotright" unicode="&#xbb;" horiz-adv-x="1111" 
d="M150 958h217l182 -452l-182 -453h-217l137 453zM561 958h217l183 -452l-183 -453h-217l137 453z" />
    <glyph glyph-name="onequarter" unicode="&#xbc;" horiz-adv-x="1891" 
d="M141 1210v150h305v-680h-202v530h-103zM1309 1360l-779 -1360h-198l778 1360h199zM926 139v142l420 399h284v-399h119v-142h-119v-139h-203v139h-501zM1427 281v280l-294 -280h294z" />
    <glyph glyph-name="onehalf" unicode="&#xbd;" horiz-adv-x="1891" 
d="M178 1210v150h305v-680h-202v530h-103zM1264 1360l-779 -1360h-198l778 1360h199zM1099.5 362.5q52.5 51.5 149.5 51.5h197q33 0 47 13.5t14 45.5q0 33 -14 46t-47 13h-379v148h436q100 0 153.5 -52t53.5 -153q0 -102 -53 -153.5t-154 -51.5h-178q-33 0 -48.5 -5.5
t-21.5 -21t-6 -48.5v-48h461v-147h-663v215q0 96 52.5 147.5z" />
    <glyph glyph-name="threequarters" unicode="&#xbe;" horiz-adv-x="1891" 
d="M494 827q34 0 48.5 14t14.5 48q0 32 -14.5 46.5t-48.5 14.5h-322v144h295q33 0 47 13.5t14 45.5q0 33 -14 47t-47 14h-348v146h420q86 0 138 -47.5t52 -134.5q0 -63 -21.5 -94.5t-52.5 -51.5q18 -4 43 -21t44.5 -50.5t19.5 -81.5q0 -100 -56.5 -149.5t-158.5 -49.5h-436
v147h383zM1419 1360l-778 -1360h-199l779 1360h198zM954 139v142l420 399h285v-399h119v-142h-119v-139h-203v139h-502zM1456 281v280l-295 -280h295z" />
    <glyph glyph-name="questiondown" unicode="&#xbf;" horiz-adv-x="1304" 
d="M1032 999v-286h-276v286h276zM255 -260.5q-99 99.5 -99 295.5q0 195 99 294t294 99h61q59 0 90 12.5t43.5 43.5t12.5 89v31h276v-61q0 -134 -33 -210t-109 -109.5t-210 -33.5h-74q-79 0 -118 -38.5t-39 -118.5t37.5 -118t117.5 -38h531v-237h-586q-195 0 -294 99.5z" />
    <glyph glyph-name="Agrave" unicode="&#xc0;" horiz-adv-x="1360" 
d="M643 1720l154 -278h-242l-209 278h297zM397 295l-104 -295h-301l524 1360h328l524 -1360h-309l-105 295h-557zM874 528l-198 570l-201 -570h399z" />
    <glyph glyph-name="Aacute" unicode="&#xc1;" horiz-adv-x="1360" 
d="M1006 1720l-209 -278h-242l154 278h297zM397 295l-104 -295h-301l524 1360h328l524 -1360h-309l-105 295h-557zM874 528l-198 570l-201 -570h399z" />
    <glyph glyph-name="Acircumflex" unicode="&#xc2;" horiz-adv-x="1360" 
d="M571 1442h-241l211 278h270l211 -278h-240l-106 147zM397 295l-104 -295h-301l524 1360h328l524 -1360h-309l-105 295h-557zM874 528l-198 570l-201 -570h399z" />
    <glyph glyph-name="Atilde" unicode="&#xc3;" horiz-adv-x="1360" 
d="M542 1499q-12 -4 -16 -15.5t-4 -37.5v-14h-170v110q0 73 31.5 105t103.5 32h283q26 0 38.5 4.5t16.5 16t4 37.5v14h170v-111q0 -74 -30.5 -105.5t-104.5 -31.5h-284q-26 0 -38 -4zM397 295l-104 -295h-301l524 1360h328l524 -1360h-309l-105 295h-557zM874 528l-198 570
l-201 -570h399z" />
    <glyph glyph-name="Adieresis" unicode="&#xc4;" horiz-adv-x="1360" 
d="M625 1720v-237h-217v237h217zM944 1720v-237h-217v237h217zM397 295l-104 -295h-301l524 1360h328l524 -1360h-309l-105 295h-557zM874 528l-198 570l-201 -570h399z" />
    <glyph glyph-name="Aring" unicode="&#xc5;" horiz-adv-x="1360" 
d="M864.5 1475q-57.5 -52 -188.5 -52t-188.5 52t-57.5 170q0 116 57.5 168.5t188.5 52.5t188.5 -52.5t57.5 -168.5q0 -118 -57.5 -170zM763 1705.5q-7 19.5 -26.5 26.5t-60.5 7t-60.5 -7t-26.5 -26.5t-7 -60.5t7 -60.5t26.5 -27t60.5 -7.5t60.5 7.5t26.5 27t7 60.5t-7 60.5z
M397 295l-104 -295h-301l524 1360h328l524 -1360h-309l-105 295h-557zM874 528l-198 570l-201 -570h399z" />
    <glyph glyph-name="AE" unicode="&#xc6;" horiz-adv-x="2058" 
d="M1339.5 38q-90.5 38 -139.5 101h-4v-139h-256v307h-520l-193 -307h-325l915 1360h379v-141h4q53 66 141 103.5t244 37.5h338v-238h-297q-134 0 -220 -30.5t-133.5 -97.5t-62.5 -179l-2 -12h697v-238h-697l2 -12q15 -114 60 -182.5t130.5 -100.5t223.5 -32h320v-238h-359
q-155 0 -245.5 38zM940 541v594l-375 -594h375z" />
    <glyph glyph-name="Ccedilla" unicode="&#xc7;" horiz-adv-x="1226" 
d="M905 -265.5q-45 -45.5 -143 -45.5h-281v159h195q33 0 47 14t14 48v90h-8q-320 0 -481.5 167.5t-161.5 512.5q0 347 162.5 513.5t499.5 166.5h409v-238h-350q-159 0 -252 -43.5t-134.5 -139.5t-41.5 -259q0 -164 41 -259.5t134 -139t253 -43.5h358v-238h-215v-123
q0 -97 -45 -142.5z" />
    <glyph glyph-name="Egrave" unicode="&#xc8;" horiz-adv-x="1281" 
d="M717 1720l153 -278h-241l-209 278h297zM248 166.5q-162 166.5 -162 513.5t162 513.5t502 166.5h395v-238h-340q-139 0 -225 -31.5t-132 -100.5t-61 -187h739v-238h-739q12 -117 58 -188.5t133.5 -105t226.5 -33.5h360v-238h-415q-340 0 -502 166.5z" />
    <glyph glyph-name="Eacute" unicode="&#xc9;" horiz-adv-x="1281" 
d="M1079 1720l-209 -278h-241l153 278h297zM248 166.5q-162 166.5 -162 513.5t162 513.5t502 166.5h395v-238h-340q-139 0 -225 -31.5t-132 -100.5t-61 -187h739v-238h-739q12 -117 58 -188.5t133.5 -105t226.5 -33.5h360v-238h-415q-340 0 -502 166.5z" />
    <glyph glyph-name="Ecircumflex" unicode="&#xca;" horiz-adv-x="1281" 
d="M645 1442h-242l211 278h271l211 -278h-240l-106 147zM248 166.5q-162 166.5 -162 513.5t162 513.5t502 166.5h395v-238h-340q-139 0 -225 -31.5t-132 -100.5t-61 -187h739v-238h-739q12 -117 58 -188.5t133.5 -105t226.5 -33.5h360v-238h-415q-340 0 -502 166.5z" />
    <glyph glyph-name="Edieresis" unicode="&#xcb;" horiz-adv-x="1281" 
d="M698 1720v-237h-217v237h217zM1018 1720v-237h-217v237h217zM248 166.5q-162 166.5 -162 513.5t162 513.5t502 166.5h395v-238h-340q-139 0 -225 -31.5t-132 -100.5t-61 -187h739v-238h-739q12 -117 58 -188.5t133.5 -105t226.5 -33.5h360v-238h-415q-340 0 -502 166.5z
" />
    <glyph glyph-name="Igrave" unicode="&#xcc;" horiz-adv-x="590" 
d="M262 1720l154 -278h-242l-209 278h297zM434 1360v-1360h-278v1360h278z" />
    <glyph glyph-name="Iacute" unicode="&#xcd;" horiz-adv-x="591" 
d="M625 1720l-209 -278h-242l154 278h297zM434 1360v-1360h-278v1360h278z" />
    <glyph glyph-name="Icircumflex" unicode="&#xce;" horiz-adv-x="590" 
d="M190 1442h-241l211 278h270l211 -278h-240l-106 147zM434 1360v-1360h-278v1360h278z" />
    <glyph glyph-name="Idieresis" unicode="&#xcf;" horiz-adv-x="591" 
d="M244 1720v-237h-217v237h217zM563 1720v-237h-217v237h217zM434 1360v-1360h-278v1360h278z" />
    <glyph glyph-name="Eth" unicode="&#xd0;" horiz-adv-x="1486" 
d="M20 588v194h136v578h581q339 0 500.5 -165t161.5 -515t-161.5 -515t-500.5 -165h-581v588h-136zM680 238q159 0 251.5 43t133.5 139t41 260t-41 260t-133.5 139t-251.5 43h-246v-340h332v-194h-332v-350h246z" />
    <glyph glyph-name="Ntilde" unicode="&#xd1;" horiz-adv-x="1500" 
d="M681.5 1499q-11.5 -4 -15.5 -15.5t-4 -37.5v-14h-170v110q0 74 31 105.5t104 31.5h282q27 0 39 4.5t16.5 16t4.5 37.5v14h170v-111q0 -74 -31 -105.5t-104 -31.5h-285q-26 0 -37.5 -4zM422 0h-266v1360h356l565 -991v991h266v-1360h-346l-575 1012v-1012z" />
    <glyph glyph-name="Ograve" unicode="&#xd2;" horiz-adv-x="1541" 
d="M737 1720l154 -278h-242l-209 278h297zM260.5 155.5q-174.5 178.5 -174.5 524.5q0 347 173.5 524.5t510.5 177.5q336 0 510 -178t174 -524q0 -347 -173.5 -525t-510.5 -178q-335 0 -509.5 178.5zM1062 329q99 112 99 351q0 240 -98 351.5t-293 111.5q-193 0 -292 -112
t-99 -351q0 -240 98 -351.5t293 -111.5q193 0 292 112z" />
    <glyph glyph-name="Oacute" unicode="&#xd3;" horiz-adv-x="1541" 
d="M1100 1720l-209 -278h-242l154 278h297zM260.5 155.5q-174.5 178.5 -174.5 524.5q0 347 173.5 524.5t510.5 177.5q336 0 510 -178t174 -524q0 -347 -173.5 -525t-510.5 -178q-335 0 -509.5 178.5zM1062 329q99 112 99 351q0 240 -98 351.5t-293 111.5q-193 0 -292 -112
t-99 -351q0 -240 98 -351.5t293 -111.5q193 0 292 112z" />
    <glyph glyph-name="Ocircumflex" unicode="&#xd4;" horiz-adv-x="1541" 
d="M666 1442h-242l211 278h270l211 -278h-239l-107 147zM260.5 155.5q-174.5 178.5 -174.5 524.5q0 347 173.5 524.5t510.5 177.5q336 0 510 -178t174 -524q0 -347 -173.5 -525t-510.5 -178q-335 0 -509.5 178.5zM1062 329q99 112 99 351q0 240 -98 351.5t-293 111.5
q-193 0 -292 -112t-99 -351q0 -240 98 -351.5t293 -111.5q193 0 292 112z" />
    <glyph glyph-name="Otilde" unicode="&#xd5;" horiz-adv-x="1541" 
d="M636.5 1499q-11.5 -4 -16 -16t-4.5 -37v-14h-170v110q0 73 31.5 105t104.5 32h282q27 0 39 4.5t16.5 16t4.5 37.5v14h170v-111q0 -74 -31 -105.5t-105 -31.5h-284q-26 0 -37.5 -4zM260.5 155.5q-174.5 178.5 -174.5 524.5q0 347 173.5 524.5t510.5 177.5q336 0 510 -178
t174 -524q0 -347 -173.5 -525t-510.5 -178q-335 0 -509.5 178.5zM1062 329q99 112 99 351q0 240 -98 351.5t-293 111.5q-193 0 -292 -112t-99 -351q0 -240 98 -351.5t293 -111.5q193 0 292 112z" />
    <glyph glyph-name="Odieresis" unicode="&#xd6;" horiz-adv-x="1541" 
d="M719 1720v-237h-217v237h217zM1038 1720v-237h-217v237h217zM260.5 155.5q-174.5 178.5 -174.5 524.5q0 347 173.5 524.5t510.5 177.5q336 0 510 -178t174 -524q0 -347 -173.5 -525t-510.5 -178q-335 0 -509.5 178.5zM1062 329q99 112 99 351q0 240 -98 351.5t-293 111.5
q-193 0 -292 -112t-99 -351q0 -240 98 -351.5t293 -111.5q193 0 292 112z" />
    <glyph glyph-name="multiply" unicode="&#xd7;" 
d="M426 238l-141 141l301 301l-301 299l143 143l299 -301l301 301l141 -141l-301 -301l301 -299l-143 -143l-299 301z" />
    <glyph glyph-name="Oslash" unicode="&#xd8;" horiz-adv-x="1541" 
d="M1454 680q0 -347 -173.5 -525t-510.5 -178q-235 0 -389 86l-72 -86h-260l178 213q-141 176 -141 490q0 347 173.5 524.5t510.5 177.5q230 0 383 -84l70 84h260l-176 -208q147 -175 147 -494zM420 422l563 674q-89 47 -213 47q-193 0 -292 -112t-99 -351q0 -156 41 -258z
M1062 329q99 112 99 351q0 155 -45 264l-565 -678q85 -49 219 -49q193 0 292 112z" />
    <glyph glyph-name="Ugrave" unicode="&#xd9;" horiz-adv-x="1465" 
d="M698 1720l154 -278h-242l-209 278h297zM280 130q-130 130 -130 392v838h278v-803q0 -119 31 -188t100 -100t189 -31h280v1122h281v-1360h-637q-262 0 -392 130z" />
    <glyph glyph-name="Uacute" unicode="&#xda;" horiz-adv-x="1465" 
d="M1061 1720l-209 -278h-242l154 278h297zM280 130q-130 130 -130 392v838h278v-803q0 -119 31 -188t100 -100t189 -31h280v1122h281v-1360h-637q-262 0 -392 130z" />
    <glyph glyph-name="Ucircumflex" unicode="&#xdb;" horiz-adv-x="1465" 
d="M627 1442h-242l211 278h270l211 -278h-239l-107 147zM280 130q-130 130 -130 392v838h278v-803q0 -119 31 -188t100 -100t189 -31h280v1122h281v-1360h-637q-262 0 -392 130z" />
    <glyph glyph-name="Udieresis" unicode="&#xdc;" horiz-adv-x="1465" 
d="M680 1720v-237h-217v237h217zM999 1720v-237h-217v237h217zM280 130q-130 130 -130 392v838h278v-803q0 -119 31 -188t100 -100t189 -31h280v1122h281v-1360h-637q-262 0 -392 130z" />
    <glyph glyph-name="Yacute" unicode="&#xdd;" horiz-adv-x="1276" 
d="M971 1720l-209 -278h-242l154 278h297zM8 1360h305l328 -594l328 594h299l-492 -840v-520h-278v520z" />
    <glyph glyph-name="Thorn" unicode="&#xde;" horiz-adv-x="1365" 
d="M156 0v1360h278v-225h391q221 0 337 -113t116 -332q0 -217 -116 -329.5t-335 -112.5h-393v-248h-278zM932 535q53 52 53 155q0 207 -207 207h-344v-414h342q103 0 156 52z" />
    <glyph glyph-name="germandbls" unicode="&#xdf;" horiz-adv-x="1320" 
d="M731 207q234 0 234 235q0 234 -234 234h-160v209l172 -2q68 0 103 35.5t35 101.5t-34.5 100.5t-101.5 34.5h-170q-62 0 -87 -25.5t-25 -87.5v-1042h-275v793h-151v206h149v52q0 113 31 180t98.5 98t180.5 31h327q98 0 172.5 -37.5t116 -111.5t41.5 -179
q0 -74 -21.5 -121.5t-48.5 -71t-49 -30.5q38 -14 85.5 -50.5t87.5 -116.5t40 -204q0 -135 -53.5 -233.5t-153.5 -151.5t-235 -53h-234v207h160z" />
    <glyph glyph-name="agrave" unicode="&#xe0;" horiz-adv-x="1164" 
d="M539 1360l153 -279h-241l-209 279h297zM158 82.5q-82 82.5 -82 232.5q0 151 82 233.5t233 82.5h381v22q0 76 -31 107t-106 31h-494v208h504q143 0 231 -41.5t129.5 -129.5t41.5 -230v-598h-656q-151 0 -233 82.5zM382.5 397.5q-28.5 -28.5 -28.5 -82.5q0 -53 28.5 -81.5
t82.5 -28.5h311v221h-311q-54 0 -82.5 -28.5z" />
    <glyph glyph-name="aacute" unicode="&#xe1;" horiz-adv-x="1164" 
d="M901 1360l-209 -279h-241l153 279h297zM158 82.5q-82 82.5 -82 232.5q0 151 82 233.5t233 82.5h381v22q0 76 -31 107t-106 31h-494v208h504q143 0 231 -41.5t129.5 -129.5t41.5 -230v-598h-656q-151 0 -233 82.5zM382.5 397.5q-28.5 -28.5 -28.5 -82.5q0 -53 28.5 -81.5
t82.5 -28.5h311v221h-311q-54 0 -82.5 -28.5z" />
    <glyph glyph-name="acircumflex" unicode="&#xe2;" horiz-adv-x="1164" 
d="M467 1081h-242l211 279h271l211 -279h-240l-107 148zM158 82.5q-82 82.5 -82 232.5q0 151 82 233.5t233 82.5h381v22q0 76 -31 107t-106 31h-494v208h504q143 0 231 -41.5t129.5 -129.5t41.5 -230v-598h-656q-151 0 -233 82.5zM382.5 397.5q-28.5 -28.5 -28.5 -82.5
q0 -53 28.5 -81.5t82.5 -28.5h311v221h-311q-54 0 -82.5 -28.5z" />
    <glyph glyph-name="atilde" unicode="&#xe3;" horiz-adv-x="1164" 
d="M437.5 1139q-11.5 -4 -15.5 -16t-4 -38v-14h-170v111q0 73 31.5 105t103.5 32h283q27 0 39 4t16 15.5t4 37.5v15h170v-111q0 -74 -31 -105.5t-104 -31.5h-285q-26 0 -37.5 -4zM158 82.5q-82 82.5 -82 232.5q0 151 82 233.5t233 82.5h381v22q0 76 -31 107t-106 31h-494
v208h504q143 0 231 -41.5t129.5 -129.5t41.5 -230v-598h-656q-151 0 -233 82.5zM382.5 397.5q-28.5 -28.5 -28.5 -82.5q0 -53 28.5 -81.5t82.5 -28.5h311v221h-311q-54 0 -82.5 -28.5z" />
    <glyph glyph-name="adieresis" unicode="&#xe4;" horiz-adv-x="1164" 
d="M520 1360v-238h-217v238h217zM840 1360v-238h-217v238h217zM158 82.5q-82 82.5 -82 232.5q0 151 82 233.5t233 82.5h381v22q0 76 -31 107t-106 31h-494v208h504q143 0 231 -41.5t129.5 -129.5t41.5 -230v-598h-656q-151 0 -233 82.5zM382.5 397.5
q-28.5 -28.5 -28.5 -82.5q0 -53 28.5 -81.5t82.5 -28.5h311v221h-311q-54 0 -82.5 -28.5z" />
    <glyph glyph-name="aring" unicode="&#xe5;" horiz-adv-x="1164" 
d="M760 1114.5q-57 -51.5 -189 -51.5q-131 0 -188 51.5t-57 169.5q0 116 57 168.5t188 52.5q132 0 189 -52.5t57 -168.5q0 -118 -57 -169.5zM659 1345q-7 19 -26.5 26t-61.5 7q-41 0 -60.5 -7t-26.5 -26.5t-7 -60.5t7 -60t26.5 -26.5t60.5 -7.5t61 7.5t27 26.5t7 60
q0 42 -7 61zM158 82.5q-82 82.5 -82 232.5q0 151 82 233.5t233 82.5h381v22q0 76 -31 107t-106 31h-494v208h504q143 0 231 -41.5t129.5 -129.5t41.5 -230v-598h-656q-151 0 -233 82.5zM382.5 397.5q-28.5 -28.5 -28.5 -82.5q0 -53 28.5 -81.5t82.5 -28.5h311v221h-311
q-54 0 -82.5 -28.5z" />
    <glyph glyph-name="ae" unicode="&#xe6;" horiz-adv-x="1732" 
d="M1048 31q-64 31 -98 73v-104h-569q-145 0 -225 79.5t-80 223.5q0 146 79 225.5t224 79.5h383v45q0 76 -31 107t-106 31h-484v208h496q127 0 191 -28.5t100 -77.5h4q40 44 111 75t206 31h371v-206h-332q-124 0 -182 -45t-70 -140h574v-202h-574q6 -98 64.5 -147.5
t187.5 -49.5h340v-209h-385q-131 0 -195 31zM379.5 380.5q-27.5 -27.5 -27.5 -75.5q0 -46 27.5 -73t73.5 -27h311l2 203h-311q-48 0 -75.5 -27.5z" />
    <glyph glyph-name="ccedilla" unicode="&#xe7;" horiz-adv-x="994" 
d="M721 -266q-45 -45 -143 -45h-275v159h197q32 0 45.5 14.5t13.5 47.5v90q-238 3 -362.5 129.5t-124.5 370.5q0 245 127 372t372 127h342v-211h-270q-152 0 -221.5 -68.5t-69.5 -219.5q0 -152 68.5 -220.5t220.5 -68.5h285v-211h-160v-123q0 -98 -45 -143z" />
    <glyph glyph-name="egrave" unicode="&#xe8;" horiz-adv-x="1054" 
d="M596 1360l154 -279h-242l-209 279h297zM199 127q-127 127 -127 373q0 245 127 372t372 127h371v-206h-336q-124 0 -183 -45t-71 -140h582v-205h-582q5 -93 65 -143.5t189 -50.5h344v-209h-379q-245 0 -372 127z" />
    <glyph glyph-name="eacute" unicode="&#xe9;" horiz-adv-x="1054" 
d="M958 1360l-208 -279h-242l154 279h296zM199 127q-127 127 -127 373q0 245 127 372t372 127h371v-206h-336q-124 0 -183 -45t-71 -140h582v-205h-582q5 -93 65 -143.5t189 -50.5h344v-209h-379q-245 0 -372 127z" />
    <glyph glyph-name="ecircumflex" unicode="&#xea;" horiz-adv-x="1054" 
d="M524 1081h-241l211 279h270l211 -279h-240l-106 148zM199 127q-127 127 -127 373q0 245 127 372t372 127h371v-206h-336q-124 0 -183 -45t-71 -140h582v-205h-582q5 -93 65 -143.5t189 -50.5h344v-209h-379q-245 0 -372 127z" />
    <glyph glyph-name="edieresis" unicode="&#xeb;" horiz-adv-x="1054" 
d="M578 1360v-238h-218v238h218zM897 1360v-238h-217v238h217zM199 127q-127 127 -127 373q0 245 127 372t372 127h371v-206h-336q-124 0 -183 -45t-71 -140h582v-205h-582q5 -93 65 -143.5t189 -50.5h344v-209h-379q-245 0 -372 127z" />
    <glyph glyph-name="igrave" unicode="&#xec;" horiz-adv-x="532" 
d="M233 1360l154 -279h-242l-208 279h296zM403 999v-999h-274v999h274z" />
    <glyph glyph-name="iacute" unicode="&#xed;" horiz-adv-x="533" 
d="M596 1360l-209 -279h-242l154 279h297zM403 999v-999h-274v999h274z" />
    <glyph glyph-name="icircumflex" unicode="&#xee;" horiz-adv-x="532" 
d="M162 1081h-242l211 279h270l211 -279h-239l-107 148zM403 999v-999h-274v999h274z" />
    <glyph glyph-name="idieresis" unicode="&#xef;" horiz-adv-x="532" 
d="M215 1360v-238h-217v238h217zM535 1360v-238h-218v238h218zM403 999v-999h-274v999h274z" />
    <glyph glyph-name="eth" unicode="&#xf0;" horiz-adv-x="1213" 
d="M1141 481q0 -166 -67 -279t-187.5 -169t-280.5 -56t-280 54t-187 165t-67 277q0 162 66.5 269t176 156.5t242.5 49.5q32 0 69.5 -7t69.5 -19q-5 11 -41.5 47.5t-60.5 58.5l-21 19l-49 43l-196 -107l-56 104l146 80q-5 6 -30 22.5t-34 23.5l-35 24l123 145
q148 -81 189 -114l186 100l55 -104l-135 -74l41 -35q363 -307 363 -674zM793.5 263q68.5 73 68.5 206q0 135 -68.5 208t-187.5 73q-118 0 -187 -73.5t-69 -207.5q0 -133 69 -206t187 -73q119 0 187.5 73z" />
    <glyph glyph-name="ntilde" unicode="&#xf1;" horiz-adv-x="1220" 
d="M476.5 1139q-11.5 -4 -15.5 -16t-4 -38v-14h-170v111q0 73 31.5 105t103.5 32h283q27 0 39 4t16 15.5t4 37.5v15h170v-111q0 -74 -31 -105.5t-104 -31.5h-285q-26 0 -37.5 -4zM781 738q-46 46 -150 46h-228v-784h-274v999h559q145 0 236 -43.5t134.5 -134t43.5 -235.5
v-586h-275v588q0 104 -46 150z" />
    <glyph glyph-name="ograve" unicode="&#xf2;" horiz-adv-x="1242" 
d="M588 1360l153 -279h-241l-209 279h297zM1027 107.5q-142 -127.5 -406 -127.5t-406.5 127.5t-142.5 392.5t142.5 392.5t406.5 127.5t406 -127.5t142 -392.5t-142 -392.5zM824 269.5q67 76.5 67 230.5t-67 230.5t-203 76.5q-137 0 -204 -76.5t-67 -230.5t67 -230.5
t204 -76.5q136 0 203 76.5z" />
    <glyph glyph-name="oacute" unicode="&#xf3;" horiz-adv-x="1242" 
d="M950 1360l-209 -279h-241l153 279h297zM1027 107.5q-142 -127.5 -406 -127.5t-406.5 127.5t-142.5 392.5t142.5 392.5t406.5 127.5t406 -127.5t142 -392.5t-142 -392.5zM824 269.5q67 76.5 67 230.5t-67 230.5t-203 76.5q-137 0 -204 -76.5t-67 -230.5t67 -230.5
t204 -76.5q136 0 203 76.5z" />
    <glyph glyph-name="ocircumflex" unicode="&#xf4;" horiz-adv-x="1242" 
d="M516 1081h-242l211 279h271l211 -279h-240l-106 148zM1027 107.5q-142 -127.5 -406 -127.5t-406.5 127.5t-142.5 392.5t142.5 392.5t406.5 127.5t406 -127.5t142 -392.5t-142 -392.5zM824 269.5q67 76.5 67 230.5t-67 230.5t-203 76.5q-137 0 -204 -76.5t-67 -230.5
t67 -230.5t204 -76.5q136 0 203 76.5z" />
    <glyph glyph-name="otilde" unicode="&#xf5;" horiz-adv-x="1242" 
d="M486.5 1139q-11.5 -4 -15.5 -16t-4 -38v-14h-170v111q0 73 31.5 105t103.5 32h283q27 0 39 4t16 15.5t4 37.5v15h170v-111q0 -74 -31 -105.5t-104 -31.5h-285q-26 0 -37.5 -4zM1027 107.5q-142 -127.5 -406 -127.5t-406.5 127.5t-142.5 392.5t142.5 392.5t406.5 127.5
t406 -127.5t142 -392.5t-142 -392.5zM824 269.5q67 76.5 67 230.5t-67 230.5t-203 76.5q-137 0 -204 -76.5t-67 -230.5t67 -230.5t204 -76.5q136 0 203 76.5z" />
    <glyph glyph-name="odieresis" unicode="&#xf6;" horiz-adv-x="1242" 
d="M569 1360v-238h-217v238h217zM889 1360v-238h-217v238h217zM1027 107.5q-142 -127.5 -406 -127.5t-406.5 127.5t-142.5 392.5t142.5 392.5t406.5 127.5t406 -127.5t142 -392.5t-142 -392.5zM824 269.5q67 76.5 67 230.5t-67 230.5t-203 76.5q-137 0 -204 -76.5
t-67 -230.5t67 -230.5t204 -76.5q136 0 203 76.5z" />
    <glyph glyph-name="divide" unicode="&#xf7;" 
d="M842 1231v-219h-230v219h230zM1253 780v-200h-1052v200h1052zM842 348v-219h-230v219h230z" />
    <glyph glyph-name="oslash" unicode="&#xf8;" horiz-adv-x="1242" 
d="M1169 500q0 -265 -142 -392.5t-406 -127.5q-182 0 -302 57l-51 -57h-237l147 163q-106 129 -106 357q0 265 142.5 392.5t406.5 127.5q170 0 294 -55l52 55h237l-145 -162q110 -130 110 -358zM369 356l383 426q-54 25 -131 25q-137 0 -204 -76.5t-67 -230.5q0 -87 19 -144
zM824 269.5q67 76.5 67 230.5q0 84 -23 147l-385 -428q53 -26 138 -26q136 0 203 76.5z" />
    <glyph glyph-name="ugrave" unicode="&#xf9;" horiz-adv-x="1211" 
d="M610 1360l154 -279h-242l-209 279h297zM296 43.5q-91 43.5 -135 134.5t-44 236v585h274v-587q0 -105 46.5 -151t150.5 -46h219v784h274v-999h-549q-145 0 -236 43.5z" />
    <glyph glyph-name="uacute" unicode="&#xfa;" horiz-adv-x="1211" 
d="M928 1360l-209 -279h-242l154 279h297zM296 43.5q-91 43.5 -135 134.5t-44 236v585h274v-587q0 -105 46.5 -151t150.5 -46h219v784h274v-999h-549q-145 0 -236 43.5z" />
    <glyph glyph-name="ucircumflex" unicode="&#xfb;" horiz-adv-x="1211" 
d="M494 1081h-242l211 279h270l211 -279h-239l-107 148zM296 43.5q-91 43.5 -135 134.5t-44 236v585h274v-587q0 -105 46.5 -151t150.5 -46h219v784h274v-999h-549q-145 0 -236 43.5z" />
    <glyph glyph-name="udieresis" unicode="&#xfc;" horiz-adv-x="1211" 
d="M547 1360v-238h-217v238h217zM866 1360v-238h-217v238h217zM296 43.5q-91 43.5 -135 134.5t-44 236v585h274v-587q0 -105 46.5 -151t150.5 -46h219v784h274v-999h-549q-145 0 -236 43.5z" />
    <glyph glyph-name="yacute" unicode="&#xfd;" horiz-adv-x="1108" 
d="M887 1360l-209 -279h-242l154 279h297zM6 999h279l272 -708l274 708h271l-533 -1327h-295l136 328z" />
    <glyph glyph-name="thorn" unicode="&#xfe;" horiz-adv-x="1213" 
d="M403 1360v-361h238q246 0 373 -127t127 -372q0 -246 -127 -373t-373 -127h-238v-328h-274v1688h274zM789.5 722.5q-70.5 70.5 -222.5 70.5h-164v-586h164q152 0 222.5 70.5t70.5 222.5t-70.5 222.5z" />
    <glyph glyph-name="ydieresis" unicode="&#xff;" horiz-adv-x="1108" 
d="M506 1360v-238h-217v238h217zM825 1360v-238h-217v238h217zM6 999h279l272 -708l274 708h271l-533 -1327h-295l136 328z" />
    <glyph glyph-name="dotlessi" unicode="&#x131;" horiz-adv-x="533" 
d="M403 999v-999h-274v999h274z" />
    <glyph glyph-name="Lslash" unicode="&#x141;" horiz-adv-x="1144" 
d="M428 1360v-463l375 139v-194l-375 -140v-145q0 -119 31 -188t100 -100t189 -31h348v-238h-424q-262 0 -392 130t-130 392v78l-130 -47v195l130 47v565h278z" />
    <glyph glyph-name="lslash" unicode="&#x142;" horiz-adv-x="533" 
d="M403 1360v-578l109 45v-180l-109 -45v-602h-274v494l-109 -43v178l109 43v688h274z" />
    <glyph glyph-name="OE" unicode="&#x152;" horiz-adv-x="2287" 
d="M1437.5 65q-111.5 65 -161.5 160h-4q-75 -111 -204.5 -179.5t-315.5 -68.5q-211 0 -360 79t-227.5 236t-78.5 388t78.5 388t227.5 235.5t360 78.5q184 0 313 -66t205 -181h4q50 94 162 159.5t342 65.5h372v-238h-321q-134 0 -219 -30.5t-131.5 -97t-61.5 -177.5l-2 -14
h715v-238h-715l2 -14q13 -110 56.5 -178t130 -101.5t227.5 -33.5h340v-238h-391q-231 0 -342.5 65zM1028.5 1028q-97.5 115 -276.5 115q-180 0 -276.5 -115t-96.5 -348t96.5 -348t276.5 -115q179 0 276.5 115t97.5 348t-97.5 348z" />
    <glyph glyph-name="oe" unicode="&#x153;" horiz-adv-x="1828" 
d="M1136 37.5q-84 37.5 -137 97.5h-4q-39 -44 -81 -76t-117 -55.5t-187 -23.5q-255 0 -396.5 127.5t-141.5 392.5q0 264 141.5 392t396.5 128q112 0 188.5 -24.5t120 -58.5t78.5 -77h4q51 66 129.5 102.5t221.5 36.5h364v-206h-323q-124 0 -184.5 -46t-71.5 -139h569v-205
h-569q6 -94 66 -144t188 -50h333v-209h-368q-136 0 -220 37.5zM801 271q65 78 65 229t-65 229t-193 78t-193 -78t-65 -229t65 -229t193 -78t193 78z" />
    <glyph glyph-name="Scaron" unicode="&#x160;" horiz-adv-x="1277" 
d="M555 1442l-211 278h242l104 -147l107 147h239l-211 -278h-270zM725 238q83 0 124.5 40.5t41.5 122.5q0 83 -41 123.5t-125 40.5h-233q-400 0 -400 400q0 199 99.5 297t300.5 98h636v-238h-581q-162 0 -162 -159q0 -79 40.5 -119.5t119.5 -40.5h231q200 0 304 -101.5
t104 -300.5t-103.5 -300t-302.5 -101h-653v238h600z" />
    <glyph glyph-name="scaron" unicode="&#x161;" horiz-adv-x="1045" 
d="M395 1081l-211 279h242l104 -148l107 148h240l-211 -279h-271zM594 207q47 0 71.5 24.5t24.5 71.5q0 94 -96 94h-207q-144 0 -224.5 78.5t-80.5 222.5t79.5 222.5t223.5 78.5h530v-208h-456q-99 0 -99 -93q0 -47 25.5 -70.5t73.5 -23.5h207q146 0 224.5 -78t78.5 -223
t-78.5 -224t-224.5 -79h-590v207h518z" />
    <glyph glyph-name="Ydieresis" unicode="&#x178;" horiz-adv-x="1276" 
d="M590 1720v-237h-217v237h217zM909 1720v-237h-217v237h217zM8 1360h305l328 -594l328 594h299l-492 -840v-520h-278v520z" />
    <glyph glyph-name="Zcaron" unicode="&#x17d;" horiz-adv-x="1336" 
d="M532 1442l-210 278h241l105 -147l106 147h240l-211 -278h-271zM877 1122h-773v238h1127v-227l-776 -895h782v-238h-1139v225z" />
    <glyph glyph-name="zcaron" unicode="&#x17e;" horiz-adv-x="1045" 
d="M385 1081l-211 279h242l104 -148l107 148h239l-211 -279h-270zM625 791h-555v208h905v-200l-582 -590h598v-209h-938v201z" />
    <glyph glyph-name="florin" unicode="&#x192;" 
d="M309 -59q44 0 68 8t37 29.5t20 64.5l125 719h-162v190h195l18 109q20 113 59 177.5t107.5 93t181.5 28.5h271v-205h-221q-43 0 -67.5 -9t-37.5 -31.5t-20 -65.5l-19 -95h295v-192h-325l-127 -723q-20 -114 -58 -179t-105.5 -94.5t-178.5 -29.5h-246v205h190z" />
    <glyph glyph-name="circumflex" unicode="&#x2c6;" 
d="M623 1081h-242l211 279h270l211 -279h-239l-107 148z" />
    <glyph glyph-name="caron" unicode="&#x2c7;" 
d="M592 1081l-211 279h242l104 -148l107 148h239l-211 -279h-270z" />
    <glyph glyph-name="breve" unicode="&#x2d8;" 
d="M1023.5 1173.5q-29.5 -67.5 -96 -91t-200.5 -23.5q-133 0 -199 23.5t-95.5 90.5t-37.5 209h164q6 -84 16 -116.5t42 -45t110 -12.5t110 12.5t42 45.5t14 116h166q-6 -141 -35.5 -208.5z" />
    <glyph glyph-name="dotaccent" unicode="&#x2d9;" 
d="M864 1360v-248h-274v248h274z" />
    <glyph glyph-name="ring" unicode="&#x2da;" 
d="M916 1115q-57 -52 -189 -52t-189 52t-57 169q0 116 57.5 168.5t188.5 52.5t188.5 -52.5t57.5 -168.5q0 -117 -57 -169zM814 1345q-7 19 -26 26t-61 7t-61 -7t-26 -26t-7 -61q0 -41 7 -60t26.5 -26.5t60.5 -7.5t60.5 7.5t26.5 26.5t7 60q0 42 -7 61z" />
    <glyph glyph-name="ogonek" unicode="&#x2db;" 
d="M541.5 -266q-45.5 45 -45.5 143v123h206v-90q0 -33 14.5 -47.5t47.5 -14.5h174v-159h-254q-97 0 -142.5 45z" />
    <glyph glyph-name="tilde" unicode="&#x2dc;" 
d="M593.5 1139q-11.5 -4 -16 -16t-4.5 -38v-14h-170v111q0 73 31.5 105t104.5 32h282q27 0 39 4t16.5 16t4.5 37v15h170v-111q0 -74 -31 -105.5t-105 -31.5h-284q-26 0 -37.5 -4z" />
    <glyph glyph-name="hungarumlaut" unicode="&#x2dd;" 
d="M752 1360l-207 -279h-242l154 279h295zM1151 1360l-209 -279h-242l154 279h297z" />
    <glyph glyph-name="Delta" unicode="&#x394;" horiz-adv-x="1253" 
d="M1262 0h-1270l635 1423zM899 227l-272 643l-275 -643h547z" />
    <glyph glyph-name="Omega" unicode="&#x3a9;" horiz-adv-x="1367" 
d="M934.5 410.5q83.5 133.5 83.5 316.5q0 191 -86.5 299.5t-247.5 108.5q-107 0 -182.5 -49t-114.5 -141t-39 -218q0 -183 84.5 -316t220.5 -204v-207h-567v238h182q-72 81 -124 203t-52 288q0 199 71 346t204.5 227t316.5 80q182 0 315 -80t204 -227.5t71 -345.5
q0 -173 -51.5 -295t-122.5 -196h180v-238h-565v207q136 70 219.5 203.5z" />
    <glyph glyph-name="mu" unicode="&#x3bc;" horiz-adv-x="1211" 
d="M117 999h274v-587q0 -105 46.5 -151t150.5 -46h219v784h274v-999h-549q-88 0 -139 10v-338h-276v1327z" />
    <glyph glyph-name="pi" unicode="&#x3c0;" horiz-adv-x="1197" 
d="M463 766v-766h-242v766h-153v233h1060v-233h-155v-766h-240v766h-270z" />
    <glyph glyph-name="afii57388" unicode="&#x60c;" horiz-adv-x="560" 
d="M467 510l-113 -510h-262l158 510h217z" />
    <glyph glyph-name="afii57403" unicode="&#x61b;" horiz-adv-x="560" 
d="M467 1223l-113 -510h-262l158 510h217zM385 287v-287h-272v287h272z" />
    <glyph glyph-name="afii57407" unicode="&#x61f;" horiz-adv-x="1396" 
d="M891 334v69q0 77 -33.5 113.5t-105.5 42.5q-78 6 -287 6q-224 0 -336.5 92t-112.5 301q0 154 50.5 242.5t157 127t284.5 38.5h715v-242h-615q-109 0 -163.5 -9t-81.5 -41.5t-27 -102.5q0 -80 30 -113.5t106 -42t261 -8.5q84 0 143.5 -7t104.5 -22q99 -33 150 -116.5
t51 -229.5v-98h-291zM891 0v231h291v-231h-291z" />
    <glyph glyph-name="afii57409" unicode="&#x621;" horiz-adv-x="687" 
d="M424 379q-48 0 -68 -20t-20 -66v-152h291v-141h-566v141h123v146q0 85 24.5 136t78 75t143.5 24h158v-143h-164z" />
    <glyph glyph-name="afii57410" unicode="&#x622;" horiz-adv-x="520" 
d="M133 0v1366h254v-1366h-254zM155 1802q49 -17 122 -50q62 -28 101 -42t70 -14q32 0 49 17.5t17 58.5h92q0 -93 -34.5 -138.5t-110.5 -45.5q-46 0 -100 17.5t-130 50.5q-64 27 -101.5 39.5t-64.5 12.5q-34 0 -51.5 -21t-17.5 -67h-95q0 94 43 146.5t119 52.5q43 0 92 -17z
" />
    <glyph glyph-name="afii57411" unicode="&#x623;" horiz-adv-x="479" 
d="M133 0v1366h254v-1366h-254zM284 1817q-37 0 -52 -14.5t-15 -51.5v-106h221v-117h-440v117h94v110q0 96 43.5 138t144.5 42h129v-118h-125z" />
    <glyph glyph-name="afii57412" unicode="&#x624;" horiz-adv-x="1121" 
d="M582 -209q74 0 112.5 20t53 64t14.5 125h-619v514q0 404 392 404h483v-857q0 -166 -33 -274.5t-123 -169.5t-256 -61h-315v235h291zM764 682h-166q-105 0 -153 -46t-48 -147v-253h367v446zM622 1436q-37 0 -52 -14.5t-15 -51.5v-106h221v-117h-440v117h94v110
q0 96 43.5 138t144.5 42h129v-118h-125z" />
    <glyph glyph-name="afii57413" unicode="&#x625;" horiz-adv-x="479" 
d="M133 0v1366h254v-1366h-254zM276 -338q-37 0 -52 -14.5t-15 -50.5v-107h221v-117h-440v117h94v111q0 96 43.5 138t144.5 42h129v-119h-125z" />
    <glyph glyph-name="afii57414" unicode="&#x626;" horiz-adv-x="1954" 
d="M1567 0v682h-121q-105 0 -153 -46t-48 -147v-378q0 -177 -68 -301.5t-200.5 -189t-321.5 -64.5t-321 64.5t-200 189t-68 301.5v528h253v-438q0 -192 75.5 -300t260.5 -108q186 0 261 107.5t75 300.5v313q0 404 393 404h437v-918h-254zM274 1080q-37 0 -52 -14.5
t-15 -51.5v-106h221v-117h-440v117h94v110q0 96 43.5 138t144.5 42h129v-118h-125z" />
    <glyph glyph-name="afii57415" unicode="&#x627;" horiz-adv-x="521" 
d="M133 0v1366h254v-1366h-254z" />
    <glyph glyph-name="afii57416" unicode="&#x628;" horiz-adv-x="1672" 
d="M457 0q-201 0 -296 102.5t-95 300.5v314h251v-289q0 -100 48 -146t153 -46h768v682h252v-918h-1081zM936 -137q30 -18 47.5 -48t17.5 -65q0 -36 -17.5 -66.5t-47.5 -48.5t-66 -18q-34 0 -64 18t-47.5 49t-17.5 66q0 34 17.5 64.5t47.5 48.5t64 18q36 0 66 -18z" />
    <glyph glyph-name="afii57417" unicode="&#x629;" horiz-adv-x="1074" 
d="M66 0v514q0 198 95.5 301t295.5 103h483v-918h-874zM365 636q-48 -46 -48 -147v-253h367v446h-166q-105 0 -153 -46zM454 1348q30 -18 47 -48.5t17 -66.5q0 -34 -17.5 -63.5t-47 -47.5t-64.5 -18t-65 18t-48 47.5t-18 63.5q0 36 17.5 66.5t48 48.5t65.5 18t65 -18z
M773 1348q30 -18 47.5 -48.5t17.5 -66.5q0 -33 -18 -63t-47.5 -48t-63.5 -18q-36 0 -67.5 18t-50 47.5t-18.5 63.5q0 36 18.5 66.5t50 48.5t67.5 18q34 0 64 -18z" />
    <glyph glyph-name="afii57418" unicode="&#x62a;" horiz-adv-x="1672" 
d="M457 0q-201 0 -296 102.5t-95 300.5v314h251v-289q0 -100 48 -146t153 -46h768v682h252v-918h-1081zM731 1213q30 -18 47 -48.5t17 -66.5q0 -34 -17.5 -63.5t-47 -47.5t-64.5 -18t-65 18t-48 47.5t-18 63.5q0 36 17.5 66.5t48 48.5t65.5 18t65 -18zM1050 1213
q30 -18 47.5 -48.5t17.5 -66.5q0 -33 -18 -63t-47.5 -48t-63.5 -18q-36 0 -67.5 18t-50 47.5t-18.5 63.5q0 36 18.5 66.5t50 48.5t67.5 18q34 0 64 -18z" />
    <glyph glyph-name="afii57419" unicode="&#x62b;" horiz-adv-x="1672" 
d="M457 0q-201 0 -296 102.5t-95 300.5v314h251v-289q0 -100 48 -146t153 -46h768v682h252v-918h-1081zM889.5 1487q29.5 -18 47 -48.5t17.5 -66.5q0 -33 -17.5 -63t-47.5 -48t-64 -18q-36 0 -67 18t-49.5 48t-18.5 63q0 36 18 66.5t49.5 48.5t67.5 18q35 0 64.5 -18z
M726 1213q30 -18 47 -48.5t17 -66.5q0 -34 -17.5 -63.5t-47 -47.5t-64.5 -18t-65 18t-48 47.5t-18 63.5q0 36 17.5 66.5t48 48.5t65.5 18t65 -18zM1046 1213.5q30 -17.5 48 -48t18 -65.5q0 -34 -18 -64.5t-48 -48.5t-65 -18t-64.5 18t-47 48t-17.5 65t17 65.5t47 48t65 17.5
t65 -17.5z" />
    <glyph glyph-name="afii57420" unicode="&#x62c;" horiz-adv-x="1193" 
d="M991 754q129 -180 129 -463v-291h-690q-57 0 -95 -28.5t-38 -82.5q0 -57 39 -77.5t90 -20.5h221v-235h-188q-202 0 -300 83t-98 250q0 118 50 196t132 114.5t179 36.5h463l-2 71q-2 181 -81.5 288t-283.5 107q-74 0 -147 -12l-41 219q115 25 219 25q313 0 442 -180z
M936 -137q30 -18 47.5 -48t17.5 -65q0 -36 -17.5 -66.5t-47.5 -48.5t-66 -18q-34 0 -64 18t-47.5 49t-17.5 66q0 34 17.5 64.5t47.5 48.5t64 18q36 0 66 -18z" />
    <glyph glyph-name="afii57421" unicode="&#x62d;" horiz-adv-x="1193" 
d="M991 754q129 -180 129 -463v-291h-690q-57 0 -95 -28.5t-38 -82.5q0 -57 39 -77.5t90 -20.5h365v-235h-332q-202 0 -300 83t-98 250q0 118 50 196t132 114.5t179 36.5h444v71q0 118 -27.5 204t-104 138.5t-216.5 52.5q-74 0 -147 -12l-41 219q115 25 219 25
q313 0 442 -180z" />
    <glyph glyph-name="afii57422" unicode="&#x62e;" horiz-adv-x="1193" 
d="M991 754q129 -180 129 -463v-291h-690q-57 0 -95 -28.5t-38 -82.5q0 -57 39 -77.5t90 -20.5h365v-235h-332q-202 0 -300 83t-98 250q0 118 50 196t132 114.5t179 36.5h444v71q0 118 -27.5 204t-104 138.5t-216.5 52.5q-74 0 -147 -12l-41 219q115 25 219 25
q313 0 442 -180zM673 1348q30 -18 47 -48.5t17 -66.5q0 -34 -17.5 -63.5t-47 -47.5t-64.5 -18t-65 18t-48 47.5t-18 63.5q0 36 17.5 66.5t48 48.5t65.5 18t65 -18z" />
    <glyph glyph-name="afii57423" unicode="&#x62f;" horiz-adv-x="1091" 
d="M901.5 815q95.5 -103 95.5 -301v-514h-936v236h682v253q0 101 -47.5 147t-152.5 46h-332v236h395q200 0 295.5 -103z" />
    <glyph glyph-name="afii57424" unicode="&#x630;" horiz-adv-x="1091" 
d="M901.5 815q95.5 -103 95.5 -301v-514h-936v236h682v253q0 101 -47.5 147t-152.5 46h-332v236h395q200 0 295.5 -103zM569 1348q30 -18 47 -48.5t17 -66.5q0 -34 -17.5 -63.5t-47 -47.5t-64.5 -18t-65 18t-48 47.5t-18 63.5q0 36 17.5 66.5t48 48.5t65.5 18t65 -18z" />
    <glyph glyph-name="afii57425" unicode="&#x631;" horiz-adv-x="629" 
d="M394 -327.5q-102 -116.5 -310 -116.5h-104v241h79q89 0 136 56.5t47 152.5v912h254v-920q0 -209 -102 -325.5z" />
    <glyph glyph-name="afii57426" unicode="&#x632;" horiz-adv-x="629" 
d="M394 -327.5q-102 -116.5 -310 -116.5h-104v241h79q89 0 136 56.5t47 152.5v912h254v-920q0 -209 -102 -325.5zM419 1348q30 -18 47 -48.5t17 -66.5q0 -34 -17.5 -63.5t-47 -47.5t-64.5 -18t-65 18t-48 47.5t-18 63.5q0 36 17.5 66.5t48 48.5t65.5 18t65 -18z" />
    <glyph glyph-name="afii57427" unicode="&#x633;" horiz-adv-x="2383" 
d="M1231 0q-23 -137 -96 -236.5t-194.5 -153.5t-285.5 -54q-189 0 -321 64.5t-200 189t-68 301.5v528h253v-438q0 -193 75.5 -302.5t260.5 -109.5q186 0 261 109.5t75 302.5v717h254v-682h262v616h254v-616h234v682h254v-918h-1018z" />
    <glyph glyph-name="afii57428" unicode="&#x634;" horiz-adv-x="2383" 
d="M1231 0q-23 -137 -96 -236.5t-194.5 -153.5t-285.5 -54q-189 0 -321 64.5t-200 189t-68 301.5v528h253v-438q0 -193 75.5 -302.5t260.5 -109.5q186 0 261 109.5t75 302.5v717h254v-682h262v616h254v-616h234v682h254v-918h-1018zM1711.5 1622q29.5 -18 47 -48.5
t17.5 -66.5q0 -33 -17.5 -63t-47.5 -48t-64 -18q-36 0 -67 18t-49.5 48t-18.5 63q0 36 18 66.5t49.5 48.5t67.5 18q35 0 64.5 -18zM1548 1348q30 -18 47 -48.5t17 -66.5q0 -34 -17.5 -63.5t-47 -47.5t-64.5 -18t-65 18t-48 47.5t-18 63.5q0 36 17.5 66.5t48 48.5t65.5 18
t65 -18zM1868 1348.5q30 -17.5 48 -48t18 -65.5q0 -34 -18 -64.5t-48 -48.5t-65 -18t-64.5 18t-47 48t-17.5 65t17 65.5t47 48t65 17.5t65 -17.5z" />
    <glyph glyph-name="afii57429" unicode="&#x635;" horiz-adv-x="2514" 
d="M2421 514v-514h-1190q-23 -137 -96 -236.5t-194.5 -153.5t-285.5 -54q-189 0 -321 64.5t-200 189t-68 301.5v528h253v-438q0 -193 75.5 -301.5t260.5 -108.5q186 0 260 108.5t74 301.5v717h1041q391 0 391 -404zM1243 236h924v253q0 101 -48 147t-153 46h-723v-446z" />
    <glyph glyph-name="afii57430" unicode="&#x636;" horiz-adv-x="2514" 
d="M2421 514v-514h-1190q-23 -137 -96 -236.5t-194.5 -153.5t-285.5 -54q-189 0 -321 64.5t-200 189t-68 301.5v528h253v-438q0 -193 75.5 -301.5t260.5 -108.5q186 0 260 108.5t74 301.5v717h1041q391 0 391 -404zM1243 236h924v253q0 101 -48 147t-153 46h-723v-446z
M1752 1348q30 -18 47 -48.5t17 -66.5q0 -34 -17.5 -63.5t-47 -47.5t-64.5 -18t-65 18t-48 47.5t-18 63.5q0 36 17.5 66.5t48 48.5t65.5 18t65 -18z" />
    <glyph glyph-name="afii57431" unicode="&#x637;" horiz-adv-x="1781" 
d="M1296 918q392 0 392 -404v-514h-1647v236h225v1130h254v-448h776zM520 236h914v253q0 101 -48 147t-153 46h-713v-446z" />
    <glyph glyph-name="afii57432" unicode="&#x638;" horiz-adv-x="1781" 
d="M1296 918q392 0 392 -404v-514h-1647v236h225v1130h254v-448h776zM520 236h914v253q0 101 -48 147t-153 46h-713v-446zM1066 1348q30 -18 47 -48.5t17 -66.5q0 -34 -17.5 -63.5t-47 -47.5t-64.5 -18t-65 18t-48 47.5t-18 63.5q0 36 17.5 66.5t48 48.5t65.5 18t65 -18z
" />
    <glyph glyph-name="afii57433" unicode="&#x639;" horiz-adv-x="1258" 
d="M877 682q-106 0 -153.5 -46t-47.5 -147v-253h500v-236h-746q-57 0 -95 -28.5t-38 -82.5q0 -57 39 -77.5t90 -20.5h365v-235h-332q-202 0 -300 83t-98 250q0 130 59 206.5t137.5 107t150.5 33.5h14v278q0 404 391 404h297v-236h-233z" />
    <glyph glyph-name="afii57434" unicode="&#x63a;" horiz-adv-x="1258" 
d="M877 682q-106 0 -153.5 -46t-47.5 -147v-253h500v-236h-746q-57 0 -95 -28.5t-38 -82.5q0 -57 39 -77.5t90 -20.5h365v-235h-332q-202 0 -300 83t-98 250q0 130 59 206.5t137.5 107t150.5 33.5h14v278q0 404 391 404h297v-236h-233zM907 1348q30 -18 47 -48.5t17 -66.5
q0 -34 -17.5 -63.5t-47 -47.5t-64.5 -18t-65 18t-48 47.5t-18 63.5q0 36 17.5 66.5t48 48.5t65.5 18t65 -18z" />
    <glyph glyph-name="afii57440" unicode="&#x640;" horiz-adv-x="451" 
d="M-49 10q-17 10 -25 35t-8 72q0 49 8.5 74.5t25.5 35t48 9.5h451q30 0 47.5 -9.5t25.5 -35t8 -74.5q0 -47 -7.5 -72t-24.5 -35t-49 -10h-451q-32 0 -49 10z" />
    <glyph glyph-name="afii57441" unicode="&#x641;" horiz-adv-x="2190" 
d="M457 0q-201 0 -296 102.5t-95 300.5v314h251v-289q0 -100 48 -146t153 -46h664v278q0 198 95.5 301t295.5 103h483v-918h-1599zM1481.5 636q-47.5 -46 -47.5 -147v-253h366v446h-166q-105 0 -152.5 -46zM1724 1348q30 -18 47 -48.5t17 -66.5q0 -34 -17.5 -63.5t-47 -47.5
t-64.5 -18t-65 18t-48 47.5t-18 63.5q0 36 17.5 66.5t48 48.5t65.5 18t65 -18z" />
    <glyph glyph-name="afii57442" unicode="&#x642;" horiz-adv-x="1684" 
d="M1390 -223.5q-150 -159.5 -436 -159.5h-301q-297 0 -442 152.5t-145 459.5v174h253v-176q0 -178 78 -263t246 -85h305q180 0 256.5 91t81.5 266h-618v514q0 198 95 300.5t296 102.5h483l-2 -917q0 -300 -150 -459.5zM969.5 871.5q-47.5 -46.5 -47.5 -146.5v-254h366v447
h-166q-105 0 -152.5 -46.5zM1056 1573q30 -18 47 -48.5t17 -66.5q0 -34 -17.5 -63.5t-47 -47.5t-64.5 -18t-65 18t-48 47.5t-18 63.5q0 36 17.5 66.5t48 48.5t65.5 18t65 -18zM1375 1573q30 -18 47.5 -48.5t17.5 -66.5q0 -33 -18 -63t-47.5 -48t-63.5 -18q-36 0 -67.5 18
t-50 47.5t-18.5 63.5q0 36 18.5 66.5t50 48.5t67.5 18q34 0 64 -18z" />
    <glyph glyph-name="afii57443" unicode="&#x643;" horiz-adv-x="1674" 
d="M457 0q-201 0 -296 102.5t-95 300.5v314h253v-289q0 -100 48 -146t153 -46h766v1130h254v-1366h-1083zM768 938h188q59 0 86 -29t27 -86v-231h-481v110h373v72q0 29 -13.5 42t-44.5 13h-264v80q0 31 13.5 51t52.5 46l192 129v-117z" />
    <glyph glyph-name="afii57444" unicode="&#x644;" horiz-adv-x="1379" 
d="M1177 -190.5q-68 -124.5 -200.5 -189t-321.5 -64.5t-321 64.5t-200 189t-68 301.5v528h253v-438q0 -193 75.5 -301.5t260.5 -108.5q186 0 261 108.5t75 301.5v1165h254v-1255q0 -177 -68 -301.5z" />
    <glyph glyph-name="afii57445" unicode="&#x645;" horiz-adv-x="1379" 
d="M315 -121v-321h-249v354q0 163 66 241.5t218 82.5h21v278q0 198 95.5 301t295.5 103h483v-918h-792q-138 0 -138 -121zM672.5 636q-47.5 -46 -47.5 -147v-253h366v446h-166q-105 0 -152.5 -46z" />
    <glyph glyph-name="afii57446" unicode="&#x646;" horiz-adv-x="1379" 
d="M1177 -190.5q-68 -124.5 -200.5 -189t-321.5 -64.5t-321 64.5t-200 189t-68 301.5v528h253v-438q0 -193 75.5 -301.5t260.5 -108.5q186 0 261 108.5t75 301.5v717h254v-807q0 -177 -68 -301.5zM724 1289q30 -18 47 -48.5t17 -66.5q0 -34 -17.5 -63.5t-47 -47.5t-64.5 -18
t-65 18t-48 47.5t-18 63.5q0 36 17.5 66.5t48 48.5t65.5 18t65 -18z" />
    <glyph glyph-name="afii57470" unicode="&#x647;" horiz-adv-x="1074" 
d="M66 0v514q0 198 95.5 301t295.5 103h483v-918h-874zM365 636q-48 -46 -48 -147v-253h367v446h-166q-105 0 -153 -46z" />
    <glyph glyph-name="afii57448" unicode="&#x648;" horiz-adv-x="1162" 
d="M582 -209q74 0 112.5 20t53 64t14.5 125h-619v514q0 404 392 404h483v-857q0 -166 -33 -274.5t-123 -169.5t-256 -61h-315v235h291zM764 682h-166q-105 0 -153 -46t-48 -147v-253h367v446z" />
    <glyph glyph-name="afii57449" unicode="&#x649;" horiz-adv-x="1955" 
d="M1567 0v682h-121q-105 0 -153 -46t-48 -147v-378q0 -177 -68 -301.5t-200.5 -189t-321.5 -64.5t-321 64.5t-200 189t-68 301.5v528h253v-438q0 -192 75.5 -300t260.5 -108q186 0 261 107.5t75 300.5v313q0 404 393 404h437v-918h-254z" />
    <glyph glyph-name="afii57450" unicode="&#x64a;" horiz-adv-x="1955" 
d="M1567 0v682h-121q-105 0 -153 -46t-48 -147v-378q0 -177 -68 -301.5t-200.5 -189t-321.5 -64.5t-321 64.5t-200 189t-68 301.5v528h253v-438q0 -192 75.5 -300t260.5 -108q186 0 261 107.5t75 300.5v313q0 404 393 404h437v-918h-254zM565 -532q30 -18 47 -48.5t17 -66.5
q0 -34 -17.5 -63.5t-47 -47.5t-64.5 -18t-65 18t-48 47.5t-18 63.5q0 36 17.5 66.5t48 48.5t65.5 18t65 -18zM884 -532q30 -18 47.5 -48.5t17.5 -66.5q0 -33 -18 -63t-47.5 -48t-63.5 -18q-36 0 -67.5 18t-50 47.5t-18.5 63.5q0 36 18.5 66.5t50 48.5t67.5 18q34 0 64 -18z
" />
    <glyph glyph-name="afii57451" unicode="&#x64b;" horiz-adv-x="0" 
d="M-252 1739v69h520v-69h-520zM-252 1579v70h520v-70h-520z" />
    <glyph glyph-name="afii57452" unicode="&#x64c;" horiz-adv-x="0" 
d="M237 1975q42 -50 42 -158q0 -126 -68.5 -182t-187.5 -56h-195v145q0 61 -19.5 86t-62.5 25v72q70 0 113 -46t43 -137v-75h121q137 0 171 86h-71q-69 0 -109.5 37t-40.5 100q0 42 20.5 77t55.5 55.5t76 20.5q70 0 112 -50zM207 1819q0 69 -22.5 103t-59.5 34
q-38 0 -59 -24.5t-21 -59.5q0 -38 25.5 -54t62.5 -16h74v17z" />
    <glyph glyph-name="afii57453" unicode="&#x64d;" horiz-adv-x="0" 
d="M-264 -283v70h520v-70h-520zM-264 -442v69h520v-69h-520z" />
    <glyph glyph-name="afii57454" unicode="&#x64e;" horiz-adv-x="0" 
d="M-248 1579v70h520v-70h-520z" />
    <glyph glyph-name="afii57455" unicode="&#x64f;" horiz-adv-x="0" 
d="M113.5 1979q42.5 -46 42.5 -140q0 -141 -68 -200.5t-188 -59.5h-58v70h58q78 0 114 24t52 62h-66q-69 0 -109.5 37t-40.5 100q0 42 20.5 77t55.5 55.5t76 20.5q69 0 111.5 -46zM-49.5 1818.5q28.5 -16.5 59.5 -16.5h72q2 22 2 32q0 53 -20 87.5t-62 34.5q-37 0 -58.5 -26
t-21.5 -58q0 -37 28.5 -53.5z" />
    <glyph glyph-name="afii57456" unicode="&#x650;" horiz-adv-x="0" 
d="M-260 -283v70h520v-70h-520z" />
    <glyph glyph-name="afii57457" unicode="&#x651;" horiz-adv-x="0" 
d="M218 1615.5q-40 -44.5 -109 -44.5q-72 0 -111 45q-19 -22 -47.5 -33.5t-63.5 -11.5q-69 0 -109 44.5t-40 117.5v165h78v-172q0 -38 19 -59.5t52 -21.5t52.5 19t19.5 54v180h78v-180q0 -35 19.5 -54t52.5 -19t52 21.5t19 59.5v172h78v-165q0 -73 -40 -117.5z" />
    <glyph glyph-name="afii57458" unicode="&#x652;" horiz-adv-x="0" 
d="M80 1868q38 -22 60 -59.5t22 -82.5q0 -44 -22 -81t-60 -58.5t-82 -21.5t-81.5 21.5t-59 58.5t-21.5 81q0 45 21.5 82.5t59 59.5t81.5 22t82 -22zM-63.5 1792.5q-26.5 -26.5 -26.5 -63.5t26.5 -64t63.5 -27t63.5 27t26.5 64t-26.5 63.5t-63.5 26.5t-63.5 -26.5z" />
    <glyph glyph-name="uni0653" unicode="&#x653;" horiz-adv-x="0" 
d="M-111 1773q49 -17 122 -50q62 -28 101 -42t70 -14q32 0 49 17.5t17 58.5h92q0 -93 -34.5 -138.5t-110.5 -45.5q-46 0 -100 17.5t-130 50.5q-64 27 -101.5 39.5t-64.5 12.5q-34 0 -51.5 -21t-17.5 -67h-95q0 94 43 146.5t119 52.5q43 0 92 -17z" />
    <glyph glyph-name="uni0654" unicode="&#x654;" horiz-adv-x="0" 
d="M272 1817q-37 0 -52 -14.5t-15 -51.5v-106h221v-117h-440v117h94v110q0 96 43.5 138t144.5 42h129v-118h-125z" />
    <glyph glyph-name="uni0655" unicode="&#x655;" horiz-adv-x="0" 
d="M272 -338q-37 0 -52 -14.5t-15 -50.5v-107h221v-117h-440v117h94v111q0 96 43.5 138t144.5 42h129v-119h-125z" />
    <glyph glyph-name="uni0656" unicode="&#x656;" horiz-adv-x="0" 
d="M-39 -629v416h78v-416h-78z" />
    <glyph glyph-name="uni0658" unicode="&#x658;" horiz-adv-x="0" 
d="M130 1622.5q-48 -51.5 -130 -51.5q-83 0 -131.5 51.5t-48.5 136.5v139h78v-143q0 -52 28 -83.5t74 -31.5t73 31.5t27 83.5v143h78v-139q0 -85 -48 -136.5z" />
    <glyph glyph-name="afii57392" unicode="&#x660;" horiz-adv-x="1148" 
d="M569 217l-233 234l233 231l234 -233z" />
    <glyph glyph-name="afii57393" unicode="&#x661;" horiz-adv-x="1148" 
d="M455 0v1366h235v-1366h-235z" />
    <glyph glyph-name="afii57394" unicode="&#x662;" horiz-adv-x="1148" 
d="M981 1084q-8 -45 -41 -91q-49 -64 -117.5 -88t-158.5 -24h-236v-881h-233v1366h237v-260h246q38 0 59 20t21 58v182h231v-162q0 -75 -8 -120z" />
    <glyph glyph-name="afii57395" unicode="&#x663;" horiz-adv-x="1148" 
d="M999 960.5q-84 -79.5 -239 -79.5h-426v-881h-234v1366h238v-260h143v260h217v-260h68q40 0 63 21.5t23 60.5v178h231v-162q0 -164 -84 -243.5z" />
    <glyph glyph-name="afii57396" unicode="&#x664;" horiz-adv-x="1148" 
d="M672 1139q-84 0 -137.5 -41t-53.5 -123q0 -81 53 -119.5t138 -38.5h235v-225h-293q-54 0 -96.5 -23.5t-67 -66t-24.5 -96.5q0 -83 46.5 -132t131.5 -49h391v-225h-385q-193 0 -308.5 89t-115.5 280q0 113 51.5 206.5t149.5 133.5q-67 49 -104 122.5t-37 159.5
q0 179 112.5 276t317.5 97h233v-225h-237z" />
    <glyph glyph-name="afii57397" unicode="&#x665;" horiz-adv-x="1148" 
d="M973 981l57 -635l2 -22q0 -113 -67 -186t-171.5 -105.5t-222.5 -32.5q-114 0 -217 30t-171 102.5t-68 191.5v22l57 635q17 118 57 201.5t123 133.5t221 50q356 0 400 -385zM455 1100q-38 -28 -45 -99l-62 -602v-14q0 -58 62.5 -88.5t162.5 -30.5q102 0 162 31t60 88v14
l-62 602q-7 71 -44.5 99t-115.5 28q-80 0 -118 -28z" />
    <glyph glyph-name="afii57398" unicode="&#x666;" horiz-adv-x="1148" 
d="M700 0v1141h-534v225h770v-1366h-236z" />
    <glyph glyph-name="afii57399" unicode="&#x667;" horiz-adv-x="1148" 
d="M457 0l-404 1352h248l270 -928l273 928h250l-408 -1352h-229z" />
    <glyph glyph-name="afii57400" unicode="&#x668;" horiz-adv-x="1148" 
d="M844 0l-273 926l-270 -926h-248l404 1352h229l408 -1352h-250z" />
    <glyph glyph-name="afii57401" unicode="&#x669;" horiz-adv-x="1148" 
d="M721 0v618h-143q-112 0 -200.5 44t-139 127t-50.5 198q0 116 46 201.5t133.5 131.5t207.5 46h379v-1366h-233zM460.5 1100q-34.5 -39 -34.5 -107q0 -69 35.5 -109t101.5 -40h158v295h-158q-68 0 -102.5 -39z" />
    <glyph glyph-name="afii57381" unicode="&#x66a;" horiz-adv-x="1459" 
d="M434 0l447 1366h133l-445 -1366h-135zM340 920l-215 215l215 213l215 -215zM1077 27l-215 215l215 213l215 -215z" />
    <glyph glyph-name="uni066B" unicode="&#x66b;" horiz-adv-x="576" 
d="M80 -293l113 510h262l-158 -510h-217z" />
    <glyph glyph-name="uni066C" unicode="&#x66c;" horiz-adv-x="579" 
d="M80 -293l113 510h262l-158 -510h-217z" />
    <glyph glyph-name="afii63167" unicode="&#x66d;" horiz-adv-x="1916" 
d="M1817 856l30 -104l-592 -338l275 -607l-74 -55l-498 449l-505 -449l-70 55l256 607l-569 338l22 104l682 -84l144 655h86l135 -655z" />
    <glyph glyph-name="uni066E" unicode="&#x66e;" horiz-adv-x="1672" 
d="M457 0q-201 0 -296 102.5t-95 300.5v314h251v-289q0 -100 48 -146t153 -46h768v682h252v-918h-1081z" />
    <glyph glyph-name="uni066F" unicode="&#x66f;" horiz-adv-x="1684" 
d="M1390 -223.5q-150 -159.5 -436 -159.5h-301q-297 0 -442 152.5t-145 459.5v174h253v-176q0 -178 78 -263t246 -85h305q180 0 256.5 91t81.5 266h-618v514q0 198 95 300.5t296 102.5h483l-2 -917q0 -300 -150 -459.5zM969.5 871.5q-47.5 -46.5 -47.5 -146.5v-254h366v447
h-166q-105 0 -152.5 -46.5z" />
    <glyph glyph-name="uni0670" unicode="&#x670;" horiz-adv-x="0" 
d="M-39 1579v428h78v-428h-78z" />
    <glyph glyph-name="uni0671" unicode="&#x671;" horiz-adv-x="521" 
d="M133 0v1366h254v-1366h-254zM401.5 1679.5q13.5 -3.5 26.5 -12.5q22 -22 22 -68v-126h-403v65h53v145h262q26 0 39.5 -3.5zM170 1538h211v49q0 17 -7 24t-24 7h-180v-80z" />
    <glyph glyph-name="afii57511" unicode="&#x679;" horiz-adv-x="1672" 
d="M457 0q-201 0 -296 102.5t-95 300.5v314h251v-289q0 -100 48 -146t153 -46h768v682h252v-918h-1081zM516 1106v82h62v301h86v-119h246q61 0 85.5 -24t24.5 -82v-158h-504zM664 1188h268v61q0 22 -8.5 30.5t-30.5 8.5h-229v-100z" />
    <glyph glyph-name="afii57506" unicode="&#x67e;" horiz-adv-x="1672" 
d="M457 0q-201 0 -296 102.5t-95 300.5v314h251v-289q0 -100 48 -146t153 -46h768v682h252v-918h-1081zM765 -139q30 -18 48 -47.5t18 -63.5q0 -36 -17.5 -66.5t-48 -48.5t-65.5 -18t-65 18t-47 48.5t-17 66.5q0 34 17.5 63.5t47 47.5t64.5 18t65 -18zM1080.5 -139
q31.5 -18 50 -47.5t18.5 -63.5q0 -36 -18.5 -66.5t-50 -48.5t-67.5 -18q-34 0 -64 18t-47.5 48.5t-17.5 66.5q0 33 18 63t47.5 48t63.5 18q36 0 67.5 -18zM924.5 -413q29.5 -18 47 -48.5t17.5 -64.5q0 -35 -17.5 -65.5t-47 -48t-64.5 -17.5t-65.5 17.5t-48 48t-17.5 65.5
q0 34 18 64.5t48 48.5t65 18t64.5 -18z" />
    <glyph glyph-name="afii57507" unicode="&#x686;" horiz-adv-x="1222" 
d="M991 754q129 -180 129 -463v-291h-690q-57 0 -95 -28.5t-38 -82.5q0 -57 39 -77.5t90 -20.5h78v-235h-45q-202 0 -300 83t-98 250q0 118 50 196t132 114.5t179 36.5h463v71q0 179 -81.5 287t-285.5 108q-74 0 -147 -12l-41 219q115 25 219 25q313 0 442 -180zM755 -139
q30 -18 48 -47.5t18 -63.5q0 -36 -17.5 -66.5t-48 -48.5t-65.5 -18t-65 18t-47 48.5t-17 66.5q0 34 17.5 63.5t47 47.5t64.5 18t65 -18zM1070.5 -139q31.5 -18 50 -47.5t18.5 -63.5q0 -36 -18.5 -66.5t-50 -48.5t-67.5 -18q-34 0 -64 18t-47.5 48.5t-17.5 66.5q0 33 18 63
t47.5 48t63.5 18q36 0 67.5 -18zM914.5 -413q29.5 -18 47 -48.5t17.5 -64.5q0 -35 -17.5 -65.5t-47 -48t-64.5 -17.5t-65.5 17.5t-48 48t-17.5 65.5q0 34 18 64.5t48 48.5t65 18t64.5 -18z" />
    <glyph glyph-name="afii57512" unicode="&#x688;" horiz-adv-x="1091" 
d="M901.5 815q95.5 -103 95.5 -301v-514h-936v236h682v253q0 101 -47.5 147t-152.5 46h-332v236h395q200 0 295.5 -103zM229 1106v82h62v301h86v-119h246q61 0 85.5 -24t24.5 -82v-158h-504zM377 1188h268v61q0 22 -8.5 30.5t-30.5 8.5h-229v-100z" />
    <glyph glyph-name="afii57513" unicode="&#x691;" horiz-adv-x="629" 
d="M394 -327.5q-102 -116.5 -310 -116.5h-104v241h79q89 0 136 56.5t47 152.5v912h254v-920q0 -209 -102 -325.5zM37 1106v82h62v301h86v-119h246q61 0 85.5 -24t24.5 -82v-158h-504zM185 1188h268v61q0 22 -8.5 30.5t-30.5 8.5h-229v-100z" />
    <glyph glyph-name="afii57508" unicode="&#x698;" horiz-adv-x="629" 
d="M394 -327.5q-102 -116.5 -310 -116.5h-104v241h79q89 0 136 56.5t47 152.5v912h254v-920q0 -209 -102 -325.5zM377.5 1622q29.5 -18 47 -48.5t17.5 -66.5q0 -33 -17.5 -63t-47.5 -48t-64 -18q-36 0 -67 18t-49.5 48t-18.5 63q0 36 18 66.5t49.5 48.5t67.5 18
q35 0 64.5 -18zM214 1348q30 -18 47 -48.5t17 -66.5q0 -34 -17.5 -63.5t-47 -47.5t-64.5 -18t-65 18t-48 47.5t-18 63.5q0 36 17.5 66.5t48 48.5t65.5 18t65 -18zM534 1348.5q30 -17.5 48 -48t18 -65.5q0 -34 -18 -64.5t-48 -48.5t-65 -18t-64.5 18t-47 48t-17.5 65t17 65.5
t47 48t65 17.5t65 -17.5z" />
    <glyph glyph-name="uni06A1" unicode="&#x6a1;" horiz-adv-x="2190" 
d="M457 0q-201 0 -296 102.5t-95 300.5v314h251v-289q0 -100 48 -146t153 -46h664v278q0 198 95.5 301t295.5 103h483v-918h-1599zM1481.5 636q-47.5 -46 -47.5 -147v-253h366v446h-166q-105 0 -152.5 -46z" />
    <glyph glyph-name="afii57505" unicode="&#x6a4;" horiz-adv-x="2190" 
d="M457 0q-201 0 -296 102.5t-95 300.5v314h251v-289q0 -100 48 -146t153 -46h664v278q0 198 95.5 301t295.5 103h483v-918h-1599zM1481.5 636q-47.5 -46 -47.5 -147v-253h366v446h-166q-105 0 -152.5 -46zM1713.5 1622q29.5 -18 47 -48.5t17.5 -66.5q0 -33 -17.5 -63
t-47.5 -48t-64 -18q-36 0 -67 18t-49.5 48t-18.5 63q0 36 18 66.5t49.5 48.5t67.5 18q35 0 64.5 -18zM1550 1348q30 -18 47 -48.5t17 -66.5q0 -34 -17.5 -63.5t-47 -47.5t-64.5 -18t-65 18t-48 47.5t-18 63.5q0 36 17.5 66.5t48 48.5t65.5 18t65 -18zM1870 1348.5
q30 -17.5 48 -48t18 -65.5q0 -34 -18 -64.5t-48 -48.5t-65 -18t-64.5 18t-47 48t-17.5 65t17 65.5t47 48t65 17.5t65 -17.5z" />
    <glyph glyph-name="uni06A9" unicode="&#x6a9;" horiz-adv-x="1603" 
d="M582 918h536q200 0 295.5 -103t95.5 -301v-514h-1427v236h1173v253q0 101 -47.5 147t-152.5 46h-791v109q0 72 19.5 123t67 99.5t136.5 108.5l672 451v-275z" />
    <glyph glyph-name="afii57509" unicode="&#x6af;" horiz-adv-x="1603" 
d="M582 918h536q200 0 295.5 -103t95.5 -301v-514h-1427v236h1173v253q0 101 -47.5 147t-152.5 46h-791v109q0 72 19.5 123t67 99.5t136.5 108.5l672 451v-275zM274 1133v229l887 561v-229z" />
    <glyph glyph-name="afii57514" unicode="&#x6ba;" horiz-adv-x="1379" 
d="M1177 -190.5q-68 -124.5 -200.5 -189t-321.5 -64.5t-321 64.5t-200 189t-68 301.5v528h253v-438q0 -193 75.5 -301.5t260.5 -108.5q186 0 261 108.5t75 301.5v717h254v-807q0 -177 -68 -301.5z" />
    <glyph glyph-name="uni06BE" unicode="&#x6be;" horiz-adv-x="1600" 
d="M1298.5 784q124.5 -105 177 -248.5t52.5 -299.5v-236h-1374q-44 0 -73.5 29.5t-29.5 76.5v130h101q0 141 55.5 286.5t182 255.5t325.5 138v102h254v-102q205 -27 329.5 -132zM715 687q-158 -32 -232.5 -148.5t-74.5 -302.5h307v451zM1202.5 537q-71.5 116 -233.5 149
v-450h305q0 185 -71.5 301z" />
    <glyph glyph-name="uni06C0" unicode="&#x6c0;" horiz-adv-x="957" 
d="M587 1407q-37 0 -52 -14.5t-15 -51.5v-106h221v-117h-440v117h94v110q0 96 43.5 138t144.5 42h129v-118h-125zM66 0v514q0 198 95.5 301t295.5 103h483v-918h-874zM365 636q-48 -46 -48 -147v-253h367v446h-166q-105 0 -153 -46z" />
    <glyph glyph-name="uni06C1" unicode="&#x6c1;" horiz-adv-x="1074" 
d="M66 0v514q0 198 95.5 301t295.5 103h483v-918h-874zM365 636q-48 -46 -48 -147v-253h367v446h-166q-105 0 -153 -46z" />
    <glyph glyph-name="uni06C2" unicode="&#x6c2;" horiz-adv-x="957" 
d="M587 1407q-37 0 -52 -14.5t-15 -51.5v-106h221v-117h-440v117h94v110q0 96 43.5 138t144.5 42h129v-118h-125zM66 0v514q0 198 95.5 301t295.5 103h483v-918h-874zM365 636q-48 -46 -48 -147v-253h367v446h-166q-105 0 -153 -46z" />
    <glyph glyph-name="uni06C3" unicode="&#x6c3;" horiz-adv-x="1074" 
d="M454 1348q30 -18 47 -48.5t17 -66.5q0 -34 -17.5 -63.5t-47 -47.5t-64.5 -18t-65 18t-48 47.5t-18 63.5q0 36 17.5 66.5t48 48.5t65.5 18t65 -18zM773 1348q30 -18 47.5 -48.5t17.5 -66.5q0 -33 -18 -63t-47.5 -48t-63.5 -18q-36 0 -67.5 18t-50 47.5t-18.5 63.5
q0 36 18.5 66.5t50 48.5t67.5 18q34 0 64 -18zM66 0v514q0 198 95.5 301t295.5 103h483v-918h-874zM365 636q-48 -46 -48 -147v-253h367v446h-166q-105 0 -153 -46z" />
    <glyph glyph-name="uni06CC" unicode="&#x6cc;" horiz-adv-x="1955" 
d="M1567 0v682h-121q-105 0 -153 -46t-48 -147v-378q0 -177 -68 -301.5t-200.5 -189t-321.5 -64.5t-321 64.5t-200 189t-68 301.5v528h253v-438q0 -192 75.5 -300t260.5 -108q186 0 261 107.5t75 300.5v313q0 404 393 404h437v-918h-254z" />
    <glyph glyph-name="afii57519" unicode="&#x6d2;" horiz-adv-x="2149" 
d="M1247.5 714q-42.5 -85 -131.5 -124t-233 -39h-418q-78 0 -112 -32.5t-34 -108.5v-174h1766v-236h-2019v397q0 141 42.5 226t131.5 124t233 39h418q77 0 111 32.5t34 109.5v188h254v-176q0 -141 -42.5 -226z" />
    <glyph glyph-name="uni06D3" unicode="&#x6d3;" horiz-adv-x="2166" 
d="M1247.5 714q-42.5 -85 -131.5 -124t-233 -39h-418q-78 0 -112 -32.5t-34 -108.5v-174h1766v-236h-2019v397q0 141 42.5 226t131.5 124t233 39h418q77 0 111 32.5t34 109.5v188h254v-176q0 -141 -42.5 -226zM426 1194q-37 0 -52 -14.5t-15 -51.5v-106h221v-117h-440v117
h94v110q0 96 43.5 138t144.5 42h129v-118h-125z" />
    <glyph glyph-name="uni06D4" unicode="&#x6d4;" horiz-adv-x="1103" 
d="M428 0q-133 0 -209 72t-96 217h835v-289h-530z" />
    <glyph glyph-name="afii57534" unicode="&#x6d5;" horiz-adv-x="1074" 
d="M66 0v514q0 198 95.5 301t295.5 103h483v-918h-874zM365 636q-48 -46 -48 -147v-253h367v446h-166q-105 0 -153 -46z" />
    <glyph glyph-name="uni06F0" unicode="&#x6f0;" horiz-adv-x="1148" 
d="M569 217l-233 234l233 231l234 -233z" />
    <glyph glyph-name="uni06F1" unicode="&#x6f1;" horiz-adv-x="1148" 
d="M455 0v1366h235v-1366h-235z" />
    <glyph glyph-name="uni06F2" unicode="&#x6f2;" horiz-adv-x="1148" 
d="M981 1084q-8 -45 -41 -91q-49 -64 -117.5 -88t-158.5 -24h-236v-881h-233v1366h237v-260h246q38 0 59 20t21 58v182h231v-162q0 -75 -8 -120z" />
    <glyph glyph-name="uni06F3" unicode="&#x6f3;" horiz-adv-x="1148" 
d="M999 960.5q-84 -79.5 -239 -79.5h-426v-881h-234v1366h238v-260h143v260h217v-260h68q40 0 63 21.5t23 60.5v178h231v-162q0 -164 -84 -243.5z" />
    <glyph glyph-name="uni06F4" unicode="&#x6f4;" horiz-adv-x="1148" 
d="M494 1102q0 133 70.5 198.5t199.5 65.5h123l-66 -205q-45 0 -70.5 -8t-37 -28.5t-11.5 -59.5v-47h93q27 0 44.5 3.5t35.5 18t34 45.5l189 -127q-50 -84 -131 -124.5t-174 -40.5h-383v-793h-234v1366h238v-348h80v84z" />
    <glyph glyph-name="uni06F5" unicode="&#x6f5;" horiz-adv-x="1148" 
d="M860.5 1262q95.5 -104 112.5 -281l67 -737q0 -119 -76 -181.5t-200 -62.5q-105 0 -191 72q-73 -70 -178 -70q-130 0 -209.5 64t-79.5 184l66 731q15 179 106 282t295 103q192 0 287.5 -104zM455 1100q-38 -28 -45 -99l-68 -667q0 -36 34 -57t81 -21q54 0 116 29
q62 -29 119 -29q109 0 109 76l-68 667q-7 72 -44.5 100.5t-115.5 28.5q-80 0 -118 -28z" />
    <glyph glyph-name="uni06F6" unicode="&#x6f6;" horiz-adv-x="1148" 
d="M909 662l-383 -662h-250l361 616h-25q-171 0 -259.5 94t-88.5 279q0 106 46.5 192t131.5 135.5t195 49.5h270v-225h-278q-62 0 -95.5 -37.5t-33.5 -114.5q0 -80 33 -115.5t96 -35.5h280v-176z" />
    <glyph glyph-name="uni06F7" unicode="&#x6f7;" horiz-adv-x="1148" 
d="M457 0l-404 1352h248l270 -928l273 928h250l-408 -1352h-229z" />
    <glyph glyph-name="uni06F8" unicode="&#x6f8;" horiz-adv-x="1148" 
d="M844 0l-273 926l-270 -926h-248l404 1352h229l408 -1352h-250z" />
    <glyph glyph-name="uni06F9" unicode="&#x6f9;" horiz-adv-x="1148" 
d="M721 0v618h-143q-112 0 -200.5 44t-139 127t-50.5 198q0 116 46 201.5t133.5 131.5t207.5 46h379v-1366h-233zM460.5 1100q-34.5 -39 -34.5 -107q0 -69 35.5 -109t101.5 -40h158v295h-158q-68 0 -102.5 -39z" />
    <glyph glyph-name="uni2002" unicode="&#x2002;" horiz-adv-x="1300" 
 />
    <glyph glyph-name="uni2003" unicode="&#x2003;" horiz-adv-x="2601" 
 />
    <glyph glyph-name="uni2009" unicode="&#x2009;" horiz-adv-x="260" 
 />
    <glyph glyph-name="uni200A" unicode="&#x200a;" horiz-adv-x="51" 
 />
    <glyph glyph-name="afii61664" unicode="&#x200c;" horiz-adv-x="0" 
d="M135 2400l41 -43l-133 -133l133 -135l-41 -43l-135 133l-137 -135l-41 45l135 135l-135 133l41 45l137 -139z" />
    <glyph glyph-name="afii301" unicode="&#x200d;" horiz-adv-x="0" 
d="M201 2075v120h-400v-120h-59v180h518v-180h-59z" />
    <glyph glyph-name="afii299" unicode="&#x200e;" horiz-adv-x="0" 
d="M68 2044l-43 45l106 106h-328v60h328l-106 102l43 45l180 -178z" />
    <glyph glyph-name="afii300" unicode="&#x200f;" horiz-adv-x="0" 
d="M-131 2255h330v-60h-328l104 -106l-43 -43l-180 178l180 178l43 -41z" />
    <glyph glyph-name="endash" unicode="&#x2013;" horiz-adv-x="1024" 
d="M1024 604v-196h-1024v196h1024z" />
    <glyph glyph-name="emdash" unicode="&#x2014;" horiz-adv-x="2049" 
d="M1638 604v-196h-1228v196h1228z" />
    <glyph glyph-name="quoteleft" unicode="&#x2018;" horiz-adv-x="699" 
d="M537 1360l-113 -510h-262l157 510h218z" />
    <glyph glyph-name="quoteright" unicode="&#x2019;" horiz-adv-x="699" 
d="M537 1360l-158 -510h-217l112 510h263z" />
    <glyph glyph-name="quotesinglbase" unicode="&#x201a;" horiz-adv-x="699" 
d="M537 287l-158 -510h-217l112 510h263z" />
    <glyph glyph-name="quotedblleft" unicode="&#x201c;" horiz-adv-x="1111" 
d="M537 1360l-113 -510h-262l157 510h218zM948 1360l-112 -510h-263l158 510h217z" />
    <glyph glyph-name="quotedblright" unicode="&#x201d;" horiz-adv-x="1111" 
d="M537 1360l-158 -510h-217l112 510h263zM948 1360l-157 -510h-218l113 510h262z" />
    <glyph glyph-name="quotedblbase" unicode="&#x201e;" horiz-adv-x="1111" 
d="M537 287l-158 -510h-217l112 510h263zM948 287l-157 -510h-218l113 510h262z" />
    <glyph glyph-name="dagger" unicode="&#x2020;" 
d="M209 793v206h407v373h222v-373h407v-206h-407v-871h-222v871h-407z" />
    <glyph glyph-name="daggerdbl" unicode="&#x2021;" 
d="M616 -78v373h-407v207h407v291h-407v206h407v373h222v-373h407v-206h-407v-291h407v-207h-407v-373h-222z" />
    <glyph glyph-name="bullet" unicode="&#x2022;" horiz-adv-x="728" 
d="M140.5 634q34.5 59 93.5 93.5t128 34.5q70 0 128.5 -34.5t93 -93.5t34.5 -128t-34.5 -128t-93 -93.5t-128.5 -34.5q-69 0 -128 34.5t-93.5 93.5t-34.5 128t34.5 128z" />
    <glyph glyph-name="ellipsis" unicode="&#x2026;" horiz-adv-x="1750" 
d="M483 287v-287h-284v287h284zM1016 287v-287h-285v287h285zM1550 287v-287h-284v287h284z" />
    <glyph glyph-name="uni202A" unicode="&#x202a;" horiz-adv-x="0" 
d="M68 2044l-43 45l106 106h-129v60h129l-106 102l43 45l180 -178zM-221 2195v60h149v-60h-149z" />
    <glyph glyph-name="uni202B" unicode="&#x202b;" horiz-adv-x="0" 
d="M-131 2255h129v-60h-127l104 -106l-43 -43l-180 178l180 178l43 -41zM72 2195v60h149v-60h-149z" />
    <glyph glyph-name="afii61573" unicode="&#x202c;" horiz-adv-x="0" 
d="M135 2200l-106 106v-264h-62v262l-102 -104l-43 43l178 178l178 -178z" />
    <glyph glyph-name="afii61574" unicode="&#x202d;" horiz-adv-x="0" 
d="M-55 2044l-41 45l106 106h-278v60h276l-104 102l41 45l180 -178zM115 2044l-43 45l139 135l-139 133l43 45l178 -178z" />
    <glyph glyph-name="afii61575" unicode="&#x202e;" horiz-adv-x="0" 
d="M-209 2288l137 -138l-43 -43l-178 181l178 178l43 -43zM-8 2314h278v-57h-278l106 -107l-43 -43l-178 181l178 178l43 -43z" />
    <glyph glyph-name="perthousand" unicode="&#x2030;" horiz-adv-x="2684" 
d="M720.5 746.5q-96.5 -91.5 -269.5 -91.5q-175 0 -272 91t-97 272t96.5 271.5t270.5 90.5q175 0 271.5 -90t96.5 -272q0 -180 -96.5 -271.5zM1423 1360l-778 -1360h-199l779 1360h198zM562.5 868q39.5 51 39.5 150t-38.5 150t-112.5 51q-75 0 -114.5 -51t-39.5 -150
t38.5 -150t113.5 -51q74 0 113.5 51zM1691.5 71q-96.5 -91 -270.5 -91q-175 0 -271.5 91t-96.5 271q0 182 96 272.5t270 90.5q175 0 271 -90.5t96 -272.5h2q0 -180 -96.5 -271zM2504.5 71q-96.5 -91 -270.5 -91q-175 0 -271.5 91t-96.5 271q0 182 96 272.5t270 90.5
q176 0 272.5 -90.5t96.5 -272.5q0 -180 -96.5 -271zM1533.5 192q39.5 51 39.5 150t-38.5 150t-113.5 51q-74 0 -113.5 -51t-39.5 -150t38.5 -150t112.5 -51q75 0 114.5 51zM2346.5 192q39.5 51 39.5 150t-38.5 150t-113.5 51q-74 0 -113.5 -51t-39.5 -150t38.5 -150
t112.5 -51q75 0 114.5 51z" />
    <glyph glyph-name="guilsinglleft" unicode="&#x2039;" horiz-adv-x="699" 
d="M332 958h217l-137 -452l137 -451l-217 -2l-182 453z" />
    <glyph glyph-name="guilsinglright" unicode="&#x203a;" horiz-adv-x="699" 
d="M150 958h217l182 -452l-182 -453h-217l137 453z" />
    <glyph glyph-name="fraction" unicode="&#x2044;" horiz-adv-x="727" 
d="M852 1360l-778 -1360h-199l778 1360h199z" />
    <glyph glyph-name="Euro" unicode="&#x20ac;" 
d="M534.5 104.5q-153.5 104.5 -198.5 313.5h-170l45 184h96q-4 54 -4 78q0 20 4 86h-141l45 184h129q50 206 202.5 308t415.5 102h435l-58 -236h-344q-152 0 -239.5 -42.5t-108.5 -131.5h649l-45 -184h-647q-4 -66 -4 -86q0 -24 4 -78h606l-45 -184h-518q51 -178 344 -178
h359v-240h-390q-268 0 -421.5 104.5z" />
    <glyph glyph-name="afii61289" unicode="&#x2113;" horiz-adv-x="1088" 
d="M773.5 9.5q-79.5 -40.5 -169.5 -40.5q-132 0 -207 78q-41 42 -62.5 113.5t-21.5 148.5v160l-118 -119l-74 111l192 190v426q0 129 36.5 222.5t105.5 142.5t166 49q81 0 132.5 -36.5t75 -92t23.5 -115.5q0 -138 -63 -262.5t-183 -261.5q-50 -61 -74 -84v-305
q0 -101 35.5 -148t98.5 -47q48 0 91 26.5t83 65.5l71 -127q-58 -54 -137.5 -94.5zM690 1292q-19 29 -55 29q-51 0 -77 -52.5t-26 -152.5v-287q31 36 43 56q62 81 98 170.5t36 161.5q0 46 -19 75z" />
    <glyph glyph-name="trademark" unicode="&#x2122;" horiz-adv-x="1594" 
d="M37 1221v139h555v-139h-191v-547h-170v547h-194zM1167 674h-200l-127 555v-555h-168v686h293l102 -492l102 492h295v-686h-170v555z" />
    <glyph glyph-name="uni2126" unicode="&#x2126;" horiz-adv-x="1367" 
d="M934.5 410.5q83.5 133.5 83.5 316.5q0 191 -86.5 299.5t-247.5 108.5q-107 0 -182.5 -49t-114.5 -141t-39 -218q0 -183 84.5 -316t220.5 -204v-207h-567v238h182q-72 81 -124 203t-52 288q0 199 71 346t204.5 227t316.5 80q182 0 315 -80t204 -227.5t71 -345.5
q0 -173 -51.5 -295t-122.5 -196h180v-238h-565v207q136 70 219.5 203.5z" />
    <glyph glyph-name="estimated" unicode="&#x212e;" horiz-adv-x="1730" 
d="M1274.5 1284q174.5 -98 267 -263.5t92.5 -363.5h-1228q-11 0 -19 -7.5t-8 -16.5v-336q0 -31 6.5 -51.5t24.5 -36.5q89 -88 203 -135t251 -47q145 0 272 59.5t210 159.5h137q-50 -70 -134 -131t-207.5 -100.5t-277.5 -39.5q-229 0 -403.5 90t-270.5 249.5t-96 361.5
q0 199 93.5 360t268 253.5t408.5 92.5q236 0 410.5 -98zM613 1281q-114 -48 -203 -138q-18 -17 -24.5 -35t-6.5 -47v-336q0 -10 8 -17.5t19 -7.5h915q11 0 19 7.5t8 17.5v336q0 28 -6.5 46.5t-24.5 35.5q-98 97 -213.5 141.5t-239.5 44.5q-137 0 -251 -48z" />
    <glyph glyph-name="partialdiff" unicode="&#x2202;" horiz-adv-x="1093" 
d="M493.5 1281.5q146.5 -57.5 245.5 -151.5q124 -113 202.5 -276.5t78.5 -366.5q0 -150 -57 -265t-163 -178.5t-249 -63.5q-146 0 -254 55t-166.5 159.5t-58.5 249.5q0 144 56 247t157 156.5t233 53.5q78 0 137 -20q-46 61 -114 116q-64 48 -174 90t-209 58l61 211
q128 -17 274.5 -74.5zM715.5 268q60.5 63 60.5 176q0 114 -60.5 178t-166.5 64q-108 0 -169 -63.5t-61 -176.5q0 -114 61 -177.5t169 -63.5q106 0 166.5 63z" />
    <glyph glyph-name="uni2206" unicode="&#x2206;" horiz-adv-x="1253" 
d="M1262 0h-1270l635 1423zM899 227l-272 643l-275 -643h547z" />
    <glyph glyph-name="product" unicode="&#x220f;" horiz-adv-x="1385" 
d="M918 -59v1185h-451v-1185h137v-234h-538v234h157v1185h-157v234h1253v-234h-160v-1185h160v-234h-543v234h142z" />
    <glyph glyph-name="summation" unicode="&#x2211;" horiz-adv-x="1238" 
d="M530 555l-467 608v197h1029v-512h-238v278h-461l443 -573l-455 -612h502v299h239v-533h-1075v195z" />
    <glyph glyph-name="minus" unicode="&#x2212;" 
d="M1253 780v-200h-1052v200h1052z" />
    <glyph glyph-name="radical" unicode="&#x221a;" horiz-adv-x="1531" 
d="M225 250v201h295l133 -549l348 1458h445v-201h-279l-376 -1478h-273l-145 569h-148z" />
    <glyph glyph-name="infinity" unicode="&#x221e;" 
d="M622 391q-66 -49 -167 -49q-104 0 -179.5 40.5t-116 116.5t-40.5 181q0 104 40 180t115.5 117t180.5 41q164 0 272 -158q39 60 105 109t167 49q104 0 179.5 -40.5t116 -116.5t40.5 -181q0 -104 -40 -180t-115.5 -117t-180.5 -41q-164 0 -272 158q-39 -60 -105 -109z
M459 831q-69 0 -108.5 -41t-39.5 -110t39.5 -110.5t108.5 -41.5q105 0 186 152q-82 151 -186 151zM995 528q69 0 108.5 41.5t39.5 110.5t-39.5 110t-108.5 41q-104 0 -186 -151q81 -152 186 -152z" />
    <glyph glyph-name="integral" unicode="&#x222b;" horiz-adv-x="812" 
d="M193 -133q48 0 70 8t30 29.5t8 68.5v1239q0 108 24 166t82 82.5t166 24.5h191v-193h-146q-48 0 -70 -8t-30 -30t-8 -70v-1237q0 -108 -24 -166t-82 -82.5t-166 -24.5h-191v193h146z" />
    <glyph glyph-name="approxequal" unicode="&#x2248;" 
d="M433 803q-22 -8 -30 -29.5t-8 -68.5v-52h-194v86q0 108 24 166t82 82.5t166 24.5h479q47 0 69 8t30.5 29.5t9.5 68.5v51h192v-86q0 -108 -24 -166t-82 -82t-166 -24h-479q-47 0 -69 -8zM433 340q-22 -8 -30 -29.5t-8 -68.5v-52h-194v86q0 108 24 166t82 82.5t166 24.5
h479q47 0 69 8t30.5 29.5t9.5 68.5v56h192v-86q0 -108 -24.5 -167t-82.5 -84.5t-165 -25.5h-479q-47 0 -69 -8z" />
    <glyph glyph-name="notequal" unicode="&#x2260;" 
d="M410 139l82 209h-291v201h366l101 262h-467v201h542l80 209h221l-81 -209h290v-201h-366l-101 -262h467v-201h-542l-80 -209h-221z" />
    <glyph glyph-name="lessequal" unicode="&#x2264;" 
d="M1253 1356v-203l-796 -317l796 -318v-205l-1052 420v203zM1253 201v-201h-1052v201h1052z" />
    <glyph glyph-name="greaterequal" unicode="&#x2265;" 
d="M997 834l-796 317v205l1052 -420v-203l-1052 -420v203zM1253 201v-201h-1052v201h1052z" />
    <glyph glyph-name="lozenge" unicode="&#x25ca;" 
d="M1294 680l-567 -719l-567 719l567 721zM416 680l311 -404l311 404l-311 405z" />
    <glyph glyph-name="uni25CC" unicode="&#x25cc;" horiz-adv-x="1048" 
d="M586 842q0 -31 -16.5 -47.5t-47.5 -16.5q-61 0 -61 64q0 32 15 46.5t46 14.5q64 0 64 -61zM391 795q0 -66 -65 -66q-29 0 -44.5 17t-15.5 49q0 59 60 59q65 0 65 -59zM778 795q0 -66 -59 -66q-31 0 -48.5 17t-17.5 49q0 29 17.5 44t48.5 15q59 0 59 -59zM246 649
q0 -63 -64 -63q-31 0 -45 15.5t-14 47.5q0 62 59 62q64 0 64 -62zM924 649q0 -63 -62 -63q-32 0 -46.5 15t-14.5 48q0 31 14.5 46.5t46.5 15.5q62 0 62 -62zM197 453q0 -30 -17.5 -46t-48.5 -16q-57 0 -57 62q0 61 57 61q66 0 66 -61zM973 453q0 -62 -62 -62q-61 0 -61 62
q0 61 61 61q62 0 62 -61zM246 258q0 -61 -64 -61q-30 0 -44.5 15t-14.5 46t14.5 46t44.5 15q64 0 64 -61zM924 258q0 -61 -62 -61q-32 0 -46.5 15t-14.5 46t14.5 46t46.5 15q62 0 62 -61zM375.5 159q15.5 -15 15.5 -46q0 -62 -65 -62q-60 0 -60 62q0 61 60 61q34 0 49.5 -15
zM778 113q0 -62 -59 -62q-66 0 -66 62q0 29 17.5 45t48.5 16q59 0 59 -61zM569.5 110.5q16.5 -16.5 16.5 -47.5q0 -30 -16.5 -45.5t-47.5 -15.5q-61 0 -61 61q0 64 61 64q31 0 47.5 -16.5z" />
    <glyph glyph-name="uni274A" unicode="&#x274a;" horiz-adv-x="1433" 
d="M1149 1044l108 -139l-364 -278l436 -90l-41 -164l-430 108l203 -411l-158 -78l-184 420l-195 -416l-159 78l208 407l-432 -100l-37 164l437 84l-361 282l113 140l346 -297l-12 456h184l-14 -458z" />
    <glyph glyph-name="uniFBC0" unicode="&#xfbc0;" horiz-adv-x="0" 
d="M-115 1106v82h62v301h86v-119h246q61 0 85.5 -24t24.5 -82v-158h-504zM33 1188h268v61q0 22 -8.5 30.5t-30.5 8.5h-229v-100z" />
    <glyph glyph-name="uniFD3E" unicode="&#xfd3e;" horiz-adv-x="1015" 
d="M430 348q0 17 -14 31l-107 147q-10 18 -10 27q0 8 5.5 13t14.5 5t11 -2l125 -22q26 100 117 223t189 213t134 90q6 0 11 -4t5 -10q0 -10 -10 -23q-262 -284 -285 -491l86 12q7 0 12 1t7 1q20 0 20 -16q0 -8 -12 -23l-115 -133q-20 -20 -20 -35q0 -14 18 -14q14 0 27 8
l137 103q10 8 19.5 12t13.5 4q6 0 10 -6t4 -17v-104q37 -12 74 -38.5t37 -55.5q0 -23 -27.5 -45.5t-83.5 -46.5v-99q0 -35 -14 -35q-12 0 -27 13l-143 110q-15 11 -29 11q-18 0 -18 -19q0 -12 20 -33l115 -131q12 -18 12 -22q0 -19 -20 -19q-6 0 -11 1t-8 1l-84 13
q20 -207 283 -490q10 -13 10 -22q0 -8 -4.5 -12.5t-9.5 -4.5q-37 0 -135.5 90t-189.5 213.5t-117 223.5l-125 -23q-2 -2 -9 -2q-10 0 -16 5.5t-6 15.5q0 9 12 24l105 148q3 4 9.5 13t6.5 15q0 23 -20 23q-13 0 -37 -23l-123 -106q-19 -17 -33 -17q-11 0 -17.5 11.5
t-6.5 31.5v97q-109 39 -109 90q0 18 28 42.5t81 51.5v104q0 17 6.5 26t17.5 9q12 0 29 -16l135 -117q10 -8 15.5 -11t11.5 -3q22 0 22 18zM582.5 589q13.5 44 40.5 103v80q-46 -49 -84 -128.5t-54 -147.5l-118 26l88 -125v54h41l36 57v-57h39v-50l105 109l-6 4l-109 -20
q8 51 21.5 95zM291 225q-15 2 -32 9.5t-21 9.5q19 16 53 22v33h80l-131 107v-99q-111 -36 -111 -61q0 -16 28 -32t83 -30v-96l131 98h-80v39zM883 261q-8 8 -27 18q-37 20 -74 28v96l-129 -100h74v-37q38 -3 57 -22q-29 -17 -57 -19v-35h-76l-4 -4l135 -98v98q109 29 109 58
q0 9 -8 17zM576 311.5q-26 26.5 -64 26.5q-37 0 -62.5 -25.5t-25.5 -62.5q0 -40 27 -64q23 -26 61 -26t64 26t26 62q0 37 -26 63.5zM569 37h-39v-57l-36 57h-41v53l-88 -125l116 27q21 -74 57.5 -152t82.5 -125v80q-27 61 -40.5 105.5t-21.5 93.5l111 -21l4 7l-105 106v-49z
" />
    <glyph glyph-name="uniFD3F" unicode="&#xfd3f;" horiz-adv-x="1015" 
d="M635 344l135 117q16 16 29 16q11 0 17.5 -9t6.5 -26v-104q53 -27 81 -51.5t28 -42.5q0 -51 -109 -90v-97q0 -20 -6.5 -31.5t-17.5 -11.5q-14 0 -33 17l-123 106q-24 23 -37 23q-20 0 -20 -23q0 -6 6.5 -15t9.5 -13l105 -148q12 -15 12 -24q0 -21 -23 -21q-6 0 -8 2
l-125 23q-26 -100 -117 -223.5t-189.5 -213.5t-135.5 -90q-5 0 -10 4.5t-5 12.5q0 7 11 22q263 286 282 490l-84 -13q-3 0 -7 -1t-11 -1q-9 0 -15 5t-6 14q0 3 5 10.5t8 11.5l114 131q21 21 21 33q0 19 -18 19q-14 0 -29 -11l-144 -110q-14 -13 -26 -13q-14 0 -14 35v99
q-56 24 -83.5 46.5t-27.5 45.5q0 29 37 55.5t74 38.5v104q0 11 4 17t10 6q4 0 13.5 -4t19.5 -12l137 -103q13 -8 26 -8q19 0 19 14q0 15 -21 35l-114 133q-13 16 -13 23q0 16 21 16q2 0 6.5 -1t11.5 -1l86 -12q-22 206 -284 491q-11 15 -11 23q0 6 5.5 10t11.5 4
q36 0 134 -90t189 -213t117 -223l125 22q2 2 10 2q10 0 15.5 -5t5.5 -13q0 -9 -10 -27l-107 -147q-14 -14 -14 -31q0 -18 22 -18q10 0 27 14zM444 401v50h39v57l37 -57h41v-54l88 125l-119 -26q-15 67 -52.5 147t-84.5 129v-80q27 -58 39.5 -101t22.5 -97l-109 20l-6 -4z
M776 184q55 14 83 30t28 32q0 25 -111 61v99l-131 -107h80v-33q34 -6 53 -22q-14 -6 -28.5 -12t-24.5 -7v-39h-80l131 -98v96zM233 186v-98l136 98l-4 4h-76v35q-27 2 -58 19q20 19 58 22v37h73l-129 100v-96q-36 -8 -73 -28q-19 -10 -27 -18t-8 -17q0 -29 108 -58zM440 186
q26 -26 64 -26t61 26q27 24 27 64q0 37 -25.5 62.5t-62.5 25.5q-38 0 -64 -26.5t-26 -63.5q0 -36 26 -62zM457 -6q-9 -50 -22.5 -95t-39.5 -104v-80q46 47 82.5 125t57.5 152l116 -27l-88 125v-53h-41l-37 -57v57h-39v49l-104 -106l4 -7z" />
    <glyph glyph-name="glyph416" horiz-adv-x="1672" 
d="M457 0q-201 0 -296 102.5t-95 300.5v314h251v-289q0 -100 48 -146t153 -46h768v682h252v-918h-1081z" />
    <glyph glyph-name="glyph417" horiz-adv-x="2190" 
d="M457 0q-201 0 -296 102.5t-95 300.5v314h251v-289q0 -100 48 -146t153 -46h664v278q0 198 95.5 301t295.5 103h483v-918h-1599zM1481.5 636q-47.5 -46 -47.5 -147v-253h366v446h-166q-105 0 -152.5 -46z" />
    <glyph glyph-name="glyph418" horiz-adv-x="1684" 
d="M1390 -223.5q-150 -159.5 -436 -159.5h-301q-297 0 -442 152.5t-145 459.5v174h253v-176q0 -178 78 -263t246 -85h305q180 0 256.5 91t81.5 266h-618v514q0 198 95 300.5t296 102.5h483l-2 -917q0 -300 -150 -459.5zM969.5 871.5q-47.5 -46.5 -47.5 -146.5v-254h366v447
h-166q-105 0 -152.5 -46.5z" />
    <glyph glyph-name="glyph419" horiz-adv-x="957" 
d="M587 1407q-37 0 -52 -14.5t-15 -51.5v-106h221v-117h-440v117h94v110q0 96 43.5 138t144.5 42h129v-118h-125zM66 0v514q0 198 95.5 301t295.5 103h483v-918h-874zM365 636q-48 -46 -48 -147v-253h367v446h-166q-105 0 -153 -46z" />
    <glyph glyph-name="glyph420" horiz-adv-x="1074" 
d="M454 1348q30 -18 47 -48.5t17 -66.5q0 -34 -17.5 -63.5t-47 -47.5t-64.5 -18t-65 18t-48 47.5t-18 63.5q0 36 17.5 66.5t48 48.5t65.5 18t65 -18zM773 1348q30 -18 47.5 -48.5t17.5 -66.5q0 -33 -18 -63t-47.5 -48t-63.5 -18q-36 0 -67.5 18t-50 47.5t-18.5 63.5
q0 36 18.5 66.5t50 48.5t67.5 18q34 0 64 -18zM66 0v514q0 198 95.5 301t295.5 103h483v-918h-874zM365 636q-48 -46 -48 -147v-253h367v446h-166q-105 0 -153 -46z" />
    <glyph glyph-name="glyph421" horiz-adv-x="1074" 
d="M66 0v514q0 198 95.5 301t295.5 103h483v-918h-874zM365 636q-48 -46 -48 -147v-253h367v446h-166q-105 0 -153 -46z" />
    <glyph glyph-name="glyph422" horiz-adv-x="451" 
d="M-49 10q-17 10 -25 35t-8 72q0 49 8.5 74.5t25.5 35t48 9.5h451q30 0 47.5 -9.5t25.5 -35t8 -74.5q0 -47 -7.5 -72t-24.5 -35t-49 -10h-451q-32 0 -49 10z" />
    <glyph glyph-name="glyph423" horiz-adv-x="748" 
d="M748 236q30 0 47.5 -9.5t25.5 -35t8 -74.5q0 -47 -7.5 -72t-24.5 -35t-49 -10h-748q-32 0 -49 10t-25 35t-8 72q0 49 8.5 74.5t25.5 35t48 9.5h328v682h252v-682h168z" />
    <glyph glyph-name="glyph424" horiz-adv-x="733" 
d="M0 0q-32 0 -49 10t-25 35t-8 72q0 49 8.5 74.5t25.5 35t48 9.5h348v682h252v-918h-600z" />
    <glyph glyph-name="uniFEDF_uniFEE0_uniFEEA.dlig" horiz-adv-x="2444" 
d="M51 0v528q0 141 42.5 226.5t132 124.5t233.5 39h426v-682h481v1130h252v-1130h430v1130h252v-1366h-2249zM337 649.5q-34 -32.5 -34 -108.5v-305h330v446h-184q-78 0 -112 -32.5z" />
    <glyph glyph-name="glyph434" horiz-adv-x="1308" 
d="M1129 182q-45 -87 -130 -134.5t-204 -47.5h-734v236h723q67 0 101.5 36t34.5 109v987h254v-983q0 -116 -45 -203zM365 381v819h253v-819h-253zM635.5 1542.5q13.5 -3.5 26.5 -12.5q22 -22 22 -68v-126h-403v65h53v145h262q26 0 39.5 -3.5zM404 1401h211v49q0 17 -7 24
t-24 7h-180v-80z" />
    <glyph glyph-name="glyph435" horiz-adv-x="1308" 
d="M1307 236q31 0 48 -9.5t25.5 -35t8.5 -74.5q0 -47 -8 -72t-25 -35t-49 -10h-1246v236h859v1132h254v-1132h133zM365 381v819h253v-819h-253zM635.5 1542.5q13.5 -3.5 26.5 -12.5q22 -22 22 -68v-126h-403v65h53v145h262q26 0 39.5 -3.5zM404 1401h211v49q0 17 -7 24
t-24 7h-180v-80z" />
    <glyph glyph-name="afii57392.pnum" horiz-adv-x="816" 
d="M407 217l-233 234l233 231l234 -233z" />
    <glyph glyph-name="afii57393.pnum" horiz-adv-x="585" 
d="M174 0v1366h235v-1366h-235z" />
    <glyph glyph-name="afii57394.pnum" horiz-adv-x="1031" 
d="M961 1084q-8 -45 -41 -91q-49 -64 -117.5 -88t-158.5 -24h-236v-881h-233v1366h237v-260h246q38 0 59 20t21 58v182h231v-162q0 -75 -8 -120z" />
    <glyph glyph-name="afii57395.pnum" horiz-adv-x="1199" 
d="M1073 960.5q-84 -79.5 -239 -79.5h-426v-881h-234v1366h238v-260h143v260h217v-260h68q40 0 63 21.5t23 60.5v178h231v-162q0 -164 -84 -243.5z" />
    <glyph glyph-name="afii57396.pnum" horiz-adv-x="1035" 
d="M609 1139q-84 0 -137.5 -41t-53.5 -123q0 -81 53 -119.5t138 -38.5h235v-225h-293q-54 0 -96.5 -23.5t-67 -66t-24.5 -96.5q0 -83 46.5 -132t131.5 -49h391v-225h-385q-193 0 -308.5 89t-115.5 280q0 113 51.5 206.5t149.5 133.5q-67 49 -104 122.5t-37 159.5
q0 179 112.5 276t317.5 97h233v-225h-237z" />
    <glyph glyph-name="afii57397.pnum" horiz-adv-x="1205" 
d="M1002 981l57 -635l2 -22q0 -113 -67 -186t-171.5 -105.5t-222.5 -32.5q-114 0 -217 30t-171 102.5t-68 191.5v22l57 635q17 118 57 201.5t123 133.5t221 50q356 0 400 -385zM484 1100q-38 -28 -45 -99l-62 -602v-14q0 -58 62.5 -88.5t162.5 -30.5q102 0 162 31t60 88v14
l-62 602q-7 71 -44.5 99t-115.5 28q-80 0 -118 -28z" />
    <glyph glyph-name="afii57398.pnum" horiz-adv-x="986" 
d="M575 0v1141h-534v225h770v-1366h-236z" />
    <glyph glyph-name="afii57399.pnum" horiz-adv-x="1148" 
d="M457 0l-404 1352h248l270 -928l273 928h250l-408 -1352h-229z" />
    <glyph glyph-name="afii57400.pnum" horiz-adv-x="1148" 
d="M844 0l-273 926l-270 -926h-248l404 1352h229l408 -1352h-250z" />
    <glyph glyph-name="afii57401.pnum" horiz-adv-x="1064" 
d="M655 0v618h-143q-112 0 -200.5 44t-139 127t-50.5 198q0 116 46 201.5t133.5 131.5t207.5 46h379v-1366h-233zM394.5 1100q-34.5 -39 -34.5 -107q0 -69 35.5 -109t101.5 -40h158v295h-158q-68 0 -102.5 -39z" />
    <glyph glyph-name="uni06F0.pnum" horiz-adv-x="816" 
d="M407 217l-233 234l233 231l234 -233z" />
    <glyph glyph-name="uni06F1.pnum" horiz-adv-x="585" 
d="M174 0v1366h235v-1366h-235z" />
    <glyph glyph-name="uni06F2.pnum" horiz-adv-x="1031" 
d="M961 1084q-8 -45 -41 -91q-49 -64 -117.5 -88t-158.5 -24h-236v-881h-233v1366h237v-260h246q38 0 59 20t21 58v182h231v-162q0 -75 -8 -120z" />
    <glyph glyph-name="uni06F3.pnum" horiz-adv-x="1199" 
d="M1073 960.5q-84 -79.5 -239 -79.5h-426v-881h-234v1366h238v-260h143v260h217v-260h68q40 0 63 21.5t23 60.5v178h231v-162q0 -164 -84 -243.5z" />
    <glyph glyph-name="uni06F4.pnum" horiz-adv-x="1127" 
d="M492 1102q0 133 70.5 198.5t199.5 65.5h123l-66 -205q-45 0 -70.5 -8t-37 -28.5t-11.5 -59.5v-47h93q27 0 44.5 3.5t35.5 18t34 45.5l189 -127q-50 -84 -131 -124.5t-174 -40.5h-383v-793h-234v1366h238v-348h80v84z" />
    <glyph glyph-name="uni06F5.pnum" horiz-adv-x="1222" 
d="M897.5 1262q95.5 -104 112.5 -281l67 -737q0 -119 -76 -181.5t-200 -62.5q-105 0 -191 72q-73 -70 -178 -70q-130 0 -209.5 64t-79.5 184l66 731q15 179 106 282t295 103q192 0 287.5 -104zM492 1100q-38 -28 -45 -99l-68 -667q0 -36 34 -57t81 -21q54 0 116 29
q62 -29 119 -29q109 0 109 76l-68 667q-7 72 -44.5 100.5t-115.5 28.5q-80 0 -118 -28z" />
    <glyph glyph-name="uni06F6.pnum" horiz-adv-x="892" 
d="M768 662l-383 -662h-250l361 616h-25q-171 0 -259.5 94t-88.5 279q0 106 46.5 192t131.5 135.5t195 49.5h270v-225h-278q-62 0 -95.5 -37.5t-33.5 -114.5q0 -80 33 -115.5t96 -35.5h280v-176z" />
    <glyph glyph-name="uni06F7.pnum" horiz-adv-x="1148" 
d="M457 0l-404 1352h248l270 -928l273 928h250l-408 -1352h-229z" />
    <glyph glyph-name="uni06F8.pnum" horiz-adv-x="1148" 
d="M844 0l-273 926l-270 -926h-248l404 1352h229l408 -1352h-250z" />
    <glyph glyph-name="uni06F9.pnum" horiz-adv-x="1064" 
d="M655 0v618h-143q-112 0 -200.5 44t-139 127t-50.5 198q0 116 46 201.5t133.5 131.5t207.5 46h379v-1366h-233zM394.5 1100q-34.5 -39 -34.5 -107q0 -69 35.5 -109t101.5 -40h158v295h-158q-68 0 -102.5 -39z" />
    <glyph glyph-name="glyph563" horiz-adv-x="2784" 
d="M764 1425v45h35v-38q0 -17 6 -25t20 -8q27 0 27 31v30h35v-28q0 -33 28 -33q23 0 23 31v40h35v-45q0 -31 -15 -46t-40 -15q-13 0 -26 5t-22 17q-9 -13 -22.5 -17.5t-24.5 -4.5q-59 0 -59 61zM1124 889h-161q-49 0 -70 33q-23 -33 -90 -33h-211q-34 0 -57.5 9.5
t-36.5 31.5h-72q-92 0 -136 34.5t-44 104.5q0 154 188 154q23 0 59.5 -2.5t55.5 -6.5v-210q0 -30 12 -46t43 -16h184q30 0 41 14.5t11 47.5v307h65v-342q0 -14 16.5 -20.5t34.5 -6.5h105v506h63v-559zM1125.5 728q-66.5 34 -81.5 108l66 10q14 -51 62.5 -74.5t142.5 -23.5
q59 0 103.5 12.5t68.5 32.5t24 43q0 26 -38.5 43.5t-106.5 37.5l-31 9v57q108 -41 187 -41h77q31 0 41.5 14t10.5 48v444h65v-479q0 -14 17 -20.5t36 -6.5h287v275h66v-27q127 27 207 27q114 0 161 -47.5t47 -139.5v-141h-761q-52 0 -70 33q-12 -15 -33 -24t-57 -9h-72
q35 -25 35 -53q0 -34 -31.5 -67t-91.5 -54t-143 -21q-121 0 -187.5 34zM1208 1448h64v-559h-64v559zM2159 1393l221 26v-35l-221 -26v35zM1323 1225l221 26v-34l-221 -27v35zM430 1174q-117 0 -117 -99q0 -49 31 -71.5t94 -22.5h45v186q-42 7 -53 7zM2470 1008
q0 86 -35.5 121.5t-116.5 35.5q-74 0 -196 -24v-199h348v66zM745 299h-143q-34 0 -57.5 9.5t-36.5 31.5h-72q-92 0 -136 34.5t-44 104.5q0 78 48.5 116t139.5 38q22 0 58.5 -2.5t56.5 -5.5v-211q0 -30 12 -46t43 -16h68v455h63v-508zM840 807h63v-508h-63v508zM2167 299
q-46 0 -70 33q-23 -33 -90 -33h-57q-47 0 -70 33q-23 -33 -90 -33h-78q-69 0 -94 43h-72q-180 0 -180 137q0 80 49.5 118t140.5 38q25 0 59 -2.5t54 -5.5v-211q0 -30 12 -46t43 -16h52q30 0 40.5 14t10.5 48v213h65v-248q0 -14 16.5 -20.5t35.5 -6.5h47q31 0 41 14t10 48
v391h65v-426q0 -14 17 -20.5t37 -6.5h94q-33 68 -33 127q0 68 45.5 112t130.5 44q23 0 49.5 -2.5t40.5 -5.5v-51q-30 6 -78 6q-52 0 -86 -27t-34 -86q0 -51 34 -117h207v-55h-364zM1257 627h5v-305q0 -80 -34.5 -119t-123.5 -39h-94v51h94q46 0 67.5 20t22.5 64h-45
q-110 0 -150.5 49.5t-40.5 116.5q0 79 51 124.5t158 45.5q38 0 90 -8zM440 584q-116 0 -116 -99q0 -49 31 -71.5t94 -22.5h45v187q-38 6 -54 6zM1181.5 583q-6.5 1 -14.5 1q-62 0 -103.5 -23t-41.5 -96q0 -113 131 -113h41v230q-6 0 -12.5 1zM1550 584q-116 0 -116 -97
q0 -49 31.5 -71.5t93.5 -22.5h45v187q-25 4 -54 4zM1832.5 231.5q12.5 -12.5 12.5 -28.5q0 -17 -12 -29t-31 -12q-17 0 -29 12t-12 29q0 15 12.5 28t28.5 13q18 0 30.5 -12.5zM1933.5 174q-12.5 -12 -30.5 -12q-16 0 -28.5 12t-12.5 29q0 15 12.5 28t28.5 13
q18 0 30.5 -12.5t12.5 -28.5q0 -17 -12.5 -29zM2107 -291h-634q-23 0 -40 7.5t-30 25.5q-25 -33 -88 -33h-674q-45 -65 -125 -65h-117q-2 8 -11 27l-15 38h-25q-23 0 -31 -11t-8 -46v-137h-63v190q0 57 57 57h53q-8 28 -8 64q0 67 44 111.5t120 44.5q55 0 91 -24t52.5 -61.5
t16.5 -78.5q0 -22 -8 -56h636q30 0 40 14t10 48v385h65v-420q0 -13 17 -20t34 -7h209v205h66v-205h104v205h66v-205h131v275h65v-328zM881 47l221 27v-35l-221 -27v35zM2513 37h4v-305q0 -80 -34.5 -119t-123.5 -39h-94v51h94q46 0 67 20t23 64h-45q-109 0 -149.5 49.5
t-40.5 116.5q0 79 50.5 124.5t158.5 45.5q36 0 90 -8zM2437 -7q-6 1 -14 1q-63 0 -104.5 -23t-41.5 -96q0 -113 131 -113h41v230q-6 0 -12 1zM883 -61v45h35v-39q0 -17 6 -25t20 -8q27 0 27 31v30h35v-28q0 -33 28 -33q23 0 23 31v41h35v-45q0 -31 -15 -46.5t-41 -15.5
q-12 0 -25.5 5t-21.5 18q-9 -14 -22.5 -18.5t-24.5 -4.5q-59 0 -59 62zM579.5 -266q24.5 35 24.5 82q0 51 -24.5 81.5t-69.5 30.5q-40 0 -67 -25.5t-27 -78.5q0 -62 33 -125h59q47 0 71.5 35zM1343 -479v94h48v-94h41v94h43v-94h57v129h45v-168h-444v39h210z" />
    <glyph glyph-name="glyph577" horiz-adv-x="0" 
d="M133.5 1679.5q13.5 -3.5 26.5 -12.5q22 -22 22 -68v-126h-403v65h53v145h262q26 0 39.5 -3.5zM-98 1538h211v49q0 17 -7 24t-24 7h-180v-80z" />
    <glyph glyph-name="glyph582" horiz-adv-x="0" 
d="M98 2058.5q-68 -59.5 -188 -59.5h-57v69h57q79 0 115.5 24.5t50.5 61.5h-66q-69 0 -109 37.5t-40 100.5q0 42 20 77t55 55.5t76 20.5q69 0 111.5 -46t42.5 -140q0 -141 -68 -200.5zM-39.5 2238.5q28.5 -16.5 59.5 -16.5h72q2 22 2 32q0 53 -20 87.5t-62 34.5
q-37 0 -58.5 -26t-21.5 -58q0 -37 28.5 -53.5zM207 1528h-440v117h94v110q0 96 43.5 138t144.5 42h129v-118h-125q-37 0 -52 -14.5t-15 -51.5v-106h221v-117z" />
    <glyph glyph-name="glyph583" horiz-adv-x="0" 
d="M-207.5 2238q-19.5 25 -62.5 25v72q70 0 112.5 -46t42.5 -137v-75h121q137 0 171 86h-71q-69 0 -109 37t-40 100q0 42 20.5 77.5t55.5 56t76 20.5q70 0 111.5 -50t41.5 -159q0 -126 -68.5 -182t-187.5 -56h-194v145q0 61 -19.5 86zM190 2247q0 69 -22 103t-59 34
q-38 0 -59 -24.5t-21 -59.5q0 -38 25.5 -54t62.5 -16h73v17zM207 1645v-117h-440v117h94v110q0 96 43.5 138t144.5 42h129v-118h-125q-37 0 -52 -14.5t-15 -51.5v-106h221z" />
    <glyph glyph-name="glyph584" horiz-adv-x="0" 
d="M-260 2019v70h520v-70h-520zM53 1817q-37 0 -52 -14.5t-15 -51.5v-106h221v-117h-440v117h94v110q0 96 43.5 138t144.5 42h129v-118h-125z" />
    <glyph glyph-name="glyph585" horiz-adv-x="0" 
d="M-260 2183v70h520v-70h-520zM-260 2023v70h520v-70h-520zM53 1817q-37 0 -52 -14.5t-15 -51.5v-106h221v-117h-440v117h94v110q0 96 43.5 138t144.5 42h129v-118h-125z" />
    <glyph glyph-name="glyph586" horiz-adv-x="0" 
d="M86 2302q38 -22 60 -59.5t22 -81.5t-22 -81.5t-60 -59t-82 -21.5t-81.5 21.5t-59 59t-21.5 81.5t21.5 81.5t59 59.5t81.5 22t82 -22zM-57.5 2226.5q-26.5 -26.5 -26.5 -63.5t26.5 -63.5t63.5 -26.5t63.5 26.5t26.5 63.5t-26.5 63.5t-63.5 26.5t-63.5 -26.5zM53 1817
q-37 0 -52 -14.5t-15 -51.5v-106h221v-117h-440v117h94v110q0 96 43.5 138t144.5 42h129v-118h-125z" />
    <glyph glyph-name="glyph587" horiz-adv-x="0" 
d="M53 -338q-37 0 -52 -14.5t-15 -50.5v-107h221v-117h-440v117h94v111q0 96 43.5 138t144.5 42h129v-119h-125zM-272 -768v70h520v-70h-520z" />
    <glyph glyph-name="glyph588" horiz-adv-x="0" 
d="M53 -338q-37 0 -52 -14.5t-15 -50.5v-107h221v-117h-440v117h94v111q0 96 43.5 138t144.5 42h129v-119h-125zM-272 -768v70h520v-70h-520zM-272 -928v70h520v-70h-520z" />
    <glyph glyph-name="uni0670_afii57457.ccmp" horiz-adv-x="0" 
d="M-39 1968v428h78v-428h-78zM220 1615.5q-40 -44.5 -109 -44.5q-72 0 -111 45q-39 -45 -111 -45q-69 0 -109 44.5t-40 117.5v165h78v-172q0 -38 19 -59.5t52 -21.5t52.5 19t19.5 54v180h78v-180q0 -35 19.5 -54t52.5 -19t52 21.5t19 59.5v172h78v-165q0 -73 -40 -117.5z
" />
    <glyph glyph-name="afii57455_afii57457.ccmp" horiz-adv-x="0" 
d="M96 2028q-68 -60 -188 -60h-58v70h58q79 0 115.5 24.5t50.5 61.5h-66q-69 0 -109 37t-40 100q0 42 20 77.5t55 56t76 20.5q69 0 111.5 -46.5t42.5 -140.5q0 -140 -68 -200zM-41.5 2207.5q28.5 -16.5 59.5 -16.5h71q2 24 2 36q0 52 -19.5 85t-61.5 33q-37 0 -58.5 -26
t-21.5 -58q0 -37 28.5 -53.5zM260 1733q0 -73 -40 -117.5t-109 -44.5q-72 0 -111 45q-39 -45 -111 -45q-69 0 -109 44.5t-40 117.5v165h78v-172q0 -38 19 -59.5t52 -21.5t52.5 19t19.5 54v180h78v-180q0 -35 19.5 -54t52.5 -19t52 21.5t19 59.5v172h78v-165z" />
    <glyph glyph-name="afii57452_afii57457.ccmp" horiz-adv-x="0" 
d="M-199.5 2199q-19.5 25 -62.5 25v72q70 0 113 -45.5t43 -136.5v-76h120q138 0 172 86h-71q-69 0 -109.5 37t-40.5 100q0 42 20.5 77.5t55.5 56t76 20.5q70 0 111.5 -50t41.5 -159q0 -125 -68.5 -181.5t-187.5 -56.5h-194v146q0 60 -19.5 85zM199 2208q0 69 -22.5 103
t-59.5 34q-38 0 -59 -24.5t-21 -59.5q0 -38 25.5 -54t62.5 -16h74v17zM260 1898v-165q0 -73 -40 -117.5t-109 -44.5q-72 0 -111 45q-39 -45 -111 -45q-69 0 -109 44.5t-40 117.5v165h78v-172q0 -38 19 -59.5t52 -21.5t52.5 19t19.5 54v180h78v-180q0 -35 19.5 -54t52.5 -19
t52 21.5t19 59.5v172h78z" />
    <glyph glyph-name="afii57454_afii57457.ccmp" horiz-adv-x="0" 
d="M-260 1968v70h520v-70h-520zM220 1615.5q-40 -44.5 -109 -44.5q-72 0 -111 45q-39 -45 -111 -45q-69 0 -109 44.5t-40 117.5v165h78v-172q0 -38 19 -59.5t52 -21.5t52.5 19t19.5 54v180h78v-180q0 -35 19.5 -54t52.5 -19t52 21.5t19 59.5v172h78v-165q0 -73 -40 -117.5z
" />
    <glyph glyph-name="afii57451_afii57457.ccmp" horiz-adv-x="0" 
d="M-260 2128v70h520v-70h-520zM-260 1968v70h520v-70h-520zM220 1615.5q-40 -44.5 -109 -44.5q-72 0 -111 45q-39 -45 -111 -45q-69 0 -109 44.5t-40 117.5v165h78v-172q0 -38 19 -59.5t52 -21.5t52.5 19t19.5 54v180h78v-180q0 -35 19.5 -54t52.5 -19t52 21.5t19 59.5v172
h78v-165q0 -73 -40 -117.5z" />
    <glyph glyph-name="afii57456_afii57457.ccmp" horiz-adv-x="0" 
d="M219.5 1766.5q-40.5 -44.5 -108.5 -44.5q-71 0 -111 45q-40 -45 -111 -45q-68 0 -108.5 44.5t-40.5 117.5v166h78v-172q0 -38 19.5 -60t51.5 -22q33 0 52.5 19.5t19.5 54.5v180h78v-180q0 -35 19.5 -54.5t52.5 -19.5q32 0 51.5 22t19.5 60v172h78v-166
q0 -73 -40.5 -117.5zM-260 1583v70h520v-70h-520z" />
    <glyph glyph-name="afii57453_afii57457.ccmp" horiz-adv-x="0" 
d="M219.5 1940.5q-40.5 -44.5 -108.5 -44.5q-71 0 -111 46q-40 -46 -111 -46q-68 0 -108.5 44.5t-40.5 117.5v166h78v-172q0 -38 19.5 -60t51.5 -22q33 0 52.5 19.5t19.5 54.5v180h78v-180q0 -35 19.5 -54.5t52.5 -19.5q32 0 51.5 22t19.5 60v172h78v-166
q0 -73 -40.5 -117.5zM-260 1739v69h520v-69h-520zM-260 1579v70h520v-70h-520z" />
    <glyph glyph-name="afii57396.aalt.pnum" horiz-adv-x="1197" 
d="M611.5 1337.5q62.5 -42.5 111.5 -112.5q56 -76 88.5 -108t67.5 -32q17 0 29 12.5t12 39.5v229h235v-209q0 -145 -70 -220t-192 -75q-87 0 -145.5 37t-118.5 117l-18 23q-44 59 -74.5 88.5t-61.5 29.5q-30 0 -47.5 -23t-17.5 -57v-1077h-236v1065q0 87 37 159t102.5 114
t147.5 42q88 0 150.5 -42.5z" />
    <glyph glyph-name="afii57399.aalt.pnum" horiz-adv-x="891" 
d="M864 225v-225h-860l2 205l553 1161h239l-538 -1141h604z" />
    <glyph glyph-name="glyph608" horiz-adv-x="201" 
d="M249 226.5q17 -9.5 25.5 -35t8.5 -74.5q0 -47 -8 -72t-25 -35t-49 -10h-201q-32 0 -49 10t-25 35t-8 72q0 49 8.5 74.5t25.5 35t48 9.5h201q31 0 48 -9.5z" />
    <glyph glyph-name="glyph609" horiz-adv-x="1092" 
d="M1140 226.5q17 -9.5 25.5 -35t8.5 -74.5q0 -47 -8 -72t-25 -35t-49 -10h-1092q-32 0 -49 10t-25 35t-8 72q0 49 8.5 74.5t25.5 35t48 9.5h1092q31 0 48 -9.5z" />
    <glyph glyph-name="afii57396.aalt" horiz-adv-x="1209" 
d="M537.5 1337.5q62.5 -42.5 111.5 -112.5q56 -76 88.5 -108t67.5 -32q17 0 29 12.5t12 39.5v229h235v-209q0 -145 -70 -220t-192 -75q-87 0 -145.5 37t-118.5 117l-18 23q-44 59 -74.5 88.5t-61.5 29.5q-30 0 -47.5 -23t-17.5 -57v-1077h-236v1065q0 87 37 159t102.5 114
t147.5 42q88 0 150.5 -42.5z" />
    <glyph glyph-name="afii57399.aalt" horiz-adv-x="1148" 
d="M1020 225v-225h-860l2 205l553 1161h239l-538 -1141h604z" />
    <glyph glyph-name="glyph613" horiz-adv-x="625" 
d="M196 1348q30 -18 47 -48.5t17 -66.5q0 -34 -17.5 -63.5t-47 -47.5t-64.5 -18t-65 18t-48 47.5t-18 63.5q0 36 17.5 66.5t48 48.5t65.5 18t65 -18zM515 1348q30 -18 47.5 -48.5t17.5 -66.5q0 -33 -18 -63t-47.5 -48t-63.5 -18q-36 0 -67.5 18t-50 47.5t-18.5 63.5
q0 36 18.5 66.5t50 48.5t67.5 18q34 0 64 -18z" />
    <glyph glyph-name="glyph614" horiz-adv-x="614" 
d="M196 -139q30 -18 47 -48.5t17 -66.5q0 -34 -17.5 -63.5t-47 -47.5t-64.5 -18t-65 18t-48 47.5t-18 63.5q0 36 17.5 66.5t48 48.5t65.5 18t65 -18zM515 -139q30 -18 47.5 -48.5t17.5 -66.5q0 -33 -18 -63t-47.5 -48t-63.5 -18q-36 0 -67.5 18t-50 47.5t-18.5 63.5
q0 36 18.5 66.5t50 48.5t67.5 18q34 0 64 -18z" />
    <glyph glyph-name="glyph615" horiz-adv-x="260" 
d="M196 1348q30 -18 47 -48.5t17 -66.5q0 -34 -17.5 -63.5t-47 -47.5t-64.5 -18t-65 18t-48 47.5t-18 63.5q0 36 17.5 66.5t48 48.5t65.5 18t65 -18z" />
    <glyph glyph-name="glyph616" horiz-adv-x="260" 
d="M195 -137q30 -18 47.5 -48t17.5 -65q0 -36 -17.5 -66.5t-47.5 -48.5t-66 -18q-34 0 -64 18t-47.5 49t-17.5 66q0 34 17.5 64.5t47.5 48.5t64 18q36 0 66 -18z" />
    <glyph glyph-name="glyph617" horiz-adv-x="625" 
d="M359.5 1622q29.5 -18 47 -48.5t17.5 -66.5q0 -33 -17.5 -63t-47.5 -48t-64 -18q-36 0 -67 18t-49.5 48t-18.5 63q0 36 18 66.5t49.5 48.5t67.5 18q35 0 64.5 -18zM196 1348q30 -18 47 -48.5t17 -66.5q0 -34 -17.5 -63.5t-47 -47.5t-64.5 -18t-65 18t-48 47.5t-18 63.5
q0 36 17.5 66.5t48 48.5t65.5 18t65 -18zM516 1348.5q30 -17.5 48 -48t18 -65.5q0 -34 -18 -64.5t-48 -48.5t-65 -18t-64.5 18t-47 48t-17.5 65t17 65.5t47 48t65 17.5t65 -17.5z" />
    <glyph glyph-name="glyph618" horiz-adv-x="625" 
d="M194 -139q30 -18 48 -47.5t18 -63.5q0 -36 -17.5 -66.5t-48 -48.5t-65.5 -18t-65 18t-47 48.5t-17 66.5q0 34 17.5 63.5t47 47.5t64.5 18t65 -18zM509.5 -139q31.5 -18 50 -47.5t18.5 -63.5q0 -36 -18.5 -66.5t-50 -48.5t-67.5 -18q-34 0 -64 18t-47.5 48.5t-17.5 66.5
q0 33 18 63t47.5 48t63.5 18q36 0 67.5 -18zM353.5 -413q29.5 -18 47 -48.5t17.5 -64.5q0 -35 -17.5 -65.5t-47 -48t-64.5 -17.5t-65.5 17.5t-48 48t-17.5 65.5q0 34 18 64.5t48 48.5t65 18t64.5 -18z" />
    <glyph glyph-name="glyph619" horiz-adv-x="887" 
d="M0 1133v229l887 561v-229z" />
    <glyph glyph-name="glyph620" horiz-adv-x="1161" 
 />
    </font>
</defs>
</svg>
